<svg xmlns="http://www.w3.org/2000/svg" viewBox="0 0 144 53" fill="none">
<path d="M30 14.5553C29.8882 10.6571 28.2587 6.95601 25.4579 4.2382C22.6571 1.52039 18.9055 0 15 0C11.0946 0 7.34294 1.52039 4.5421 4.2382C1.74126 6.95601 0.111869 10.6571 2.2018e-05 14.5553C-0.00250933 16.0133 0.213239 17.4634 0.640139 18.8577C0.640139 18.8577 2.49898 24.6351 9.09725 34.3953C10.9315 37.0996 15.0062 43 15.0062 43C15.0062 43 19.0686 37.1365 20.9028 34.3953C27.501 24.6351 29.3722 18.8577 29.3722 18.8577C29.7889 17.4615 30.0004 16.0122 30 14.5553Z" fill="#2C3CF6"/>
<path d="M14.8831 9.47846C15.0931 10.0956 15.1356 10.7572 15.0062 11.3961C15.4599 11.3017 15.8752 11.0749 16.1996 10.7445C16.524 10.414 16.7427 9.99476 16.8281 9.53994C16.9156 9.0578 16.8959 8.56236 16.7704 8.08866C16.6449 7.61496 16.4166 7.17458 16.1018 6.79872L15.8063 6.38078C15.6956 6.28244 15.634 6.18409 15.5478 6.09804C15.4026 5.92533 15.267 5.74477 15.1416 5.55717C14.9859 5.29807 14.8947 5.00553 14.8754 4.704C14.8561 4.40247 14.9094 4.10074 15.0308 3.82397C14.5387 3.86403 14.0797 4.08709 13.7446 4.44906C13.4095 4.81103 13.2226 5.2855 13.2212 5.77847C13.2389 6.68579 13.5792 7.55723 14.1814 8.23695C14.4799 8.61093 14.7167 9.03001 14.8831 9.47846Z" fill="#F4D82F"/>
<path d="M23.1926 13.5103H6.75842C6.43193 13.5103 6.11881 13.6398 5.88795 13.8703C5.65709 14.1008 5.5274 14.4135 5.5274 14.7395C5.48151 16.0104 5.69256 17.2775 6.14794 18.4651C6.60332 19.6527 7.29369 20.7365 8.17784 21.6518C9.06199 22.5671 10.1218 23.295 11.2939 23.7923C12.4661 24.2895 13.7266 24.5457 15.0001 24.5457C16.2736 24.5457 17.5341 24.2895 18.7063 23.7923C19.8784 23.295 20.9382 22.5671 21.8223 21.6518C22.7065 20.7365 23.3969 19.6527 23.8523 18.4651C24.3077 17.2775 24.5187 16.0104 24.4728 14.7395C24.473 14.5739 24.4395 14.4099 24.3746 14.2575C24.3097 14.105 24.2146 13.9673 24.095 13.8525C23.9755 13.7376 23.8339 13.6481 23.6788 13.5893C23.5237 13.5305 23.3583 13.5036 23.1926 13.5103Z" fill="#F4D82F"/>
<path fill-rule="evenodd" clip-rule="evenodd" d="M4.98858 47.6772C4.98858 46.3593 8.74142 45.8911 8.74142 45.8911C8.74142 45.8911 6.66283 46.2899 6.6913 47.1974C6.6913 48.5442 11.5489 49.0008 15.0284 49.0008C18.7699 49.0008 23.3599 48.5442 23.3599 47.1974C23.3599 46.2899 21.3154 45.8911 21.3154 45.8911C21.3154 45.8911 25.0626 46.3593 25.0626 47.6772C25.0626 49.6308 18.4909 50.1279 15.0284 50.1279C11.4806 50.1279 4.98858 49.6308 4.98858 47.6772ZM15.0057 48.3191C19.6868 48.3191 21.082 47.4867 21.082 46.8047C21.082 46.1226 19.0774 45.9146 19.0774 45.9146C19.0774 45.9146 19.8291 46.1342 19.8291 46.533C19.8291 47.3133 17.8473 47.637 14.9943 47.637C12.1412 47.637 10.1252 47.3133 10.1252 46.533C10.1252 46.1342 10.8827 45.9146 10.8827 45.9146C10.8827 45.9146 8.87241 46.0475 8.87241 46.8047C8.87241 47.5619 10.336 48.3191 15.0057 48.3191ZM23.9123 45.9954C23.9123 45.9954 26.828 46.637 26.828 48.0994C26.828 50.2033 21.1333 51.0299 15 51.0299C8.86674 51.0299 3.16629 50.2033 3.16629 48.0994C3.16629 46.637 6.0877 45.9954 6.0877 45.9954C4.32233 46.3018 0 47.1168 0 48.8855C0 51.92 8.90091 52.8911 15 52.8911C20.4499 52.8911 30 51.92 30 48.8855C30 47.1168 25.672 46.3018 23.9123 45.9954Z" fill="#343EED"/>
<path fill-rule="evenodd" clip-rule="evenodd" d="M67.1973 7.85201C67.742 7.33075 68.0628 6.61736 68.0918 5.86304C68.079 5.09705 67.7654 4.36701 67.2192 3.83121C66.6729 3.29541 65.938 2.99706 65.1737 3.00085C64.7913 2.99158 64.4108 3.05851 64.0544 3.19776C63.6979 3.33702 63.3726 3.54582 63.0973 3.81207C62.8219 4.07831 62.6021 4.3967 62.4504 4.74877C62.2988 5.10084 62.2184 5.47958 62.2139 5.86304C62.2394 6.62595 62.5649 7.34779 63.1195 7.87096C63.674 8.39413 64.4125 8.67613 65.1737 8.65542C65.9268 8.66143 66.6526 8.37327 67.1973 7.85201ZM62.8059 14.1425V27.4063C62.7956 27.7195 62.8484 28.0315 62.9611 28.3238C63.0738 28.6161 63.2441 28.8826 63.4619 29.1074C63.6797 29.3322 63.9404 29.5107 64.2285 29.6323C64.5167 29.7538 64.8263 29.8158 65.1389 29.8147C65.4536 29.8186 65.7658 29.7587 66.0567 29.6385C66.3477 29.5183 66.6114 29.3404 66.8319 29.1154C67.0525 28.8904 67.2254 28.623 67.3401 28.3293C67.4549 28.0356 67.5092 27.7216 67.4998 27.4063V14.1425C67.5093 13.8321 67.4558 13.523 67.3427 13.2339C67.2296 12.9448 67.0592 12.6817 66.8418 12.4604C66.6244 12.2392 66.3644 12.0645 66.0777 11.9469C65.791 11.8292 65.4835 11.7711 65.1737 11.7759C64.8608 11.7663 64.5492 11.8209 64.258 11.9363C63.9668 12.0517 63.7022 12.2256 63.4805 12.4472C63.2588 12.6688 63.0846 12.9335 62.9686 13.225C62.8526 13.5165 62.7972 13.8287 62.8059 14.1425ZM39.1898 8.40409V27.3714C39.1766 27.6893 39.228 28.0066 39.341 28.304C39.454 28.6014 39.6261 28.8726 39.847 29.1011C40.0678 29.3297 40.3328 29.5108 40.6257 29.6335C40.9186 29.7562 41.2333 29.8178 41.5507 29.8147C41.8658 29.8141 42.1775 29.7496 42.4672 29.6253C42.7568 29.5009 43.0184 29.3192 43.2363 29.091C43.4541 28.8628 43.6238 28.5929 43.7351 28.2974C43.8463 28.0019 43.8969 27.687 43.8838 27.3714V19.455H54.0377V27.3714C54.0255 27.6897 54.0778 28.0071 54.1915 28.3045C54.3053 28.6019 54.4781 28.873 54.6995 29.1015C54.9209 29.33 55.1863 29.511 55.4796 29.6336C55.7728 29.7562 56.0879 29.8178 56.4056 29.8147C56.7204 29.8141 57.0318 29.7496 57.3211 29.6252C57.6103 29.5008 57.8715 29.3189 58.0888 29.0906C58.3061 28.8624 58.4751 28.5924 58.5856 28.2969C58.6961 28.0014 58.7458 27.6866 58.7317 27.3714V8.36919C58.7481 8.05542 58.6996 7.74164 58.5895 7.44749C58.4793 7.15334 58.3097 6.88516 58.0913 6.65974C57.873 6.43431 57.6106 6.25649 57.3205 6.13742C57.0304 6.01835 56.719 5.96059 56.4056 5.96774C56.0893 5.9568 55.7742 6.01164 55.4802 6.12882C55.1861 6.24601 54.9194 6.42298 54.6969 6.64859C54.4745 6.87421 54.3011 7.14357 54.1876 7.43971C54.0742 7.73584 54.0231 8.05231 54.0377 8.36919V15.2036H43.8838V8.40409C43.9 8.08812 43.8514 7.77218 43.7412 7.47572C43.6309 7.17926 43.4613 6.90858 43.2427 6.68033C43.0241 6.45208 42.7613 6.2711 42.4703 6.14855C42.1793 6.026 41.8664 5.96447 41.5507 5.96774C41.2328 5.9606 40.9168 6.01927 40.6225 6.14011C40.3282 6.26094 40.062 6.44132 39.8404 6.66998C39.6188 6.89865 39.4467 7.17066 39.3347 7.46904C39.2228 7.76742 39.1735 8.08574 39.1898 8.40409ZM93.8667 22.6313C93.8667 26.6035 90.7327 29.3959 86.2826 29.3959H78.4547C78.1366 29.4066 77.8197 29.3516 77.5237 29.2343C77.2277 29.117 76.959 28.9399 76.7343 28.7139C76.5095 28.488 76.3336 28.2181 76.2174 27.9211C76.1012 27.6241 76.0473 27.3063 76.0589 26.9874V8.78806C76.0483 8.4698 76.1029 8.15275 76.2195 7.85655C76.3362 7.56035 76.5123 7.29133 76.7369 7.06616C76.9615 6.841 77.2299 6.66449 77.5254 6.5476C77.8209 6.4307 78.1372 6.3759 78.4547 6.3866H84.1933C88.4763 6.3866 91.464 8.99749 91.464 12.7951C91.4889 13.5684 91.3504 14.3383 91.0575 15.0541C90.7646 15.77 90.3241 16.4157 89.7647 16.9488C90.9766 17.3121 92.0352 18.0658 92.7767 19.093C93.5183 20.1202 93.9014 21.3638 93.8667 22.6313ZM80.6345 10.4286V15.6922H83.8799C85.7184 15.6922 86.8675 14.68 86.8675 13.0395C86.8675 11.3989 85.7184 10.4286 83.8799 10.4286H80.6345ZM89.2284 22.4568C89.2284 20.6417 88.0097 19.5597 85.9552 19.5597H80.6345V25.3679H85.9691C87.9888 25.3679 89.2076 24.3067 89.2076 22.4568H89.2284ZM112.712 19.9436V19.8389C112.736 18.7611 112.541 17.6896 112.137 16.6904C111.733 15.6911 111.13 14.7851 110.365 14.028C109.599 13.271 108.687 12.6788 107.684 12.2879C106.682 11.897 105.611 11.7156 104.536 11.7549C103.351 11.7358 102.175 11.9567 101.077 12.4044C99.9792 12.852 98.983 13.5172 98.148 14.3601C97.313 15.2029 96.6563 16.2061 96.2174 17.3095C95.7785 18.4129 95.5664 19.5938 95.5937 20.7813C95.5937 25.9402 99.5982 29.8147 105.023 29.8147C106.962 29.8356 108.863 29.2766 110.483 28.2091C110.833 28.0326 111.128 27.7638 111.337 27.4316C111.545 27.0995 111.66 26.7166 111.667 26.3242C111.67 26.0732 111.622 25.8242 111.527 25.5923C111.431 25.3603 111.289 25.1503 111.11 24.9747C110.931 24.7992 110.719 24.6619 110.485 24.5711C110.252 24.4802 110.002 24.4378 109.752 24.4463C109.393 24.4532 109.043 24.5621 108.742 24.7605C107.665 25.4204 106.426 25.7684 105.163 25.7657C102.621 25.7657 100.887 24.5161 100.329 22.352H110.135C110.467 22.3837 110.801 22.3446 111.116 22.2372C111.432 22.1297 111.721 21.9565 111.964 21.7289C112.208 21.5013 112.4 21.2244 112.529 20.9167C112.658 20.6089 112.72 20.2773 112.712 19.9436ZM108.15 19.0361H100.329C100.852 16.9138 102.377 15.5526 104.431 15.5456C104.908 15.513 105.387 15.5792 105.837 15.7399C106.287 15.9007 106.699 16.1526 107.048 16.4801C107.397 16.8075 107.675 17.2034 107.865 17.6431C108.054 18.0829 108.151 18.557 108.15 19.0361ZM126.703 27.462C126.713 27.8582 126.606 28.2485 126.396 28.5838C126.185 28.9192 125.88 29.1846 125.519 29.3469C124.747 29.6642 123.917 29.8186 123.082 29.8006C118.597 29.8006 116.194 27.5318 116.194 23.3153V16.097H115.219C114.955 16.1056 114.692 16.0602 114.445 15.9636C114.199 15.867 113.975 15.7212 113.787 15.5351C113.599 15.349 113.45 15.1265 113.35 14.8811C113.251 14.6356 113.202 14.3724 113.206 14.1074C113.202 13.8427 113.251 13.5798 113.35 13.3348C113.45 13.0897 113.599 12.8676 113.787 12.6821C113.976 12.4965 114.2 12.3514 114.446 12.2556C114.692 12.1598 114.955 12.1153 115.219 12.1248H116.194V9.75131C116.182 9.43646 116.236 9.12257 116.351 8.82928C116.465 8.536 116.639 8.26963 116.862 8.04684C117.084 7.82405 117.35 7.64963 117.642 7.53451C117.935 7.41938 118.248 7.36603 118.562 7.37777C118.873 7.37291 119.181 7.43124 119.469 7.54925C119.756 7.66726 120.017 7.8425 120.235 8.06435C120.453 8.28621 120.624 8.55009 120.737 8.84004C120.851 9.12999 120.905 9.44 120.895 9.75131V12.1248H124.057C124.32 12.1151 124.581 12.1597 124.826 12.2558C125.071 12.3519 125.293 12.4975 125.479 12.6834C125.666 12.8694 125.812 13.0918 125.908 13.3368C126.005 13.5818 126.05 13.8441 126.042 14.1074C126.05 14.3711 126.005 14.6337 125.908 14.879C125.812 15.1244 125.666 15.3472 125.48 15.5337C125.294 15.7203 125.071 15.8665 124.827 15.9634C124.582 16.0603 124.32 16.1058 124.057 16.097H120.895V22.8965C120.895 24.8093 121.794 25.5772 123.987 25.5772H124.649C124.91 25.5506 125.175 25.5797 125.424 25.6627C125.674 25.7456 125.903 25.8805 126.097 26.0584C126.291 26.2364 126.445 26.4534 126.55 26.6953C126.654 26.9372 126.707 27.1985 126.703 27.462ZM143.348 27.4623V19.141C143.348 14.4358 140.639 11.7551 135.91 11.804C133.648 11.7085 131.431 12.4544 129.684 13.8982C129.401 14.1279 129.167 14.4139 129 14.7383C128.832 15.0627 128.733 15.4185 128.709 15.7831C128.714 16.0419 128.771 16.2971 128.875 16.534C128.979 16.7708 129.129 16.9847 129.317 17.1631C129.504 17.3416 129.724 17.4812 129.965 17.5738C130.207 17.6664 130.464 17.7103 130.722 17.7029C131.237 17.6878 131.731 17.4899 132.115 17.1444C133.016 16.3124 134.197 15.8513 135.423 15.8529C137.505 15.8529 138.654 16.9699 138.654 18.8827V19.6506H134.343C130.304 19.6506 127.839 21.6122 127.839 24.6769C127.839 27.7415 130.241 29.8358 133.786 29.8358C135.642 29.8952 137.449 29.2323 138.828 27.9858C138.933 28.5067 139.217 28.974 139.631 29.3058C140.045 29.6377 140.562 29.813 141.092 29.8009C141.396 29.805 141.697 29.7468 141.978 29.6297C142.259 29.5127 142.512 29.3393 142.724 29.1202C142.935 28.9012 143.1 28.6411 143.207 28.3559C143.314 28.0708 143.362 27.7667 143.348 27.4623ZM138.654 22.7361V22.9456C138.644 23.4088 138.542 23.8655 138.355 24.2889C138.167 24.7123 137.897 25.0941 137.561 25.4118C137.224 25.7296 136.828 25.977 136.395 26.1397C135.962 26.3023 135.502 26.377 135.04 26.3593C133.507 26.3593 132.567 25.6332 132.567 24.4814C132.567 23.3295 133.403 22.7361 134.97 22.7361H138.654Z" fill="#343EED"/>
<path d="M49.6361 47.523C49.7689 47.7222 49.8353 47.9158 49.8353 48.1039C49.8353 48.3584 49.7302 48.5686 49.52 48.7346C49.3208 48.9005 49.0829 48.9835 48.8063 48.9835C48.6293 48.9835 48.4578 48.9448 48.2919 48.8673C48.137 48.7788 48.0042 48.6516 47.8935 48.4856L45.6862 45.1332C45.465 44.7791 45.2271 44.5302 44.9726 44.3863C44.7292 44.2425 44.4083 44.1706 44.01 44.1706H42.3836V47.8881C42.3836 48.2201 42.2896 48.4856 42.1015 48.6848C41.9134 48.8729 41.6589 48.9669 41.338 48.9669C41.0172 48.9669 40.7572 48.8729 40.558 48.6848C40.3699 48.4856 40.2759 48.2201 40.2759 47.8881V38.1794C40.2759 37.8585 40.3644 37.6096 40.5414 37.4325C40.7295 37.2555 40.984 37.167 41.3048 37.167H45.4539C46.7816 37.167 47.7884 37.4657 48.4744 38.0632C49.1715 38.6496 49.52 39.5015 49.52 40.619C49.52 41.5263 49.26 42.2731 48.74 42.8595C48.231 43.4348 47.5063 43.8055 46.5658 43.9714C46.8867 44.0489 47.1688 44.1872 47.4123 44.3863C47.6557 44.5855 47.8935 44.8621 48.1259 45.2162L49.6361 47.523ZM45.1552 42.5276C45.9628 42.5276 46.5548 42.3782 46.931 42.0795C47.3071 41.7697 47.4952 41.2995 47.4952 40.6688C47.4952 40.0271 47.3071 39.5624 46.931 39.2747C46.5548 38.976 45.9628 38.8266 45.1552 38.8266H42.367V42.5276H45.1552Z" fill="#343EED"/>
<path d="M58.0556 46.6434C58.2437 46.6434 58.3931 46.7153 58.5037 46.8592C58.6254 47.003 58.6863 47.1966 58.6863 47.4401C58.6863 47.783 58.4816 48.0707 58.0722 48.3031C57.696 48.5133 57.2701 48.6848 56.7943 48.8175C56.3185 48.9392 55.8649 49.0001 55.4334 49.0001C54.1278 49.0001 53.0933 48.6239 52.3299 47.8716C51.5665 47.1192 51.1848 46.0902 51.1848 44.7847C51.1848 43.9548 51.3507 43.2191 51.6827 42.5774C52.0146 41.9356 52.4793 41.4378 53.0767 41.0837C53.6853 40.7296 54.3713 40.5526 55.1347 40.5526C55.8649 40.5526 56.5011 40.7131 57.0432 41.0339C57.5854 41.3548 58.0058 41.8084 58.3046 42.3948C58.6033 42.9812 58.7527 43.6727 58.7527 44.4693C58.7527 44.9451 58.5424 45.183 58.122 45.183H53.2261C53.2925 45.9464 53.5083 46.5107 53.8734 46.8758C54.2385 47.2298 54.7696 47.4069 55.4666 47.4069C55.8207 47.4069 56.1305 47.3626 56.396 47.2741C56.6726 47.1856 56.9824 47.0639 57.3254 46.909C57.6573 46.7319 57.9007 46.6434 58.0556 46.6434ZM55.1845 42.0131C54.6202 42.0131 54.1666 42.1901 53.8236 42.5442C53.4917 42.8982 53.2925 43.4072 53.2261 44.071H56.9769C56.9547 43.3961 56.7888 42.8872 56.479 42.5442C56.1692 42.1901 55.7377 42.0131 55.1845 42.0131Z" fill="#343EED"/>
<path d="M63.3872 49.0001C62.1812 49.0001 61.2075 48.7622 60.4662 48.2865C60.1122 48.0762 59.9351 47.7775 59.9351 47.3903C59.9351 47.169 59.996 46.992 60.1177 46.8592C60.2394 46.7153 60.3888 46.6434 60.5658 46.6434C60.7539 46.6434 61.0139 46.7319 61.3458 46.909C61.6999 47.0749 62.0207 47.2022 62.3084 47.2907C62.6071 47.3792 62.9833 47.4235 63.4369 47.4235C63.9016 47.4235 64.2612 47.346 64.5157 47.1911C64.7812 47.0362 64.914 46.8205 64.914 46.5439C64.914 46.3558 64.8587 46.2064 64.748 46.0958C64.6485 45.9851 64.4604 45.8855 64.1838 45.797C63.9182 45.6974 63.5089 45.5868 62.9557 45.4651C61.9709 45.2659 61.2628 44.9838 60.8313 44.6187C60.4109 44.2536 60.2007 43.7502 60.2007 43.1084C60.2007 42.6216 60.3445 42.1846 60.6322 41.7973C60.9198 41.399 61.3126 41.0948 61.8105 40.8845C62.3195 40.6633 62.8948 40.5526 63.5365 40.5526C64.0012 40.5526 64.4493 40.6135 64.8808 40.7352C65.3123 40.8458 65.6996 41.0118 66.0425 41.2331C66.3966 41.4543 66.5736 41.7475 66.5736 42.1127C66.5736 42.3339 66.5128 42.522 66.3911 42.6769C66.2694 42.8208 66.12 42.8927 65.943 42.8927C65.8213 42.8927 65.6996 42.8706 65.5779 42.8263C65.4672 42.771 65.3234 42.6935 65.1463 42.594C64.8255 42.428 64.5489 42.3063 64.3165 42.2288C64.0842 42.1403 63.7965 42.0961 63.4535 42.0961C63.0442 42.0961 62.7178 42.179 62.4744 42.345C62.242 42.511 62.1258 42.7378 62.1258 43.0255C62.1258 43.3021 62.2475 43.5123 62.491 43.6561C62.7344 43.7999 63.2046 43.9438 63.9016 44.0876C64.6429 44.2425 65.2238 44.4195 65.6442 44.6187C66.0647 44.8178 66.3634 45.0668 66.5404 45.3655C66.7285 45.6643 66.8226 46.046 66.8226 46.5107C66.8226 47.263 66.5072 47.866 65.8766 48.3197C65.257 48.7733 64.4272 49.0001 63.3872 49.0001Z" fill="#343EED"/>
<path d="M72.639 47.4235C73.1922 47.4566 73.4688 47.7056 73.4688 48.1703C73.4688 48.4358 73.3582 48.6405 73.1369 48.7843C72.9267 48.9171 72.6224 48.9724 72.2241 48.9503L71.776 48.9171C69.9172 48.7843 68.9879 47.7886 68.9879 45.9298V42.3118H68.158C67.8593 42.3118 67.627 42.2454 67.461 42.1127C67.3061 41.9799 67.2287 41.7863 67.2287 41.5318C67.2287 41.2773 67.3061 41.0837 67.461 40.9509C67.627 40.8182 67.8593 40.7518 68.158 40.7518H68.9879V39.2249C68.9879 38.9262 69.0819 38.6883 69.27 38.5113C69.4581 38.3343 69.7126 38.2457 70.0334 38.2457C70.3432 38.2457 70.5922 38.3343 70.7802 38.5113C70.9683 38.6883 71.0624 38.9262 71.0624 39.2249V40.7518H72.4731C72.7718 40.7518 72.9986 40.8182 73.1535 40.9509C73.3195 41.0837 73.4025 41.2773 73.4025 41.5318C73.4025 41.7863 73.3195 41.9799 73.1535 42.1127C72.9986 42.2454 72.7718 42.3118 72.4731 42.3118H71.0624V46.0792C71.0624 46.8979 71.4386 47.3349 72.1909 47.3903L72.639 47.4235Z" fill="#343EED"/>
<path d="M78.0683 40.5526C79.1969 40.5526 80.0322 40.8348 80.5744 41.399C81.1276 41.9522 81.4042 42.7986 81.4042 43.9382V47.9877C81.4042 48.2865 81.3157 48.5243 81.1386 48.7014C80.9616 48.8673 80.7182 48.9503 80.4084 48.9503C80.1207 48.9503 79.8828 48.8618 79.6948 48.6848C79.5177 48.5077 79.4292 48.2754 79.4292 47.9877V47.6226C79.2411 48.0541 78.9424 48.3916 78.533 48.635C78.1347 48.8784 77.67 49.0001 77.1389 49.0001C76.5968 49.0001 76.1044 48.8895 75.6619 48.6682C75.2193 48.4469 74.8708 48.1426 74.6163 47.7554C74.3618 47.3681 74.2346 46.9366 74.2346 46.4609C74.2346 45.8634 74.384 45.3932 74.6827 45.0502C74.9925 44.7072 75.4904 44.4583 76.1764 44.3034C76.8623 44.1485 77.8083 44.071 79.0143 44.071H79.4292V43.6893C79.4292 43.1472 79.313 42.7544 79.0807 42.511C78.8483 42.2565 78.4722 42.1293 77.9521 42.1293C77.6313 42.1293 77.3049 42.1791 76.973 42.2786C76.641 42.3671 76.2483 42.4999 75.7946 42.6769C75.507 42.8208 75.2968 42.8927 75.164 42.8927C74.9648 42.8927 74.7989 42.8208 74.6661 42.6769C74.5444 42.5331 74.4835 42.345 74.4835 42.1127C74.4835 41.9246 74.5278 41.7641 74.6163 41.6314C74.7159 41.4875 74.8763 41.3548 75.0976 41.2331C75.4848 41.0228 75.944 40.8569 76.4751 40.7352C77.0172 40.6135 77.5483 40.5526 78.0683 40.5526ZM77.5538 47.5064C78.107 47.5064 78.5551 47.3239 78.8981 46.9588C79.2522 46.5826 79.4292 46.1013 79.4292 45.5149V45.1664H79.1305C78.3892 45.1664 77.8138 45.1996 77.4045 45.2659C76.9951 45.3323 76.7019 45.4485 76.5249 45.6145C76.3478 45.7804 76.2593 46.0072 76.2593 46.2949C76.2593 46.649 76.381 46.9422 76.6245 47.1745C76.8789 47.3958 77.1887 47.5064 77.5538 47.5064Z" fill="#343EED"/>
<path d="M89.9187 40.5858C90.2395 40.5858 90.494 40.6743 90.6821 40.8514C90.8702 41.0284 90.9642 41.2663 90.9642 41.565V48.0043C90.9642 48.292 90.8647 48.5243 90.6655 48.7014C90.4774 48.8784 90.2285 48.9669 89.9187 48.9669C89.6199 48.9669 89.3821 48.8839 89.205 48.718C89.028 48.552 88.9395 48.3252 88.9395 48.0375V47.6226C88.685 48.0652 88.342 48.4082 87.9105 48.6516C87.479 48.8839 86.9922 49.0001 86.4501 49.0001C84.4585 49.0001 83.4627 47.8826 83.4627 45.6477V41.565C83.4627 41.2663 83.5568 41.0284 83.7449 40.8514C83.933 40.6743 84.1819 40.5858 84.4917 40.5858C84.8126 40.5858 85.067 40.6743 85.2551 40.8514C85.4432 41.0284 85.5373 41.2663 85.5373 41.565V45.6643C85.5373 46.2396 85.6534 46.6656 85.8858 46.9422C86.1181 47.2188 86.4833 47.3571 86.9811 47.3571C87.5565 47.3571 88.0156 47.169 88.3586 46.7928C88.7127 46.4056 88.8897 45.8966 88.8897 45.2659V41.565C88.8897 41.2663 88.9837 41.0284 89.1718 40.8514C89.3599 40.6743 89.6089 40.5858 89.9187 40.5858Z" fill="#343EED"/>
<path d="M97.6542 40.5858C97.9419 40.5637 98.1687 40.6245 98.3346 40.7684C98.5006 40.9122 98.5836 41.128 98.5836 41.4156C98.5836 41.7144 98.5117 41.9356 98.3678 42.0795C98.224 42.2233 97.964 42.3174 97.5878 42.3616L97.0899 42.4114C96.4371 42.4778 95.9558 42.6991 95.646 43.0752C95.3473 43.4514 95.198 43.9217 95.198 44.4859V47.9711C95.198 48.292 95.0984 48.5409 94.8992 48.718C94.7001 48.8839 94.4511 48.9669 94.1524 48.9669C93.8537 48.9669 93.6047 48.8839 93.4056 48.718C93.2175 48.5409 93.1234 48.292 93.1234 47.9711V41.5484C93.1234 41.2386 93.2175 41.0007 93.4056 40.8348C93.6047 40.6688 93.8481 40.5858 94.1358 40.5858C94.4235 40.5858 94.6558 40.6688 94.8328 40.8348C95.0099 40.9897 95.0984 41.2165 95.0984 41.5152V42.179C95.3086 41.6922 95.6184 41.316 96.0278 41.0505C96.4482 40.785 96.9129 40.6356 97.4218 40.6024L97.6542 40.5858Z" fill="#343EED"/>
<path d="M102.963 40.5526C104.091 40.5526 104.927 40.8348 105.469 41.399C106.022 41.9522 106.299 42.7986 106.299 43.9382V47.9877C106.299 48.2865 106.21 48.5243 106.033 48.7014C105.856 48.8673 105.613 48.9503 105.303 48.9503C105.015 48.9503 104.777 48.8618 104.589 48.6848C104.412 48.5077 104.324 48.2754 104.324 47.9877V47.6226C104.135 48.0541 103.837 48.3916 103.427 48.635C103.029 48.8784 102.564 49.0001 102.033 49.0001C101.491 49.0001 100.999 48.8895 100.556 48.6682C100.114 48.4469 99.7651 48.1426 99.5106 47.7554C99.2562 47.3681 99.1289 46.9366 99.1289 46.4609C99.1289 45.8634 99.2783 45.3932 99.577 45.0502C99.8868 44.7072 100.385 44.4583 101.071 44.3034C101.757 44.1485 102.703 44.071 103.909 44.071H104.324V43.6893C104.324 43.1472 104.207 42.7544 103.975 42.511C103.743 42.2565 103.366 42.1293 102.846 42.1293C102.526 42.1293 102.199 42.1791 101.867 42.2786C101.535 42.3671 101.143 42.4999 100.689 42.6769C100.401 42.8208 100.191 42.8927 100.058 42.8927C99.8592 42.8927 99.6932 42.8208 99.5604 42.6769C99.4387 42.5331 99.3779 42.345 99.3779 42.1127C99.3779 41.9246 99.4221 41.7641 99.5106 41.6314C99.6102 41.4875 99.7706 41.3548 99.9919 41.2331C100.379 41.0228 100.838 40.8569 101.369 40.7352C101.912 40.6135 102.443 40.5526 102.963 40.5526ZM102.448 47.5064C103.001 47.5064 103.449 47.3239 103.792 46.9588C104.147 46.5826 104.324 46.1013 104.324 45.5149V45.1664H104.025C103.284 45.1664 102.708 45.1996 102.299 45.2659C101.889 45.3323 101.596 45.4485 101.419 45.6145C101.242 45.7804 101.154 46.0072 101.154 46.2949C101.154 46.649 101.275 46.9422 101.519 47.1745C101.773 47.3958 102.083 47.5064 102.448 47.5064Z" fill="#343EED"/>
<path d="M113.12 40.5526C114.094 40.5526 114.819 40.8292 115.294 41.3824C115.77 41.9356 116.008 42.771 116.008 43.8885V47.9711C116.008 48.2809 115.914 48.5243 115.726 48.7014C115.549 48.8784 115.3 48.9669 114.979 48.9669C114.658 48.9669 114.404 48.8784 114.216 48.7014C114.027 48.5243 113.933 48.2809 113.933 47.9711V44.0046C113.933 43.374 113.812 42.9148 113.568 42.6271C113.336 42.3395 112.965 42.1956 112.456 42.1956C111.859 42.1956 111.378 42.3837 111.012 42.7599C110.658 43.1361 110.481 43.6395 110.481 44.2702V47.9711C110.481 48.2809 110.387 48.5243 110.199 48.7014C110.011 48.8784 109.757 48.9669 109.436 48.9669C109.115 48.9669 108.86 48.8784 108.672 48.7014C108.495 48.5243 108.407 48.2809 108.407 47.9711V41.5484C108.407 41.2607 108.501 41.0284 108.689 40.8514C108.877 40.6743 109.132 40.5858 109.452 40.5858C109.74 40.5858 109.972 40.6743 110.149 40.8514C110.338 41.0173 110.432 41.2386 110.432 41.5152V41.9633C110.708 41.5097 111.079 41.1611 111.544 40.9177C112.008 40.6743 112.534 40.5526 113.12 40.5526Z" fill="#343EED"/>
<path d="M122.33 47.4235C122.884 47.4566 123.16 47.7056 123.16 48.1703C123.16 48.4358 123.05 48.6405 122.828 48.7843C122.618 48.9171 122.314 48.9724 121.916 48.9503L121.467 48.9171C119.609 48.7843 118.679 47.7886 118.679 45.9298V42.3118H117.849C117.551 42.3118 117.318 42.2454 117.152 42.1127C116.998 41.9799 116.92 41.7863 116.92 41.5318C116.92 41.2773 116.998 41.0837 117.152 40.9509C117.318 40.8182 117.551 40.7518 117.849 40.7518H118.679V39.2249C118.679 38.9262 118.773 38.6883 118.961 38.5113C119.149 38.3343 119.404 38.2457 119.725 38.2457C120.035 38.2457 120.284 38.3343 120.472 38.5113C120.66 38.6883 120.754 38.9262 120.754 39.2249V40.7518H122.164C122.463 40.7518 122.69 40.8182 122.845 40.9509C123.011 41.0837 123.094 41.2773 123.094 41.5318C123.094 41.7863 123.011 41.9799 122.845 42.1127C122.69 42.2454 122.463 42.3118 122.164 42.3118H120.754V46.0792C120.754 46.8979 121.13 47.3349 121.882 47.3903L122.33 47.4235Z" fill="#343EED"/>
</svg>
