<svg width="30" height="18" viewBox="0 0 30 18" fill="none" xmlns="http://www.w3.org/2000/svg">
<mask id="mask0_8227_5696" style="mask-type:alpha" maskUnits="userSpaceOnUse" x="0" y="0" width="30" height="18">
<path d="M25.6471 0H4C1.79086 0 0 1.79086 0 4V14C0 16.2091 1.79087 18 4 18H25.6471C27.8562 18 29.6471 16.2091 29.6471 14V4C29.6471 1.79086 27.8562 0 25.6471 0Z" fill="#FF0534"/>
</mask>
<g mask="url(#mask0_8227_5696)">
<path d="M29.7933 16.6118H-1.05859V18H29.7933V16.6118Z" fill="#CB001C"/>
<path d="M29.7933 15.2329H-1.05859V16.6211H29.7933V15.2329Z" fill="white"/>
<path d="M29.7933 13.8447H-1.05859V15.2237H29.7933V13.8447Z" fill="#CB001C"/>
<path d="M29.7933 12.4658H-1.05859V13.854H29.7933V12.4658Z" fill="white"/>
<path d="M29.7933 11.0776H-1.05859V12.4658H29.7933V11.0776Z" fill="#CB001C"/>
<path d="M29.7933 9.68945H-1.05859V11.0684H29.7933V9.68945Z" fill="white"/>
<path d="M29.7933 8.31055H-1.05859V9.6987H29.7933V8.31055Z" fill="#CB001C"/>
<path d="M29.7933 6.92236H-1.05859V8.30132H29.7933V6.92236Z" fill="white"/>
<path d="M29.7933 5.54346H-1.05859V6.93161H29.7933V5.54346Z" fill="#CB001C"/>
<path d="M29.7933 4.15527H-1.05859V5.54342H29.7933V4.15527Z" fill="white"/>
<path d="M29.7933 2.76709H-1.05859V4.15524H29.7933V2.76709Z" fill="#CB001C"/>
<path d="M29.7933 1.38818H-1.05859V2.77633H29.7933V1.38818Z" fill="white"/>
<path d="M29.7933 0H-1.05859V1.38815H29.7933V0Z" fill="#CB001C"/>
<path d="M13.0344 0H-1.05859V9.68948H13.0344V0Z" fill="#2A3560"/>
<path d="M0.218509 1.06641L0.338018 1.43413H0.724127L0.411563 1.66395L0.531072 2.03168L0.218509 1.80185L-0.103248 2.03168L0.0254544 1.66395L-0.287109 1.43413H0.0898059L0.218509 1.06641Z" fill="white"/>
<path d="M0.218509 2.68457L0.338018 3.05229H0.724127L0.411563 3.27293L0.531072 3.64984L0.218509 3.42001L-0.103248 3.64984L0.0254544 3.27293L-0.287109 3.05229H0.0898059L0.218509 2.68457Z" fill="white"/>
<path d="M0.220462 4.30273L0.339971 4.67046H0.72608L0.413516 4.90028L0.533026 5.26801L0.220462 5.03818L-0.101295 5.26801L0.0274076 4.90028L-0.285156 4.67046H0.091759L0.220462 4.30273Z" fill="white"/>
<path d="M0.220462 5.92041L0.339971 6.28813H0.72608L0.413516 6.51796L0.533026 6.87649L0.220462 6.65585L-0.101295 6.87649L0.0274076 6.51796L-0.285156 6.28813H0.091759L0.220462 5.92041Z" fill="white"/>
<path d="M0.218509 7.53857L0.338018 7.9063H0.724127L0.411563 8.13612L0.531072 8.49465L0.218509 8.27402L-0.103248 8.49465L0.0254544 8.13612L-0.287109 7.9063H0.0898059L0.218509 7.53857Z" fill="white"/>
<path d="M1.34156 1.92139L1.46107 2.28911H1.84717L1.53461 2.50974L1.65412 2.87746L1.34156 2.65683L1.02899 2.87746L1.1485 2.50974L0.835938 2.28911H1.22205L1.34156 1.92139Z" fill="white"/>
<path d="M1.34156 3.53906L1.46107 3.90678H1.84717L1.53461 4.12742L1.65412 4.49514L1.34156 4.27451L1.02899 4.49514L1.1485 4.12742L0.835938 3.90678H1.22205L1.34156 3.53906Z" fill="white"/>
<path d="M1.34156 5.15723L1.46107 5.52495H1.84717L1.53461 5.74558L1.65412 6.1133L1.34156 5.89267L1.02899 6.1133L1.1485 5.74558L0.835938 5.52495H1.22205L1.34156 5.15723Z" fill="white"/>
<path d="M1.34156 6.77539L1.46107 7.14311H1.84717L1.53461 7.36375L1.65412 7.73147L1.34156 7.50164L1.02899 7.73147L1.1485 7.36375L0.835938 7.14311H1.22205L1.34156 6.77539Z" fill="white"/>
<path d="M2.48218 1.06641L2.60169 1.43413H2.9878L2.67523 1.66395L2.79474 2.03168L2.48218 1.80185L2.16962 2.03168L2.28913 1.66395L1.97656 1.43413H2.36267L2.48218 1.06641Z" fill="white"/>
<path d="M2.48218 2.68457L2.60169 3.05229H2.9878L2.67523 3.27293L2.79474 3.64984L2.48218 3.42001L2.16962 3.64984L2.28913 3.27293L1.97656 3.05229H2.36267L2.48218 2.68457Z" fill="white"/>
<path d="M2.48218 4.30273L2.60169 4.67046H2.9878L2.67523 4.90028L2.79474 5.26801L2.48218 5.03818L2.16962 5.26801L2.28913 4.90028L1.97656 4.67046H2.36267L2.48218 4.30273Z" fill="white"/>
<path d="M2.48218 5.92041L2.60169 6.28813H2.9878L2.67523 6.51796L2.79474 6.87649L2.48218 6.65585L2.16962 6.87649L2.28913 6.51796L1.97656 6.28813H2.36267L2.48218 5.92041Z" fill="white"/>
<path d="M2.48218 7.53809L2.60169 7.90581H2.9878L2.67523 8.13564L2.79474 8.49416L2.48218 8.27353L2.16962 8.49416L2.28913 8.13564L1.97656 7.90581H2.36267L2.48218 7.53809Z" fill="white"/>
<path d="M3.61109 1.92139L3.7306 2.28911H4.1167L3.80414 2.50974L3.92365 2.87746L3.61109 2.65683L3.29852 2.87746L3.41803 2.50974L3.10547 2.28911H3.49158L3.61109 1.92139Z" fill="white"/>
<path d="M3.61109 3.53906L3.7306 3.90678H4.1167L3.80414 4.12742L3.92365 4.49514L3.61109 4.27451L3.29852 4.49514L3.41803 4.12742L3.10547 3.90678H3.49158L3.61109 3.53906Z" fill="white"/>
<path d="M3.61109 5.15723L3.7306 5.52495H4.1167L3.80414 5.74558L3.92365 6.1133L3.61109 5.89267L3.29852 6.1133L3.41803 5.74558L3.10547 5.52495H3.49158L3.61109 5.15723Z" fill="white"/>
<path d="M3.61109 6.77539L3.7306 7.14311H4.1167L3.80414 7.36375L3.92365 7.73147L3.61109 7.50164L3.29852 7.73147L3.41803 7.36375L3.10547 7.14311H3.49158L3.61109 6.77539Z" fill="white"/>
<path d="M4.75171 1.06641L4.87122 1.43413H5.25733L4.94477 1.66395L5.06428 2.03168L4.75171 1.80185L4.43915 2.03168L4.55866 1.66395L4.24609 1.43413H4.6322L4.75171 1.06641Z" fill="white"/>
<path d="M4.75171 2.68457L4.87122 3.05229H5.25733L4.94477 3.27293L5.06428 3.64984L4.75171 3.42001L4.43915 3.64984L4.55866 3.27293L4.24609 3.05229H4.6322L4.75171 2.68457Z" fill="white"/>
<path d="M4.75171 4.30273L4.87122 4.67046H5.25733L4.94477 4.90028L5.06428 5.26801L4.75171 5.03818L4.43915 5.26801L4.55866 4.90028L4.24609 4.67046H4.6322L4.75171 4.30273Z" fill="white"/>
<path d="M4.75171 5.92041L4.87122 6.28813H5.25733L4.94477 6.51796L5.06428 6.87649L4.75171 6.65585L4.43915 6.87649L4.55866 6.51796L4.24609 6.28813H4.6322L4.75171 5.92041Z" fill="white"/>
<path d="M4.75171 7.53809L4.87122 7.90581H5.25733L4.94477 8.13564L5.06428 8.49416L4.75171 8.27353L4.43915 8.49416L4.55866 8.13564L4.24609 7.90581H4.6322L4.75171 7.53809Z" fill="white"/>
<path d="M5.87338 1.92139L5.99289 2.28911H6.379L6.06643 2.50974L6.18594 2.87746L5.87338 2.65683L5.57001 2.87746L5.68032 2.50974L5.37695 2.28911H5.75387L5.87338 1.92139Z" fill="white"/>
<path d="M5.87338 3.53906L5.99289 3.90678H6.379L6.06643 4.12742L6.18594 4.49514L5.87338 4.27451L5.57001 4.49514L5.68032 4.12742L5.37695 3.90678H5.75387L5.87338 3.53906Z" fill="white"/>
<path d="M5.87338 5.15723L5.99289 5.52495H6.379L6.06643 5.74558L6.18594 6.1133L5.87338 5.89267L5.57001 6.1133L5.68032 5.74558L5.37695 5.52495H5.75387L5.87338 5.15723Z" fill="white"/>
<path d="M5.87338 6.77539L5.99289 7.14311H6.379L6.06643 7.36375L6.18594 7.73147L5.87338 7.50164L5.57001 7.73147L5.68032 7.36375L5.37695 7.14311H5.75387L5.87338 6.77539Z" fill="white"/>
<path d="M7.01205 1.06641L7.13156 1.43413H7.51767L7.2051 1.66395L7.33381 2.03168L7.01205 1.80185L6.70868 2.03168L6.819 1.66395L6.51562 1.43413H6.89254L7.01205 1.06641Z" fill="white"/>
<path d="M7.01205 2.68457L7.13156 3.05229H7.51767L7.2051 3.27293L7.33381 3.64984L7.01205 3.42001L6.70868 3.64984L6.819 3.27293L6.51562 3.05229H6.89254L7.01205 2.68457Z" fill="white"/>
<path d="M7.01205 4.30273L7.13156 4.67046H7.51767L7.2051 4.90028L7.33381 5.26801L7.01205 5.03818L6.70868 5.26801L6.819 4.90028L6.51562 4.67046H6.89254L7.01205 4.30273Z" fill="white"/>
<path d="M7.01205 5.92041L7.13156 6.28813H7.51767L7.2051 6.51796L7.33381 6.87649L7.01205 6.65585L6.70868 6.87649L6.819 6.51796L6.51562 6.28813H6.89254L7.01205 5.92041Z" fill="white"/>
<path d="M7.01205 7.53809L7.13156 7.90581H7.51767L7.2051 8.13564L7.33381 8.49416L7.01205 8.27353L6.70868 8.49416L6.819 8.13564L6.51562 7.90581H6.89254L7.01205 7.53809Z" fill="white"/>
<path d="M8.14234 1.92139L8.26185 2.28911H8.64796L8.33539 2.50974L8.4549 2.87746L8.14234 2.65683L7.82977 2.87746L7.94928 2.50974L7.63672 2.28911H8.02283L8.14234 1.92139Z" fill="white"/>
<path d="M8.14234 3.53906L8.26185 3.90678H8.64796L8.33539 4.12742L8.4549 4.49514L8.14234 4.27451L7.82977 4.49514L7.94928 4.12742L7.63672 3.90678H8.02283L8.14234 3.53906Z" fill="white"/>
<path d="M8.14234 5.15723L8.26185 5.52495H8.64796L8.33539 5.74558L8.4549 6.1133L8.14234 5.89267L7.82977 6.1133L7.94928 5.74558L7.63672 5.52495H8.02283L8.14234 5.15723Z" fill="white"/>
<path d="M8.14234 6.77539L8.26185 7.14311H8.64796L8.33539 7.36375L8.4549 7.73147L8.14234 7.50164L7.82977 7.73147L7.94928 7.36375L7.63672 7.14311H8.02283L8.14234 6.77539Z" fill="white"/>
<path d="M9.28353 1.06641L9.40304 1.43413H9.78915L9.47659 1.66395L9.5961 2.03168L9.28353 1.80185L8.98016 2.03168L9.09048 1.66395L8.78711 1.43413H9.16402L9.28353 1.06641Z" fill="white"/>
<path d="M9.28353 2.68457L9.40304 3.05229H9.78915L9.47659 3.27293L9.5961 3.64984L9.28353 3.42001L8.98016 3.64984L9.09048 3.27293L8.78711 3.05229H9.16402L9.28353 2.68457Z" fill="white"/>
<path d="M9.28353 4.30273L9.40304 4.67046H9.78915L9.47659 4.90028L9.5961 5.26801L9.28353 5.03818L8.98016 5.26801L9.09048 4.90028L8.78711 4.67046H9.16402L9.28353 4.30273Z" fill="white"/>
<path d="M9.28353 5.92041L9.40304 6.28813H9.78915L9.47659 6.51796L9.5961 6.87649L9.28353 6.65585L8.98016 6.87649L9.09048 6.51796L8.78711 6.28813H9.16402L9.28353 5.92041Z" fill="white"/>
<path d="M9.28353 7.53809L9.40304 7.90581H9.78915L9.47659 8.13564L9.5961 8.49416L9.28353 8.27353L8.98016 8.49416L9.09048 8.13564L8.78711 7.90581H9.16402L9.28353 7.53809Z" fill="white"/>
<path d="M10.4138 1.92139L10.5333 2.28911H10.9194L10.6069 2.50974L10.7172 2.87746L10.4138 2.65683L10.1013 2.87746L10.2208 2.50974L9.9082 2.28911H10.2943L10.4138 1.92139Z" fill="white"/>
<path d="M10.4138 3.53906L10.5333 3.90678H10.9194L10.6069 4.12742L10.7172 4.49514L10.4138 4.27451L10.1013 4.49514L10.2208 4.12742L9.9082 3.90678H10.2943L10.4138 3.53906Z" fill="white"/>
<path d="M10.4138 5.15723L10.5333 5.52495H10.9194L10.6069 5.74558L10.7172 6.1133L10.4138 5.89267L10.1013 6.1133L10.2208 5.74558L9.9082 5.52495H10.2943L10.4138 5.15723Z" fill="white"/>
<path d="M10.4138 6.77539L10.5333 7.14311H10.9194L10.6069 7.36375L10.7172 7.73147L10.4138 7.50164L10.1013 7.73147L10.2208 7.36375L9.9082 7.14311H10.2943L10.4138 6.77539Z" fill="white"/>
<path d="M11.5544 1.06641L11.674 1.43413H12.0601L11.7475 1.66395L11.867 2.03168L11.5544 1.80185L11.2419 2.03168L11.3614 1.66395L11.0488 1.43413H11.4349L11.5544 1.06641Z" fill="white"/>
<path d="M11.5544 2.68457L11.674 3.05229H12.0601L11.7475 3.27293L11.867 3.64984L11.5544 3.42001L11.2419 3.64984L11.3614 3.27293L11.0488 3.05229H11.4349L11.5544 2.68457Z" fill="white"/>
<path d="M11.5544 4.30273L11.674 4.67046H12.0601L11.7475 4.90028L11.867 5.26801L11.5544 5.03818L11.2419 5.26801L11.3614 4.90028L11.0488 4.67046H11.4349L11.5544 4.30273Z" fill="white"/>
<path d="M11.5544 5.92041L11.674 6.28813H12.0601L11.7475 6.51796L11.867 6.87649L11.5544 6.65585L11.2419 6.87649L11.3614 6.51796L11.0488 6.28813H11.4349L11.5544 5.92041Z" fill="white"/>
<path d="M11.5544 7.53809L11.674 7.90581H12.0601L11.7475 8.13564L11.867 8.49416L11.5544 8.27353L11.2419 8.49416L11.3614 8.13564L11.0488 7.90581H11.4349L11.5544 7.53809Z" fill="white"/>
</g>
</svg>
