<svg width="313" height="93" viewBox="0 0 313 93" fill="none" xmlns="http://www.w3.org/2000/svg">
<path d="M5.95 36.3C4.98333 36.3 4.21667 36.0167 3.65 35.45C3.08333 34.85 2.8 34.0667 2.8 33.1V3.8C2.8 2.86666 3.08333 2.13333 3.65 1.6C4.21667 1.03333 4.95 0.749998 5.85 0.749998H23.7C24.6 0.749998 25.2833 0.983331 25.75 1.45C26.25 1.88333 26.5 2.5 26.5 3.3C26.5 4.1 26.25 4.73333 25.75 5.2C25.2833 5.66666 24.6 5.9 23.7 5.9H9.15V33.1C9.15 34.0667 8.85 34.85 8.25 35.45C7.68333 36.0167 6.91667 36.3 5.95 36.3ZM40.6164 10.95C42.7164 10.95 44.5831 11.4833 46.2164 12.55C47.8831 13.6167 49.1664 15.1333 50.0664 17.1C50.9997 19.0333 51.4664 21.2667 51.4664 23.8C51.4664 26.3333 50.9997 28.55 50.0664 30.45C49.1664 32.35 47.8997 33.8167 46.2664 34.85C44.6331 35.8833 42.7497 36.4 40.6164 36.4C38.8831 36.4 37.3331 36.0333 35.9664 35.3C34.5997 34.5667 33.5497 33.55 32.8164 32.25V42.45C32.8164 43.3167 32.5331 44 31.9664 44.5C31.3997 45 30.6497 45.25 29.7164 45.25C28.7831 45.25 28.0164 44.9833 27.4164 44.45C26.8497 43.9167 26.5664 43.2167 26.5664 42.35V14C26.5664 13.1 26.8331 12.3833 27.3664 11.85C27.9331 11.3167 28.6831 11.05 29.6164 11.05C30.5497 11.05 31.2997 11.3167 31.8664 11.85C32.4331 12.3833 32.7164 13.1 32.7164 14V15.25C33.4497 13.8833 34.4997 12.8333 35.8664 12.1C37.2664 11.3333 38.8497 10.95 40.6164 10.95ZM38.9664 31.55C40.9331 31.55 42.4664 30.8833 43.5664 29.55C44.6664 28.1833 45.2164 26.2667 45.2164 23.8C45.2164 21.2667 44.6664 19.3 43.5664 17.9C42.4664 16.5 40.9331 15.8 38.9664 15.8C36.9664 15.8 35.4164 16.4833 34.3164 17.85C33.2497 19.2167 32.7164 21.1667 32.7164 23.7C32.7164 26.2 33.2497 28.1333 34.3164 29.5C35.4164 30.8667 36.9664 31.55 38.9664 31.55ZM67.1957 10.95C70.5957 10.95 73.1124 11.8 74.7457 13.5C76.4124 15.1667 77.2457 17.7167 77.2457 21.15V33.35C77.2457 34.25 76.979 34.9667 76.4457 35.5C75.9124 36 75.179 36.25 74.2457 36.25C73.379 36.25 72.6624 35.9833 72.0957 35.45C71.5624 34.9167 71.2957 34.2167 71.2957 33.35V32.25C70.729 33.55 69.829 34.5667 68.5957 35.3C67.3957 36.0333 65.9957 36.4 64.3957 36.4C62.7624 36.4 61.279 36.0667 59.9457 35.4C58.6124 34.7333 57.5624 33.8167 56.7957 32.65C56.029 31.4833 55.6457 30.1833 55.6457 28.75C55.6457 26.95 56.0957 25.5333 56.9957 24.5C57.929 23.4667 59.429 22.7167 61.4957 22.25C63.5624 21.7833 66.4124 21.55 70.0457 21.55H71.2957V20.4C71.2957 18.7667 70.9457 17.5833 70.2457 16.85C69.5457 16.0833 68.4124 15.7 66.8457 15.7C65.879 15.7 64.8957 15.85 63.8957 16.15C62.8957 16.4167 61.7124 16.8167 60.3457 17.35C59.479 17.7833 58.8457 18 58.4457 18C57.8457 18 57.3457 17.7833 56.9457 17.35C56.579 16.9167 56.3957 16.35 56.3957 15.65C56.3957 15.0833 56.529 14.6 56.7957 14.2C57.0957 13.7667 57.579 13.3667 58.2457 13C59.4124 12.3667 60.7957 11.8667 62.3957 11.5C64.029 11.1333 65.629 10.95 67.1957 10.95ZM65.6457 31.9C67.3124 31.9 68.6624 31.35 69.6957 30.25C70.7624 29.1167 71.2957 27.6667 71.2957 25.9V24.85H70.3957C68.1624 24.85 66.429 24.95 65.1957 25.15C63.9624 25.35 63.079 25.7 62.5457 26.2C62.0124 26.7 61.7457 27.3833 61.7457 28.25C61.7457 29.3167 62.1124 30.2 62.8457 30.9C63.6124 31.5667 64.5457 31.9 65.6457 31.9ZM86.5477 36.3C85.6143 36.3 84.8643 36.0333 84.2977 35.5C83.731 34.9667 83.4477 34.25 83.4477 33.35V14C83.4477 13.1 83.731 12.3833 84.2977 11.85C84.8643 11.3167 85.6143 11.05 86.5477 11.05C87.5143 11.05 88.281 11.3167 88.8477 11.85C89.4143 12.3833 89.6977 13.1 89.6977 14V21.05H100.398V14C100.398 13.1 100.681 12.3833 101.248 11.85C101.814 11.3167 102.564 11.05 103.498 11.05C104.464 11.05 105.231 11.3167 105.798 11.85C106.364 12.3833 106.648 13.1 106.648 14L106.698 33.1C106.698 34.0667 106.398 34.85 105.798 35.45C105.231 36.0167 104.481 36.3 103.548 36.3C102.581 36.3 101.814 36.0167 101.248 35.45C100.681 34.85 100.398 34.0667 100.398 33.1V25.9H89.6977V33.35C89.6977 34.25 89.4143 34.9667 88.8477 35.5C88.281 36.0333 87.5143 36.3 86.5477 36.3ZM113.141 42.65C112.274 42.65 111.574 42.3833 111.041 41.85C110.541 41.35 110.291 40.6333 110.291 39.7V34.45C110.258 33.4833 110.508 32.7167 111.041 32.15C111.574 31.5833 112.274 31.3 113.141 31.3H113.691C114.658 29.5667 115.324 27.6167 115.691 25.45C116.091 23.2833 116.291 20.7167 116.291 17.75V14.7C116.258 13.7333 116.508 12.9667 117.041 12.4C117.574 11.8333 118.308 11.55 119.241 11.55H131.591C132.558 11.5167 133.324 11.7667 133.891 12.3C134.458 12.8333 134.741 13.5667 134.741 14.5V31.3H135.541C136.508 31.2667 137.274 31.5167 137.841 32.05C138.408 32.5833 138.691 33.3167 138.691 34.25V39.7C138.691 40.6333 138.424 41.35 137.891 41.85C137.391 42.3833 136.708 42.65 135.841 42.65C134.941 42.65 134.241 42.3833 133.741 41.85C133.241 41.35 132.991 40.6333 132.991 39.7V36H116.041V39.7C116.041 40.6333 115.774 41.35 115.241 41.85C114.741 42.3833 114.041 42.65 113.141 42.65ZM128.541 16.25H121.691V17.75C121.691 20.9167 121.441 23.6667 120.941 26C120.474 28.3333 119.808 30.1 118.941 31.3H128.541V16.25ZM159.223 13.45C159.889 12.5167 160.489 11.8833 161.023 11.55C161.589 11.2167 162.356 11.05 163.323 11.05C164.289 11.05 165.056 11.3167 165.623 11.85C166.223 12.3833 166.523 13.1 166.523 14V33.25C166.523 34.15 166.239 34.8833 165.673 35.45C165.139 36.0167 164.439 36.3 163.573 36.3C162.673 36.3 161.939 36.0167 161.373 35.45C160.839 34.8833 160.573 34.15 160.573 33.25V19.15L149.973 34C149.339 34.9 148.723 35.5167 148.123 35.85C147.556 36.15 146.839 36.3 145.973 36.3C145.006 36.3 144.239 36.0333 143.673 35.5C143.106 34.9667 142.823 34.2333 142.823 33.3V14.05C142.823 13.15 143.089 12.4333 143.623 11.9C144.189 11.3333 144.923 11.05 145.823 11.05C146.689 11.05 147.389 11.3333 147.923 11.9C148.489 12.4333 148.773 13.15 148.773 14.05V28.05L159.223 13.45ZM184.005 36.4C181.505 36.4 179.305 35.8833 177.405 34.85C175.539 33.8167 174.089 32.3333 173.055 30.4C172.022 28.4667 171.505 26.2167 171.505 23.65C171.505 21.0833 172.022 18.85 173.055 16.95C174.089 15.0167 175.539 13.5333 177.405 12.5C179.305 11.4667 181.505 10.95 184.005 10.95C186.505 10.95 188.689 11.4667 190.555 12.5C192.455 13.5333 193.905 15.0167 194.905 16.95C195.939 18.85 196.455 21.0833 196.455 23.65C196.455 26.2167 195.939 28.4667 194.905 30.4C193.905 32.3333 192.455 33.8167 190.555 34.85C188.689 35.8833 186.505 36.4 184.005 36.4ZM183.955 31.55C185.989 31.55 187.539 30.8833 188.605 29.55C189.672 28.2167 190.205 26.25 190.205 23.65C190.205 21.0833 189.672 19.1333 188.605 17.8C187.539 16.4333 186.005 15.75 184.005 15.75C182.005 15.75 180.455 16.4333 179.355 17.8C178.289 19.1333 177.755 21.0833 177.755 23.65C177.755 26.25 178.289 28.2167 179.355 29.55C180.422 30.8833 181.955 31.55 183.955 31.55ZM210.165 36.4C206.832 36.4 203.949 35.75 201.515 34.45C200.949 34.15 200.515 33.7833 200.215 33.35C199.915 32.9167 199.765 32.4667 199.765 32C199.765 31.4333 199.982 30.95 200.415 30.55C200.849 30.1167 201.399 29.9 202.065 29.9C202.499 29.9 202.999 30 203.565 30.2C204.599 30.7 205.582 31.0667 206.515 31.3C207.449 31.5 208.482 31.6 209.615 31.6C211.115 31.6 212.382 31.35 213.415 30.85C214.482 30.35 215.015 29.5333 215.015 28.4C215.015 27.5333 214.715 26.8833 214.115 26.45C213.549 25.9833 212.532 25.75 211.065 25.75H207.815C207.115 25.75 206.549 25.55 206.115 25.15C205.715 24.7167 205.515 24.1667 205.515 23.5C205.515 22.8333 205.715 22.3 206.115 21.9C206.549 21.4667 207.115 21.25 207.815 21.25H210.815C212.115 21.25 213.065 21.0167 213.665 20.55C214.265 20.05 214.565 19.3833 214.565 18.55C214.565 17.6167 214.149 16.9167 213.315 16.45C212.482 15.9833 211.365 15.75 209.965 15.75C208.832 15.75 207.815 15.8667 206.915 16.1C206.049 16.3 205.132 16.6333 204.165 17.1C203.665 17.3 203.215 17.4 202.815 17.4C202.149 17.4 201.582 17.1833 201.115 16.75C200.682 16.3167 200.465 15.8 200.465 15.2C200.465 14.7333 200.615 14.3 200.915 13.9C201.215 13.5 201.665 13.1667 202.265 12.9C204.865 11.6 207.849 10.95 211.215 10.95C214.382 10.95 216.815 11.55 218.515 12.75C220.249 13.95 221.115 15.5667 221.115 17.6C221.115 18.8667 220.715 20.0167 219.915 21.05C219.149 22.0833 218.082 22.8167 216.715 23.25C219.982 24.0833 221.615 25.95 221.615 28.85C221.615 30.35 221.115 31.6833 220.115 32.85C219.115 33.9833 217.732 34.8667 215.965 35.5C214.232 36.1 212.299 36.4 210.165 36.4ZM229.712 36.3C228.778 36.3 228.028 36.0333 227.462 35.5C226.895 34.9667 226.612 34.25 226.612 33.35V14C226.612 13.1 226.895 12.3833 227.462 11.85C228.028 11.3167 228.778 11.05 229.712 11.05C230.678 11.05 231.445 11.3167 232.012 11.85C232.578 12.3833 232.862 13.1 232.862 14V21.05H243.562V14C243.562 13.1 243.845 12.3833 244.412 11.85C244.978 11.3167 245.728 11.05 246.662 11.05C247.628 11.05 248.395 11.3167 248.962 11.85C249.528 12.3833 249.812 13.1 249.812 14L249.862 33.1C249.862 34.0667 249.562 34.85 248.962 35.45C248.395 36.0167 247.645 36.3 246.712 36.3C245.745 36.3 244.978 36.0167 244.412 35.45C243.845 34.85 243.562 34.0667 243.562 33.1V25.9H232.862V33.35C232.862 34.25 232.578 34.9667 232.012 35.5C231.445 36.0333 230.678 36.3 229.712 36.3ZM259.205 36C258.238 36.0333 257.472 35.7833 256.905 35.25C256.338 34.7167 256.055 33.9833 256.055 33.05V14C256.055 13.1 256.338 12.3833 256.905 11.85C257.472 11.3167 258.222 11.05 259.155 11.05C260.122 11.05 260.888 11.3167 261.455 11.85C262.022 12.3833 262.305 13.1 262.305 14V19.65H265.955C268.955 19.65 271.288 20.2667 272.955 21.5C274.622 22.7 275.455 24.7167 275.455 27.55C275.455 29.35 274.988 30.9 274.055 32.2C273.155 33.4667 271.955 34.4167 270.455 35.05C268.988 35.6833 267.405 36 265.705 36H259.205ZM281.705 36.3C280.738 36.3 279.972 36.0333 279.405 35.5C278.838 34.9667 278.555 34.25 278.555 33.35V14C278.555 13.1 278.838 12.3833 279.405 11.85C279.972 11.3167 280.738 11.05 281.705 11.05C282.638 11.05 283.388 11.3167 283.955 11.85C284.522 12.3833 284.805 13.1 284.805 14V33.35C284.805 34.25 284.522 34.9667 283.955 35.5C283.388 36.0333 282.638 36.3 281.705 36.3ZM264.405 31.7C265.738 31.7 266.888 31.3833 267.855 30.75C268.822 30.1167 269.305 29.1 269.305 27.7C269.305 26.2 268.855 25.2 267.955 24.7C267.088 24.2 265.905 23.95 264.405 23.95H262.205V31.7H264.405ZM310.516 29.3C311.083 29.3 311.533 29.5167 311.866 29.95C312.233 30.3833 312.416 30.9667 312.416 31.7C312.416 32.7333 311.799 33.6 310.566 34.3C309.433 34.9333 308.149 35.45 306.716 35.85C305.283 36.2167 303.916 36.4 302.616 36.4C298.683 36.4 295.566 35.2667 293.266 33C290.966 30.7333 289.816 27.6333 289.816 23.7C289.816 21.2 290.316 18.9833 291.316 17.05C292.316 15.1167 293.716 13.6167 295.516 12.55C297.349 11.4833 299.416 10.95 301.716 10.95C303.916 10.95 305.833 11.4333 307.466 12.4C309.099 13.3667 310.366 14.7333 311.266 16.5C312.166 18.2667 312.616 20.35 312.616 22.75C312.616 24.1833 311.983 24.9 310.716 24.9H295.966C296.166 27.2 296.816 28.9 297.916 30C299.016 31.0667 300.616 31.6 302.716 31.6C303.783 31.6 304.716 31.4667 305.516 31.2C306.349 30.9333 307.283 30.5667 308.316 30.1C309.316 29.5667 310.049 29.3 310.516 29.3ZM301.866 15.35C300.166 15.35 298.799 15.8833 297.766 16.95C296.766 18.0167 296.166 19.55 295.966 21.55H307.266C307.199 19.5167 306.699 17.9833 305.766 16.95C304.833 15.8833 303.533 15.35 301.866 15.35ZM13.1 86.4C10.6667 86.4 8.51667 85.8833 6.65 84.85C4.81667 83.8167 3.4 82.35 2.4 80.45C1.4 78.55 0.9 76.3333 0.9 73.8C0.9 71.2667 1.41667 69.0333 2.45 67.1C3.51667 65.1333 5 63.6167 6.9 62.55C8.8 61.4833 10.9833 60.95 13.45 60.95C14.75 60.95 16.05 61.1333 17.35 61.5C18.6833 61.8667 19.85 62.3667 20.85 63C21.9167 63.7 22.45 64.5833 22.45 65.65C22.45 66.3833 22.2667 66.9833 21.9 67.45C21.5667 67.8833 21.1167 68.1 20.55 68.1C20.1833 68.1 19.8 68.0167 19.4 67.85C19 67.6833 18.6 67.4833 18.2 67.25C17.4667 66.8167 16.7667 66.4833 16.1 66.25C15.4333 65.9833 14.6667 65.85 13.8 65.85C11.7333 65.85 10.1333 66.5333 9 67.9C7.9 69.2333 7.35 71.1667 7.35 73.7C7.35 76.2 7.9 78.1333 9 79.5C10.1333 80.8333 11.7333 81.5 13.8 81.5C14.6333 81.5 15.3667 81.3833 16 81.15C16.6667 80.8833 17.4 80.5333 18.2 80.1C18.7 79.8 19.1333 79.5833 19.5 79.45C19.8667 79.2833 20.2333 79.2 20.6 79.2C21.1333 79.2 21.5833 79.4333 21.95 79.9C22.3167 80.3667 22.5 80.95 22.5 81.65C22.5 82.2167 22.3667 82.7167 22.1 83.15C21.8667 83.55 21.4667 83.9167 20.9 84.25C19.8667 84.9167 18.6667 85.45 17.3 85.85C15.9333 86.2167 14.5333 86.4 13.1 86.4ZM40.9641 72.6C42.1307 73.0333 43.0641 73.6167 43.7641 74.35C44.4974 75.0833 45.3474 76.3167 46.3141 78.05L48.5141 81.85C48.8141 82.3833 48.9641 82.9 48.9641 83.4C48.9641 84.2 48.6474 84.8833 48.0141 85.45C47.4141 85.9833 46.6974 86.25 45.8641 86.25C44.7307 86.25 43.8641 85.7167 43.2641 84.65L40.1141 79.05C39.4141 77.8833 38.7307 77.0667 38.0641 76.6C37.3974 76.1333 36.4307 75.9 35.1641 75.9H33.2141V83.3C33.2141 84.2333 32.9307 84.9667 32.3641 85.5C31.7974 86.0333 31.0307 86.3 30.0641 86.3C29.0974 86.3 28.3307 86.0333 27.7641 85.5C27.2307 84.9667 26.9641 84.2333 26.9641 83.3V64C26.9641 63.1 27.2474 62.3833 27.8141 61.85C28.3807 61.3167 29.1307 61.05 30.0641 61.05C31.0307 61.05 31.7974 61.3167 32.3641 61.85C32.9307 62.3833 33.2141 63.1 33.2141 64V71.25H35.4641L42.6141 62.35C43.2807 61.4833 44.0641 61.05 44.9641 61.05C45.6641 61.05 46.2641 61.3 46.7641 61.8C47.2641 62.3 47.5141 62.9 47.5141 63.6C47.5141 64.3 47.2474 64.9833 46.7141 65.65L40.9641 72.6ZM70.209 63.45C70.8757 62.5167 71.4757 61.8833 72.009 61.55C72.5757 61.2167 73.3423 61.05 74.309 61.05C75.2757 61.05 76.0423 61.3167 76.609 61.85C77.209 62.3833 77.509 63.1 77.509 64V83.25C77.509 84.15 77.2257 84.8833 76.659 85.45C76.1257 86.0167 75.4257 86.3 74.559 86.3C73.659 86.3 72.9257 86.0167 72.359 85.45C71.8257 84.8833 71.559 84.15 71.559 83.25V69.15L60.959 84C60.3257 84.9 59.709 85.5167 59.109 85.85C58.5423 86.15 57.8257 86.3 56.959 86.3C55.9923 86.3 55.2257 86.0333 54.659 85.5C54.0923 84.9667 53.809 84.2333 53.809 83.3V64.05C53.809 63.15 54.0757 62.4333 54.609 61.9C55.1757 61.3333 55.909 61.05 56.809 61.05C57.6757 61.05 58.3757 61.3333 58.909 61.9C59.4757 62.4333 59.759 63.15 59.759 64.05V78.05L70.209 63.45ZM83.9418 92.65C83.0751 92.65 82.3751 92.3833 81.8418 91.85C81.3418 91.35 81.0918 90.6333 81.0918 89.7V84.45C81.0585 83.4833 81.3085 82.7167 81.8418 82.15C82.3751 81.5833 83.0751 81.3 83.9418 81.3H84.4918C85.4585 79.5667 86.1251 77.6167 86.4918 75.45C86.8918 73.2833 87.0918 70.7167 87.0918 67.75V64.7C87.0585 63.7333 87.3085 62.9667 87.8418 62.4C88.3751 61.8333 89.1085 61.55 90.0418 61.55H102.392C103.358 61.5167 104.125 61.7667 104.692 62.3C105.258 62.8333 105.542 63.5667 105.542 64.5V81.3H106.342C107.308 81.2667 108.075 81.5167 108.642 82.05C109.208 82.5833 109.492 83.3167 109.492 84.25V89.7C109.492 90.6333 109.225 91.35 108.692 91.85C108.192 92.3833 107.508 92.65 106.642 92.65C105.742 92.65 105.042 92.3833 104.542 91.85C104.042 91.35 103.792 90.6333 103.792 89.7V86H86.8418V89.7C86.8418 90.6333 86.5751 91.35 86.0418 91.85C85.5418 92.3833 84.8418 92.65 83.9418 92.65ZM99.3418 66.25H92.4918V67.75C92.4918 70.9167 92.2418 73.6667 91.7418 76C91.2751 78.3333 90.6085 80.1 89.7418 81.3H99.3418V66.25ZM128.073 72.6C129.24 73.0333 130.173 73.6167 130.873 74.35C131.607 75.0833 132.457 76.3167 133.423 78.05L135.623 81.85C135.923 82.3833 136.073 82.9 136.073 83.4C136.073 84.2 135.757 84.8833 135.123 85.45C134.523 85.9833 133.807 86.25 132.973 86.25C131.84 86.25 130.973 85.7167 130.373 84.65L127.223 79.05C126.523 77.8833 125.84 77.0667 125.173 76.6C124.507 76.1333 123.54 75.9 122.273 75.9H120.323V83.3C120.323 84.2333 120.04 84.9667 119.473 85.5C118.907 86.0333 118.14 86.3 117.173 86.3C116.207 86.3 115.44 86.0333 114.873 85.5C114.34 84.9667 114.073 84.2333 114.073 83.3V64C114.073 63.1 114.357 62.3833 114.923 61.85C115.49 61.3167 116.24 61.05 117.173 61.05C118.14 61.05 118.907 61.3167 119.473 61.85C120.04 62.3833 120.323 63.1 120.323 64V71.25H122.573L129.723 62.35C130.39 61.4833 131.173 61.05 132.073 61.05C132.773 61.05 133.373 61.3 133.873 61.8C134.373 62.3 134.623 62.9 134.623 63.6C134.623 64.3 134.357 64.9833 133.823 65.65L128.073 72.6ZM157.318 63.45C157.985 62.5167 158.585 61.8833 159.118 61.55C159.685 61.2167 160.452 61.05 161.418 61.05C162.385 61.05 163.152 61.3167 163.718 61.85C164.318 62.3833 164.618 63.1 164.618 64V83.25C164.618 84.15 164.335 84.8833 163.768 85.45C163.235 86.0167 162.535 86.3 161.668 86.3C160.768 86.3 160.035 86.0167 159.468 85.45C158.935 84.8833 158.668 84.15 158.668 83.25V69.15L148.068 84C147.435 84.9 146.818 85.5167 146.218 85.85C145.652 86.15 144.935 86.3 144.068 86.3C143.102 86.3 142.335 86.0333 141.768 85.5C141.202 84.9667 140.918 84.2333 140.918 83.3V64.05C140.918 63.15 141.185 62.4333 141.718 61.9C142.285 61.3333 143.018 61.05 143.918 61.05C144.785 61.05 145.485 61.3333 146.018 61.9C146.585 62.4333 146.868 63.15 146.868 64.05V78.05L157.318 63.45Z" fill="white"/>
</svg>
