<svg width="28" height="20" viewBox="0 0 28 20" fill="none" xmlns="http://www.w3.org/2000/svg">
<path d="M18.7629 0.551335C18.7629 0.246841 18.5161 0 18.2116 0H9.76799C9.46349 0 9.21665 0.246841 9.21665 0.551335C9.21665 1.17645 8.97097 1.77598 8.53363 2.218C8.09629 2.66002 7.50314 2.90836 6.88465 2.90836H1.25C0.697716 2.90836 0.25 3.35607 0.25 3.90836V19C0.25 19.5523 0.697715 20 1.25 20H26.75C27.3023 20 27.75 19.5523 27.75 19V3.90836C27.75 3.35608 27.3023 2.90836 26.75 2.90836H21.1085C20.8012 2.91018 20.4965 2.85055 20.2119 2.73291C19.9274 2.61527 19.6687 2.44193 19.4507 2.22288C19.2327 2.00383 19.0598 1.74338 18.9417 1.45651C18.8237 1.16965 18.7629 0.862023 18.7629 0.551335Z" fill="#3C3756"/>
<path d="M13.9834 15.5823C16.6647 15.5823 18.8383 13.3854 18.8383 10.6754C18.8383 7.96535 16.6647 5.76843 13.9834 5.76843C11.3021 5.76843 9.12842 7.96535 9.12842 10.6754C9.12842 13.3854 11.3021 15.5823 13.9834 15.5823Z" fill="white"/>
<path d="M16.6362 10.7812H11.38" stroke="#3C3756" stroke-width="2" stroke-linecap="round" stroke-linejoin="round"/>
<path d="M14.0083 13.4375L14.0083 8.125" stroke="#3C3756" stroke-width="2" stroke-linecap="round" stroke-linejoin="round"/>
</svg>
