<svg width="320" height="180" viewBox="0 0 320 180" fill="none" xmlns="http://www.w3.org/2000/svg">
<path fill-rule="evenodd" clip-rule="evenodd" d="M142.55 45.0728C142.438 45.0118 142.327 44.9481 142.217 44.8816C140.959 44.119 139.936 43.0255 139.258 41.7205C138.58 40.4155 138.274 38.9493 138.373 37.482C138.472 36.0148 138.972 34.603 139.819 33.4009C140.667 32.1989 141.828 31.2528 143.176 30.6661C144.525 30.0794 146.009 29.8746 147.466 30.0742C148.923 30.2738 150.297 30.87 151.438 31.7977C152.579 32.7254 153.443 33.9489 153.935 35.3345C154.365 36.544 154.497 37.8388 154.323 39.1102C154.23 39.7863 154.052 40.4452 153.794 41.0718C164.465 38.6816 175.693 39.9038 185.673 44.6463C197.462 50.2487 206.543 60.3048 210.917 72.6024L211.6 74.5291L118.864 107.518L118.181 105.591C113.807 93.2936 114.496 79.7619 120.099 67.9729C124.84 57.9963 132.77 49.9594 142.55 45.0728ZM145.075 34.3199C145.496 34.1684 145.94 34.0909 146.388 34.0909C147.37 34.0889 148.318 34.4557 149.043 35.1188C149.768 35.7819 150.218 36.6929 150.304 37.6717C150.389 38.6506 150.105 39.6259 149.506 40.405C148.907 41.184 148.038 41.7099 147.07 41.8788C146.102 42.0476 145.106 41.8471 144.279 41.3169C143.451 40.7866 142.853 39.9653 142.602 39.0153C142.352 38.0652 142.466 37.0557 142.924 36.1863C143.382 35.3168 144.149 34.6508 145.075 34.3199ZM164.58 43.9417C157.526 43.9491 150.571 45.608 144.273 48.7854C137.975 51.9628 132.509 56.5706 128.311 62.2398C124.114 67.909 121.302 74.4823 120.1 81.4333C119.367 85.6739 119.246 89.9833 119.729 94.2318L162.495 79.0203L163.866 82.8746L120.388 98.3392C120.663 99.6608 120.998 100.972 121.392 102.269L206.331 72.05C202.941 63.7546 197.162 56.6536 189.729 51.649C182.295 46.6443 173.541 43.9617 164.58 43.9417ZM104.28 115.458H233.891V119.549H220.561L214.476 126.99H204.147V132.178L202.257 132.325C202.191 132.325 195.192 132.918 184.457 136.715C174.571 140.216 159.405 147.234 143.258 160.796L126.113 180L94 160.212L113.303 151.839L113.599 151.708C116.396 150.394 119.048 148.791 121.511 146.925C124.89 144.336 128.916 140.274 128.916 135.635C128.916 132.147 126.739 128.529 125.689 126.99H121.642L117.395 119.549H104.28V115.458ZM122.059 153.074L120.321 152.714C125.574 149.449 133.007 143.452 133.007 135.618C133.007 132.386 131.716 129.243 130.491 126.99H131.789C134.264 127.236 137.116 130.213 139.879 133.097L139.891 133.11C143.238 136.604 146.699 140.216 150.708 140.216C153.872 140.216 157.211 138.62 161.416 136.609L161.573 136.535C169.223 132.857 180.657 127.363 200.056 126.999V128.431C193.171 129.408 168.732 134.297 141.323 157.067L122.059 153.074ZM139.542 126.99H174.054C168.143 128.87 163.546 131.077 159.811 132.871L159.798 132.877L159.778 132.886C155.979 134.707 152.966 136.15 150.708 136.15C148.461 136.15 145.637 133.208 142.906 130.363L142.849 130.304L142.832 130.286L142.831 130.286C141.752 129.16 140.661 128.023 139.542 126.99ZM122.105 119.549L124.019 122.9H212.537L215.277 119.549H122.105ZM191.583 68.6714L179.011 73.1434L180.382 76.9977L192.954 72.5257L191.583 68.6714ZM125.324 174.719L102.824 160.847L114.63 155.712L137.973 160.552L125.324 174.719Z" fill="#BBBAC7"/>
</svg>
