<svg width="47" height="47" viewBox="0 0 47 47" fill="none" xmlns="http://www.w3.org/2000/svg">
<rect width="47" height="47" rx="10" fill="#F2F2F9"/>
<path fill-rule="evenodd" clip-rule="evenodd" d="M21.4506 13.8901C21.4533 16.7818 20.1408 19.1853 18.4069 19.6868L19.7567 35.5351C19.8741 36.8583 18.9351 37.9973 17.74 38C16.5449 38.0027 15.6059 36.8716 15.7179 35.5378L17.0517 19.6868C15.3178 19.188 14 16.7871 14 13.8954C14 10.6409 15.6486 8.00267 17.716 8C19.7834 7.99733 21.4506 10.6356 21.4506 13.8901ZM32.0238 28.799C32.2115 29.2487 32.3081 29.7312 32.3078 30.2185L31.9637 36.8289C31.9745 36.915 31.9672 37.0024 31.9422 37.0855C31.9172 37.1686 31.875 37.2456 31.8185 37.3114C31.762 37.3773 31.6923 37.4305 31.6139 37.4678C31.5355 37.5051 31.4502 37.5255 31.3635 37.5278C30.9767 37.5278 30.9126 37.2157 30.9126 36.8316V30.2239C30.9104 29.7333 30.7527 29.256 30.4623 28.8606C30.1718 28.4652 29.7635 28.172 29.2961 28.0231L29.312 36.8262C29.312 37.0116 29.2384 37.1894 29.1074 37.3204C28.9763 37.4515 28.7985 37.5251 28.6131 37.5251C28.4278 37.5251 28.25 37.4515 28.1189 37.3204C27.9879 37.1894 27.9142 37.0116 27.9142 36.8262L27.8982 28.0231C27.432 28.1745 27.0258 28.4699 26.7382 28.8668C26.4506 29.2637 26.2963 29.7417 26.2977 30.2319L26.311 36.8369C26.311 37.2237 26.1616 37.5332 25.7775 37.5358C25.3933 37.5385 25.1772 37.2264 25.1772 36.8396L24.8892 30.2346C24.8881 29.3705 25.1886 28.5331 25.7389 27.8669C26.2892 27.2007 27.0548 26.7474 27.9036 26.5853L26.5404 10.9317C26.4204 9.61123 27.3594 8.46683 28.5545 8.46416C29.7495 8.46149 30.6885 9.5899 30.5792 10.9237L29.2774 26.5799C29.8782 26.6905 30.442 26.9491 30.918 27.3322C31.0223 27.4147 31.1212 27.5038 31.2141 27.599C31.5608 27.9414 31.836 28.3493 32.0238 28.799Z" fill="#3C3756"/>
<path d="M18.4069 19.6868L18.3374 19.4467L18.1404 19.5037L18.1578 19.708L18.4069 19.6868ZM21.4506 13.8901H21.2006V13.8903L21.4506 13.8901ZM19.7567 35.5351L19.5076 35.5563L19.5077 35.5572L19.7567 35.5351ZM17.74 38L17.7405 38.25H17.7405L17.74 38ZM15.7179 35.5378L15.4688 35.5168L15.4688 35.5169L15.7179 35.5378ZM17.0517 19.6868L17.3009 19.7078L17.3181 19.5033L17.1209 19.4466L17.0517 19.6868ZM17.716 8L17.7156 7.75L17.716 8ZM32.3078 30.2185L32.5578 30.2316L32.5578 30.2187L32.3078 30.2185ZM31.9637 36.8289L31.714 36.8159L31.7129 36.8381L31.7156 36.8601L31.9637 36.8289ZM31.9422 37.0855L32.1816 37.1576L32.1816 37.1576L31.9422 37.0855ZM31.8185 37.3114L32.0082 37.4743L31.8185 37.3114ZM31.6139 37.4678L31.5066 37.242L31.5065 37.242L31.6139 37.4678ZM31.3635 37.5278V37.7779L31.3701 37.7777L31.3635 37.5278ZM30.9126 30.2239H31.1626L31.1626 30.2227L30.9126 30.2239ZM30.4623 28.8606L30.2608 29.0086V29.0086L30.4623 28.8606ZM29.2961 28.0231L29.3719 27.7849L29.0454 27.6809L29.0461 28.0236L29.2961 28.0231ZM29.312 36.8262H29.562V36.8258L29.312 36.8262ZM29.1074 37.3204L28.9306 37.1437H28.9306L29.1074 37.3204ZM28.1189 37.3204L28.2957 37.1437L28.1189 37.3204ZM27.9142 36.8262H28.1642V36.8258L27.9142 36.8262ZM27.8982 28.0231L28.1482 28.0227L28.1476 27.6793L27.821 27.7853L27.8982 28.0231ZM26.7382 28.8668L26.9406 29.0135L26.7382 28.8668ZM26.2977 30.2319L26.5477 30.2314L26.5477 30.2312L26.2977 30.2319ZM26.311 36.8369H26.561L26.561 36.8364L26.311 36.8369ZM25.7775 37.5358L25.7757 37.2858H25.7757L25.7775 37.5358ZM25.1772 36.8396H25.4275L25.427 36.8287L25.1772 36.8396ZM24.8892 30.2346L24.6389 30.2349L24.6394 30.2455L24.8892 30.2346ZM25.7389 27.8669L25.5462 27.7077V27.7077L25.7389 27.8669ZM27.9036 26.5853L27.9505 26.8308L28.1722 26.7885L28.1526 26.5636L27.9036 26.5853ZM26.5404 10.9317L26.7895 10.91L26.7894 10.9091L26.5404 10.9317ZM28.5545 8.46416L28.5539 8.21416L28.5545 8.46416ZM30.5792 10.9237L30.8283 10.9444L30.8283 10.9441L30.5792 10.9237ZM29.2774 26.5799L29.0282 26.5592L29.0095 26.7848L29.2321 26.8258L29.2774 26.5799ZM30.918 27.3322L30.7612 27.527L30.7629 27.5283L30.918 27.3322ZM31.2141 27.599L31.0351 27.7736L31.0384 27.7768L31.2141 27.599ZM18.4763 19.927C19.4297 19.6512 20.2368 18.8638 20.8008 17.8021C21.3667 16.7368 21.702 15.3718 21.7006 13.8899L21.2006 13.8903C21.2019 15.3001 20.8823 16.5827 20.3592 17.5675C19.8341 18.5559 19.118 19.2209 18.3374 19.4467L18.4763 19.927ZM20.0058 35.5139L18.656 19.6656L18.1578 19.708L19.5076 35.5563L20.0058 35.5139ZM17.7405 38.25C19.1077 38.2469 20.1337 36.9554 20.0057 35.513L19.5077 35.5572C19.6145 36.7611 18.7624 37.7477 17.7394 37.75L17.7405 38.25ZM15.4688 35.5169C15.3468 36.9688 16.3723 38.253 17.7405 38.25L17.7394 37.75C16.7175 37.7523 15.8649 36.7744 15.9671 35.5587L15.4688 35.5169ZM16.8026 19.6659L15.4688 35.5168L15.967 35.5588L17.3009 19.7078L16.8026 19.6659ZM13.75 13.8954C13.75 15.3775 14.0874 16.7418 14.6551 17.8061C15.2208 18.8668 16.0292 19.6528 16.9826 19.9271L17.1209 19.4466C16.3403 19.222 15.6229 18.5582 15.0962 17.5708C14.5715 16.587 14.25 15.3051 14.25 13.8954H13.75ZM17.7156 7.75C16.5662 7.75149 15.5687 8.48539 14.8711 9.59524C14.1716 10.7079 13.75 12.2289 13.75 13.8954H14.25C14.25 12.3075 14.6527 10.8821 15.2944 9.86134C15.9378 8.83775 16.7983 8.25119 17.7163 8.25L17.7156 7.75ZM21.7006 13.8901C21.7006 12.223 21.2741 10.7018 20.5698 9.58984C19.8673 8.48082 18.865 7.74852 17.7156 7.75L17.7163 8.25C18.6343 8.24882 19.4994 8.83432 20.1474 9.85739C20.7935 10.8775 21.2006 12.3027 21.2006 13.8901H21.7006ZM32.5578 30.2187C32.5581 29.6982 32.455 29.1829 32.2545 28.7027L31.7931 28.8953C31.9681 29.3145 32.0581 29.7642 32.0578 30.2184L32.5578 30.2187ZM32.2133 36.8419L32.5575 30.2315L32.0581 30.2056L31.714 36.8159L32.2133 36.8419ZM32.1816 37.1576C32.2166 37.041 32.2269 36.9184 32.2117 36.7977L31.7156 36.8601C31.7221 36.9116 31.7177 36.9638 31.7028 37.0135L32.1816 37.1576ZM32.0082 37.4743C32.0874 37.382 32.1465 37.2741 32.1816 37.1576L31.7028 37.0135C31.6878 37.0632 31.6627 37.1092 31.6288 37.1486L32.0082 37.4743ZM31.7213 37.6936C31.8312 37.6413 31.9289 37.5666 32.0082 37.4743L31.6288 37.1486C31.595 37.1879 31.5534 37.2198 31.5066 37.242L31.7213 37.6936ZM31.3701 37.7777C31.4917 37.7745 31.6114 37.7458 31.7213 37.6936L31.5065 37.242C31.4597 37.2643 31.4087 37.2765 31.3568 37.2779L31.3701 37.7777ZM30.6626 36.8316C30.6626 37.0255 30.6764 37.2534 30.7703 37.4374C30.8206 37.536 30.8957 37.6258 31.0038 37.6889C31.1107 37.7513 31.2331 37.7778 31.3635 37.7778V37.2778C31.3004 37.2778 31.2698 37.2653 31.2559 37.2571C31.2432 37.2497 31.2297 37.2376 31.2156 37.2101C31.1809 37.142 31.1626 37.0218 31.1626 36.8316H30.6626ZM30.6626 30.2239V36.8316H31.1626V30.2239H30.6626ZM30.2608 29.0086C30.5199 29.3614 30.6606 29.7873 30.6626 30.225L31.1626 30.2227C31.1601 29.6793 30.9855 29.1506 30.6637 28.7126L30.2608 29.0086ZM29.2202 28.2613C29.6373 28.3942 30.0016 28.6558 30.2608 29.0086L30.6637 28.7126C30.342 28.2746 29.8898 27.9498 29.3719 27.7849L29.2202 28.2613ZM29.562 36.8258L29.5461 28.0227L29.0461 28.0236L29.062 36.8267L29.562 36.8258ZM29.2841 37.4972C29.4621 37.3193 29.562 37.0779 29.562 36.8262H29.062C29.062 36.9453 29.0148 37.0595 28.9306 37.1437L29.2841 37.4972ZM28.6131 37.7751C28.8648 37.7751 29.1062 37.6752 29.2841 37.4972L28.9306 37.1437C28.8464 37.2278 28.7322 37.2751 28.6131 37.2751V37.7751ZM27.9422 37.4972C28.1201 37.6752 28.3615 37.7751 28.6131 37.7751V37.2751C28.4941 37.2751 28.3799 37.2279 28.2957 37.1437L27.9422 37.4972ZM27.6642 36.8262C27.6642 37.0779 27.7642 37.3193 27.9422 37.4972L28.2957 37.1437C28.2115 37.0595 28.1642 36.9453 28.1642 36.8262H27.6642ZM27.6482 28.0236L27.6642 36.8267L28.1642 36.8258L28.1482 28.0227L27.6482 28.0236ZM26.9406 29.0135C27.1972 28.6594 27.5595 28.3959 27.9754 28.2609L27.821 27.7853C27.3045 27.953 26.8544 28.2803 26.5357 28.7201L26.9406 29.0135ZM26.5477 30.2312C26.5465 29.7939 26.684 29.3676 26.9406 29.0135L26.5357 28.7201C26.2171 29.1599 26.0462 29.6895 26.0477 30.2326L26.5477 30.2312ZM26.561 36.8364L26.5477 30.2314L26.0477 30.2324L26.061 36.8374L26.561 36.8364ZM25.7792 37.7858C26.0494 37.7839 26.2614 37.6682 26.3953 37.4706C26.5196 37.287 26.561 37.0564 26.561 36.8369H26.061C26.061 37.0043 26.0277 37.1217 25.9813 37.1902C25.9444 37.2447 25.8897 37.285 25.7757 37.2858L25.7792 37.7858ZM24.9272 36.8396C24.9272 37.0769 24.9933 37.3111 25.139 37.4911C25.2894 37.6768 25.5119 37.7877 25.7792 37.7858L25.7757 37.2858C25.6589 37.2866 25.5813 37.2428 25.5276 37.1765C25.4692 37.1043 25.4272 36.9891 25.4272 36.8396H24.9272ZM24.6394 30.2455L24.9275 36.8505L25.427 36.8287L25.1389 30.2237L24.6394 30.2455ZM25.5462 27.7077C24.9588 28.4187 24.638 29.3126 24.6392 30.2349L25.1392 30.2343C25.1382 29.4284 25.4185 28.6474 25.9317 28.0261L25.5462 27.7077ZM27.8567 26.3397C26.9507 26.5128 26.1336 26.9966 25.5462 27.7077L25.9317 28.0261C26.4449 27.4048 27.1589 26.982 27.9505 26.8308L27.8567 26.3397ZM26.2914 10.9534L27.6545 26.6069L28.1526 26.5636L26.7895 10.91L26.2914 10.9534ZM28.5539 8.21416C27.1862 8.21721 26.1606 9.51467 26.2915 10.9543L26.7894 10.9091C26.6802 9.7078 27.5325 8.71644 28.555 8.71416L28.5539 8.21416ZM30.8283 10.9441C30.9474 9.49224 29.9218 8.21111 28.5539 8.21416L28.555 8.71416C29.5773 8.71188 30.4297 9.68756 30.33 10.9033L30.8283 10.9441ZM29.5265 26.6006L30.8283 10.9444L30.33 10.903L29.0282 26.5592L29.5265 26.6006ZM31.0747 27.1375C30.5665 26.7283 29.9643 26.4522 29.3226 26.3341L29.2321 26.8258C29.7921 26.9289 30.3176 27.1699 30.7612 27.5269L31.0747 27.1375ZM31.393 27.4243C31.2926 27.3215 31.1857 27.2252 31.073 27.1361L30.7629 27.5283C30.8588 27.6041 30.9497 27.6861 31.0352 27.7736L31.393 27.4243ZM32.2545 28.7027C32.054 28.2224 31.76 27.7868 31.3897 27.4211L31.0384 27.7768C31.3616 28.096 31.6181 28.4762 31.7931 28.8953L32.2545 28.7027Z" fill="#3C3756"/>
</svg>
