<svg width="38" height="38" viewBox="0 0 38 38" fill="none" xmlns="http://www.w3.org/2000/svg">
<circle cx="19" cy="19" r="19" fill="white"/>
<path d="M23.4667 12.9588L22.0885 12.1631C21.8113 12.0065 21.4863 11.9604 21.1834 12.0346C20.8806 12.1089 20.624 12.2976 20.4687 12.5602L19.5456 14.159L23.0097 16.159L23.9328 14.5602C24.0825 14.2944 24.1176 13.9778 24.0305 13.6784C23.9434 13.379 23.7409 13.1206 23.4667 12.9588Z" fill="#3C3756"/>
<path d="M14 26.823C13.9991 26.9124 14.0245 27.0027 14.0733 27.0838C14.1221 27.1649 14.1925 27.2338 14.2767 27.2828C14.3608 27.3318 14.4555 27.359 14.5503 27.3615C14.6452 27.364 14.7364 27.3416 14.8141 27.2969L17.5097 25.6853L22.0097 17.891L18.5456 15.891L14.0456 23.6853L17.5097 25.6853L14.0445 23.6871L14 26.823Z" fill="#3C3756"/>
</svg>
