<svg width="24" height="24" viewBox="0 0 24 24" fill="none" xmlns="http://www.w3.org/2000/svg">
<path fill-rule="evenodd" clip-rule="evenodd" d="M18.9117 2.27093C20.411 2.28288 21.8903 2.29466 23.3281 2.29466C23.8598 2.29466 24.0402 2.46892 23.9927 2.99171V20.8439C23.9874 20.9668 23.9428 21.0844 23.8656 21.1788C23.7884 21.2733 23.683 21.3393 23.5655 21.3667C23.3592 21.4334 23.1454 21.4724 22.9293 21.4829H14.2038V24H12.4853L10.387 23.6128L7.41524 23.0803L4.56688 22.5769L1.83245 22.0928L0 21.7733V2.23657L0.892489 2.09136L3.61743 1.6073L6.46579 1.10385L8.78245 0.687566L11.8967 0.135728C12.3144 0.0419871 12.7412 -0.00346327 13.1689 0.00020557H14.1184H14.2513V2.24623C15.8102 2.24623 17.3714 2.25867 18.9117 2.27093ZM8.24126 16.4002L9.68444 16.4874H10.0357L9.96927 16.3325C9.53642 15.4381 9.10699 14.5612 8.67892 13.6871C8.39338 13.104 8.10844 12.5221 7.82351 11.9372C7.80268 11.9004 7.7917 11.8586 7.7917 11.8162C7.7917 11.7737 7.80268 11.7319 7.82351 11.6951C8.2135 10.8998 8.60056 10.0956 8.98795 9.29062C9.29847 8.6454 9.6092 7.99975 9.9218 7.35793C9.91952 7.31924 9.91952 7.28045 9.9218 7.24176H9.85534L8.12733 7.33858C8.08278 7.35275 8.04534 7.38398 8.02289 7.42571C7.98399 7.50505 7.95159 7.5844 7.91998 7.6618C7.8976 7.71662 7.87561 7.77046 7.85199 7.82264C7.77223 8.01628 7.69133 8.20992 7.61043 8.40357C7.28686 9.17805 6.96329 9.95253 6.71264 10.727V10.6496L5.60178 7.5903C5.60096 7.57432 5.59661 7.55872 5.58906 7.54468C5.58152 7.53065 5.57096 7.51853 5.55819 7.50923C5.54542 7.49993 5.53076 7.4937 5.51529 7.49097C5.49983 7.48824 5.48395 7.4891 5.46886 7.49348L4.43396 7.59996L3.76934 7.64839C3.7877 7.68929 3.80356 7.73133 3.81681 7.77425C4.06377 8.31723 4.30916 8.8602 4.55426 9.40253C4.91223 10.1946 5.26957 10.9853 5.63026 11.7726C5.65359 11.8191 5.66577 11.8705 5.66577 11.9227C5.66577 11.9748 5.65359 12.0263 5.63026 12.0727L3.64591 16.0324C3.64199 16.0677 3.64199 16.1034 3.64591 16.1388L5.32644 16.1873C5.34626 16.184 5.36509 16.1762 5.38154 16.1645C5.39798 16.1527 5.4116 16.1374 5.42138 16.1195C5.71511 15.4157 6.00315 14.706 6.28991 13.9996C6.37393 13.7926 6.45783 13.5859 6.54174 13.3797C6.58794 13.2787 6.62496 13.1778 6.66556 13.0671C6.68337 13.0186 6.70187 12.9681 6.72214 12.915C6.74466 12.9868 6.76552 13.0568 6.78594 13.1254C6.83439 13.2882 6.8804 13.4428 6.94052 13.5927C7.11617 14.0332 7.29657 14.4737 7.47696 14.9142C7.65736 15.3547 7.83775 15.7952 8.0134 16.2357C8.02655 16.2859 8.05654 16.3299 8.09816 16.3599C8.13979 16.39 8.19041 16.4043 8.24126 16.4002ZM23.2996 20.66V20.4857L23.3091 3.16596C23.3091 3.07883 23.3091 3.02075 23.1857 3.02075H14.3842C14.2608 3.02075 14.2608 3.04012 14.2608 3.14661V3.14661V4.71497H16.1597V6.65122H14.2608V7.76456H16.1597V9.70081H14.2608V10.8141H16.1597V12.7504H14.2608V13.8637H16.1597V15.8H14.2608V16.9134H16.1597V18.8496H14.2608V20.66H23.2996ZM17.5458 4.75362H21.3531V6.68019H17.5458V4.75362ZM17.5458 7.80335H21.3531V9.72992H17.5458V7.80335ZM21.3531 10.8432H17.5458V12.7697H21.3531V10.8432ZM17.5458 13.8832H21.3531V15.8098H17.5458V13.8832ZM21.3531 16.923H17.5458V18.8496H21.3531V16.923Z" fill="white"/>
</svg>
