<svg width="38" height="38" viewBox="0 0 38 38" fill="none" xmlns="http://www.w3.org/2000/svg">
<circle cx="19" cy="19" r="19" fill="#F2F2F9"/>
<g clip-path="url(#clip0_5842_49683)">
<path d="M18.6749 12.9333L18.6765 11.9333L18.6748 11.9333L18.6749 12.9333ZM8.86719 19.0084L7.98645 18.5348L7.73131 19.0093L7.98718 19.4834L8.86719 19.0084ZM28.4672 19.0084L29.3472 19.4834L29.6031 19.0093L29.3479 18.5348L28.4672 19.0084ZM18.6748 11.9333C16.4966 11.9336 14.3613 12.5491 12.4846 13.7116L13.5377 15.4118C15.1044 14.4414 16.876 13.9336 18.675 13.9333L18.6748 11.9333ZM12.4846 13.7116C10.6084 14.8737 9.05936 16.5395 7.98645 18.5348L9.74793 19.482C10.6609 17.7841 11.9704 16.3827 13.5377 15.4118L12.4846 13.7116ZM7.98718 19.4834C9.06155 21.474 10.6103 23.1354 12.4847 24.2942L13.5364 22.593C11.9705 21.625 10.6614 20.2273 9.7472 18.5335L7.98718 19.4834ZM12.4847 24.2942C14.3598 25.4533 16.4921 26.0667 18.6672 26.0667V24.0667C16.8707 24.0667 15.1016 23.5606 13.5364 22.593L12.4847 24.2942ZM18.6672 26.0667C20.8423 26.0667 22.9747 25.4533 24.8498 24.2942L23.7982 22.593C22.233 23.5606 20.4637 24.0667 18.6672 24.0667V26.0667ZM24.8498 24.2942C26.7243 23.1354 28.2728 21.474 29.3472 19.4834L27.5872 18.5335C26.673 20.2273 25.364 21.625 23.7982 22.593L24.8498 24.2942ZM29.3479 18.5348C28.2765 16.5422 26.7301 14.878 24.8572 13.716L23.8028 15.4155C25.3675 16.3862 26.6746 17.7863 27.5864 19.482L29.3479 18.5348ZM24.8572 13.716C22.9836 12.5536 20.8518 11.9368 18.6765 11.9334L18.6733 13.9333C20.47 13.9362 22.2388 14.4452 23.8028 15.4155L24.8572 13.716Z" fill="#3C3756"/>
<path d="M20.5969 18.4537C20.2238 18.4494 19.8673 18.2992 19.6035 18.0354C19.3397 17.7716 19.1895 17.4151 19.1851 17.042C19.1897 16.8033 19.2555 16.5698 19.3762 16.3639C19.4968 16.1579 19.6681 15.9863 19.8741 15.8655C19.2048 15.6073 18.4706 15.5699 17.7786 15.7588C17.0866 15.9478 16.4733 16.3532 16.0281 16.9157C15.583 17.4783 15.3295 18.1684 15.3047 18.8853C15.2799 19.6022 15.4851 20.3082 15.8903 20.9002C16.2954 21.4921 16.8793 21.9389 17.5566 22.1752C18.2339 22.4116 18.9691 22.425 19.6546 22.2136C20.34 22.0022 20.9398 21.5772 21.3664 21.0005C21.793 20.4238 22.0239 19.7257 22.0254 19.0084C22.0171 18.589 21.9375 18.1742 21.7901 17.7815C21.667 17.9879 21.4922 18.1584 21.2829 18.2764C21.0736 18.3943 20.8371 18.4554 20.5969 18.4537Z" fill="#3C3756"/>
</g>
<defs>
<clipPath id="clip0_5842_49683">
<rect width="23.2605" height="14" fill="white" transform="translate(7 12)"/>
</clipPath>
</defs>
</svg>
