<svg width="110" height="111" viewBox="0 0 110 111" fill="none" xmlns="http://www.w3.org/2000/svg">
<rect width="110" height="111" rx="10" fill="white"/>
<path d="M25.7531 73.126C25.1184 73.126 24.5211 73.0513 23.9611 72.902C23.4011 72.7527 22.9017 72.5333 22.4631 72.244C22.3044 72.16 22.1877 72.0527 22.1131 71.922C22.0384 71.7913 22.0011 71.656 22.0011 71.516C22.0011 71.32 22.0617 71.1567 22.1831 71.026C22.3137 70.8953 22.4771 70.83 22.6731 70.83C22.8224 70.83 22.9764 70.8767 23.1351 70.97C23.5364 71.222 23.9284 71.3993 24.3111 71.502C24.7031 71.6047 25.1137 71.656 25.5431 71.656C26.2991 71.656 26.8917 71.53 27.3211 71.278C27.7597 71.0167 27.9791 70.6387 27.9791 70.144C27.9791 69.6587 27.8157 69.2947 27.4891 69.052C27.1717 68.8093 26.6631 68.688 25.9631 68.688H24.6471C24.3951 68.688 24.1944 68.618 24.0451 68.478C23.8957 68.338 23.8211 68.17 23.8211 67.974C23.8211 67.7873 23.8957 67.6287 24.0451 67.498C24.1944 67.358 24.3951 67.288 24.6471 67.288H25.7111C26.4017 67.288 26.9197 67.1667 27.2651 66.924C27.6104 66.672 27.7831 66.308 27.7831 65.832C27.7831 65.384 27.6104 65.048 27.2651 64.824C26.9291 64.5907 26.4624 64.474 25.8651 64.474C25.3797 64.474 24.9457 64.5347 24.5631 64.656C24.1897 64.768 23.8024 64.936 23.4011 65.16C23.2611 65.2253 23.1164 65.258 22.9671 65.258C22.7524 65.258 22.5797 65.1927 22.4491 65.062C22.3277 64.9313 22.2671 64.7727 22.2671 64.586C22.2671 64.446 22.3091 64.3107 22.3931 64.18C22.4771 64.0493 22.5984 63.942 22.7571 63.858C23.1677 63.606 23.6624 63.4007 24.2411 63.242C24.8291 63.0833 25.4637 63.004 26.1451 63.004C27.2557 63.004 28.1144 63.242 28.7211 63.718C29.3277 64.1847 29.6311 64.8287 29.6311 65.65C29.6311 66.1913 29.4817 66.658 29.1831 67.05C28.8844 67.442 28.4551 67.7267 27.8951 67.904C29.1737 68.2213 29.8131 68.982 29.8131 70.186C29.8131 70.7647 29.6451 71.278 29.3091 71.726C28.9731 72.174 28.4971 72.5193 27.8811 72.762C27.2651 73.0047 26.5557 73.126 25.7531 73.126ZM34.3165 65.986C35.2685 65.986 35.9731 66.224 36.4305 66.7C36.8971 67.1667 37.1305 67.8807 37.1305 68.842V72.258C37.1305 72.51 37.0558 72.7107 36.9065 72.86C36.7571 73 36.5518 73.07 36.2905 73.07C36.0478 73.07 35.8471 72.9953 35.6885 72.846C35.5391 72.6967 35.4645 72.5007 35.4645 72.258V71.95C35.3058 72.314 35.0538 72.5987 34.7085 72.804C34.3725 73.0093 33.9805 73.112 33.5325 73.112C33.0751 73.112 32.6598 73.0187 32.2865 72.832C31.9131 72.6453 31.6191 72.3887 31.4045 72.062C31.1898 71.7353 31.0825 71.3713 31.0825 70.97C31.0825 70.466 31.2085 70.0693 31.4605 69.78C31.7218 69.4907 32.1418 69.2807 32.7205 69.15C33.2991 69.0193 34.0971 68.954 35.1145 68.954H35.4645V68.632C35.4645 68.1747 35.3665 67.8433 35.1705 67.638C34.9745 67.4233 34.6571 67.316 34.2185 67.316C33.9478 67.316 33.6725 67.358 33.3925 67.442C33.1125 67.5167 32.7811 67.6287 32.3985 67.778C32.1558 67.8993 31.9785 67.96 31.8665 67.96C31.6985 67.96 31.5585 67.8993 31.4465 67.778C31.3438 67.6567 31.2925 67.498 31.2925 67.302C31.2925 67.1433 31.3298 67.008 31.4045 66.896C31.4885 66.7747 31.6238 66.6627 31.8105 66.56C32.1371 66.3827 32.5245 66.2427 32.9725 66.14C33.4298 66.0373 33.8778 65.986 34.3165 65.986ZM33.8825 71.852C34.3491 71.852 34.7271 71.698 35.0165 71.39C35.3151 71.0727 35.4645 70.6667 35.4645 70.172V69.878H35.2125C34.5871 69.878 34.1018 69.906 33.7565 69.962C33.4111 70.018 33.1638 70.116 33.0145 70.256C32.8651 70.396 32.7905 70.5873 32.7905 70.83C32.7905 71.1287 32.8931 71.376 33.0985 71.572C33.3131 71.7587 33.5745 71.852 33.8825 71.852ZM39.735 73.084C39.4737 73.084 39.2637 73.0093 39.105 72.86C38.9464 72.7107 38.867 72.51 38.867 72.258V67.036C38.8577 66.7653 38.9277 66.5507 39.077 66.392C39.2264 66.2333 39.4317 66.154 39.693 66.154H43.151C43.3564 66.154 43.5197 66.2147 43.641 66.336C43.7717 66.4573 43.837 66.616 43.837 66.812C43.837 67.008 43.7717 67.1667 43.641 67.288C43.5197 67.4093 43.3564 67.47 43.151 67.47H40.617V72.258C40.617 72.51 40.5377 72.7107 40.379 72.86C40.2204 73.0093 40.0057 73.084 39.735 73.084ZM48.8176 65.986C49.4056 65.986 49.9283 66.1353 50.3856 66.434C50.8523 66.7327 51.2116 67.1573 51.4636 67.708C51.725 68.2493 51.8556 68.8747 51.8556 69.584C51.8556 70.2933 51.725 70.914 51.4636 71.446C51.2116 71.978 50.857 72.3887 50.3996 72.678C49.9423 72.9673 49.415 73.112 48.8176 73.112C48.3323 73.112 47.8983 73.0093 47.5156 72.804C47.133 72.5987 46.839 72.314 46.6336 71.95V74.806C46.6336 75.0487 46.5543 75.24 46.3956 75.38C46.237 75.52 46.027 75.59 45.7656 75.59C45.5043 75.59 45.2896 75.5153 45.1216 75.366C44.963 75.2167 44.8836 75.0207 44.8836 74.778V66.84C44.8836 66.588 44.9583 66.3873 45.1076 66.238C45.2663 66.0887 45.4763 66.014 45.7376 66.014C45.999 66.014 46.209 66.0887 46.3676 66.238C46.5263 66.3873 46.6056 66.588 46.6056 66.84V67.19C46.811 66.8073 47.105 66.5133 47.4876 66.308C47.8796 66.0933 48.323 65.986 48.8176 65.986ZM48.3556 71.754C48.9063 71.754 49.3356 71.5673 49.6436 71.194C49.9516 70.8113 50.1056 70.2747 50.1056 69.584C50.1056 68.8747 49.9516 68.324 49.6436 67.932C49.3356 67.54 48.9063 67.344 48.3556 67.344C47.7956 67.344 47.3616 67.5353 47.0536 67.918C46.755 68.3007 46.6056 68.8467 46.6056 69.556C46.6056 70.256 46.755 70.7973 47.0536 71.18C47.3616 71.5627 47.7956 71.754 48.3556 71.754ZM57.9565 66.518C58.0311 66.35 58.1291 66.2287 58.2505 66.154C58.3811 66.07 58.5211 66.028 58.6705 66.028C58.8851 66.028 59.0765 66.1027 59.2445 66.252C59.4218 66.392 59.5105 66.5693 59.5105 66.784C59.5105 66.8867 59.4825 66.994 59.4265 67.106L55.6045 75.114C55.4458 75.4313 55.1985 75.59 54.8625 75.59C54.6478 75.59 54.4565 75.52 54.2885 75.38C54.1298 75.2493 54.0505 75.0813 54.0505 74.876C54.0505 74.7733 54.0785 74.6567 54.1345 74.526L55.0865 72.524L52.4825 67.106C52.4358 67.0127 52.4125 66.9053 52.4125 66.784C52.4125 66.5693 52.5011 66.3873 52.6785 66.238C52.8651 66.0887 53.0751 66.014 53.3085 66.014C53.4671 66.014 53.6118 66.056 53.7425 66.14C53.8731 66.2147 53.9758 66.336 54.0505 66.504L56.0105 70.83L57.9565 66.518ZM62.8499 73.112C61.9166 73.112 61.1092 72.93 60.4279 72.566C60.2692 72.482 60.1479 72.3793 60.0639 72.258C59.9799 72.1367 59.9379 72.0107 59.9379 71.88C59.9379 71.7213 59.9986 71.586 60.1199 71.474C60.2412 71.3527 60.3952 71.292 60.5819 71.292C60.7032 71.292 60.8432 71.32 61.0019 71.376C61.2912 71.516 61.5666 71.6187 61.8279 71.684C62.0892 71.74 62.3786 71.768 62.6959 71.768C63.1159 71.768 63.4706 71.698 63.7599 71.558C64.0586 71.418 64.2079 71.1893 64.2079 70.872C64.2079 70.6293 64.1239 70.4473 63.9559 70.326C63.7972 70.1953 63.5126 70.13 63.1019 70.13H62.1919C61.9959 70.13 61.8372 70.074 61.7159 69.962C61.6039 69.8407 61.5479 69.6867 61.5479 69.5C61.5479 69.3133 61.6039 69.164 61.7159 69.052C61.8372 68.9307 61.9959 68.87 62.1919 68.87H63.0319C63.3959 68.87 63.6619 68.8047 63.8299 68.674C63.9979 68.534 64.0819 68.3473 64.0819 68.114C64.0819 67.8527 63.9652 67.6567 63.7319 67.526C63.4986 67.3953 63.1859 67.33 62.7939 67.33C62.4766 67.33 62.1919 67.3627 61.9399 67.428C61.6972 67.484 61.4406 67.5773 61.1699 67.708C61.0299 67.764 60.9039 67.792 60.7919 67.792C60.6052 67.792 60.4466 67.7313 60.3159 67.61C60.1946 67.4887 60.1339 67.344 60.1339 67.176C60.1339 67.0453 60.1759 66.924 60.2599 66.812C60.3439 66.7 60.4699 66.6067 60.6379 66.532C61.3659 66.168 62.2012 65.986 63.1439 65.986C64.0306 65.986 64.7119 66.154 65.1879 66.49C65.6732 66.826 65.9159 67.2787 65.9159 67.848C65.9159 68.2027 65.8039 68.5247 65.5799 68.814C65.3652 69.1033 65.0666 69.3087 64.6839 69.43C65.5986 69.6633 66.0559 70.186 66.0559 70.998C66.0559 71.418 65.9159 71.7913 65.6359 72.118C65.3559 72.4353 64.9686 72.6827 64.4739 72.86C63.9886 73.028 63.4472 73.112 62.8499 73.112ZM72.0469 66.686C72.2336 66.4247 72.4016 66.2473 72.5509 66.154C72.7096 66.0607 72.9242 66.014 73.1949 66.014C73.4656 66.014 73.6802 66.0887 73.8389 66.238C74.0069 66.3873 74.0909 66.588 74.0909 66.84V72.23C74.0909 72.482 74.0116 72.6873 73.8529 72.846C73.7036 73.0047 73.5076 73.084 73.2649 73.084C73.0129 73.084 72.8076 73.0047 72.6489 72.846C72.4996 72.6873 72.4249 72.482 72.4249 72.23V68.282L69.4569 72.44C69.2796 72.692 69.1069 72.8647 68.9389 72.958C68.7802 73.042 68.5796 73.084 68.3369 73.084C68.0662 73.084 67.8516 73.0093 67.6929 72.86C67.5342 72.7107 67.4549 72.5053 67.4549 72.244V66.854C67.4549 66.602 67.5296 66.4013 67.6789 66.252C67.8376 66.0933 68.0429 66.014 68.2949 66.014C68.5376 66.014 68.7336 66.0933 68.8829 66.252C69.0416 66.4013 69.1209 66.602 69.1209 66.854V70.774L72.0469 66.686ZM78.3001 73.084C78.0294 73.084 77.8148 73.0093 77.6561 72.86C77.4974 72.7107 77.4181 72.51 77.4181 72.258V67.47H75.8081C75.6028 67.47 75.4348 67.4093 75.3041 67.288C75.1828 67.1667 75.1221 67.008 75.1221 66.812C75.1221 66.616 75.1828 66.4573 75.3041 66.336C75.4348 66.2147 75.6028 66.154 75.8081 66.154H80.7781C80.9834 66.154 81.1468 66.2147 81.2681 66.336C81.3988 66.4573 81.4641 66.616 81.4641 66.812C81.4641 67.008 81.3988 67.1667 81.2681 67.288C81.1468 67.4093 80.9834 67.47 80.7781 67.47H79.1681V72.258C79.1681 72.51 79.0888 72.7107 78.9301 72.86C78.7714 73.0093 78.5614 73.084 78.3001 73.084ZM83.376 73C83.1053 73.0093 82.8906 72.9393 82.732 72.79C82.5733 72.6407 82.494 72.4353 82.494 72.174V66.84C82.494 66.588 82.5733 66.3873 82.732 66.238C82.8906 66.0887 83.1006 66.014 83.362 66.014C83.6326 66.014 83.8473 66.0887 84.006 66.238C84.1646 66.3873 84.244 66.588 84.244 66.84V68.422H85.546C87.3286 68.422 88.22 69.1593 88.22 70.634C88.22 71.1473 88.0893 71.5813 87.828 71.936C87.576 72.2907 87.24 72.5567 86.82 72.734C86.4 72.9113 85.952 73 85.476 73H83.376ZM85.084 71.796C85.4666 71.796 85.7933 71.7073 86.064 71.53C86.3346 71.3433 86.47 71.054 86.47 70.662C86.47 70.27 86.344 69.9993 86.092 69.85C85.84 69.7007 85.504 69.626 85.084 69.626H84.23V71.796H85.084ZM18.0996 90.674C17.8476 90.674 17.6422 90.5947 17.4836 90.436C17.3249 90.2867 17.2456 90.086 17.2456 89.834V88.084C16.6109 88.0747 16.0229 87.9347 15.4816 87.664C14.9402 87.384 14.5016 86.9827 14.1656 86.46C13.8389 85.928 13.6756 85.298 13.6756 84.57C13.6756 83.842 13.8389 83.2167 14.1656 82.694C14.5016 82.162 14.9402 81.7607 15.4816 81.49C16.0229 81.21 16.6109 81.0653 17.2456 81.056V78.816C17.2456 78.564 17.3249 78.3633 17.4836 78.214C17.6422 78.0553 17.8476 77.976 18.0996 77.976C18.3516 77.976 18.5522 78.0553 18.7016 78.214C18.8602 78.3633 18.9396 78.564 18.9396 78.816V81.056C19.5742 81.0653 20.1622 81.21 20.7036 81.49C21.2542 81.7607 21.6929 82.162 22.0196 82.694C22.3462 83.2167 22.5096 83.842 22.5096 84.57C22.5096 85.298 22.3462 85.928 22.0196 86.46C21.6929 86.9827 21.2542 87.384 20.7036 87.664C20.1622 87.9347 19.5742 88.0747 18.9396 88.084V89.834C18.9396 90.086 18.8602 90.2867 18.7016 90.436C18.5522 90.5947 18.3516 90.674 18.0996 90.674ZM17.2596 82.344C16.5876 82.3627 16.0976 82.582 15.7896 83.002C15.4816 83.4127 15.3276 83.9353 15.3276 84.57C15.3276 85.2047 15.4816 85.732 15.7896 86.152C16.0976 86.5627 16.5876 86.7773 17.2596 86.796V82.344ZM18.9256 86.796C19.5976 86.7773 20.0876 86.5627 20.3956 86.152C20.7036 85.732 20.8576 85.2047 20.8576 84.57C20.8576 83.9353 20.7036 83.4127 20.3956 83.002C20.0876 82.582 19.5976 82.3627 18.9256 82.344V86.796ZM27.074 88.112C26.374 88.112 25.758 87.9673 25.226 87.678C24.7033 87.3887 24.2973 86.9733 24.008 86.432C23.7187 85.8907 23.574 85.2607 23.574 84.542C23.574 83.8233 23.7187 83.198 24.008 82.666C24.2973 82.1247 24.7033 81.7093 25.226 81.42C25.758 81.1307 26.374 80.986 27.074 80.986C27.774 80.986 28.3853 81.1307 28.908 81.42C29.44 81.7093 29.846 82.1247 30.126 82.666C30.4153 83.198 30.56 83.8233 30.56 84.542C30.56 85.2607 30.4153 85.8907 30.126 86.432C29.846 86.9733 29.44 87.3887 28.908 87.678C28.3853 87.9673 27.774 88.112 27.074 88.112ZM27.06 86.754C27.6293 86.754 28.0633 86.5673 28.362 86.194C28.6607 85.8207 28.81 85.27 28.81 84.542C28.81 83.8233 28.6607 83.2773 28.362 82.904C28.0633 82.5213 27.634 82.33 27.074 82.33C26.514 82.33 26.08 82.5213 25.772 82.904C25.4733 83.2773 25.324 83.8233 25.324 84.542C25.324 85.27 25.4733 85.8207 25.772 86.194C26.0707 86.5673 26.5 86.754 27.06 86.754ZM34.3997 88.084C34.129 88.084 33.9144 88.0093 33.7557 87.86C33.597 87.7107 33.5177 87.51 33.5177 87.258V82.47H31.9077C31.7024 82.47 31.5344 82.4093 31.4037 82.288C31.2824 82.1667 31.2217 82.008 31.2217 81.812C31.2217 81.616 31.2824 81.4573 31.4037 81.336C31.5344 81.2147 31.7024 81.154 31.9077 81.154H36.8777C37.083 81.154 37.2464 81.2147 37.3677 81.336C37.4984 81.4573 37.5637 81.616 37.5637 81.812C37.5637 82.008 37.4984 82.1667 37.3677 82.288C37.2464 82.4093 37.083 82.47 36.8777 82.47H35.2677V87.258C35.2677 87.51 35.1884 87.7107 35.0297 87.86C34.871 88.0093 34.661 88.084 34.3997 88.084ZM41.6619 88.112C40.9619 88.112 40.3459 87.9673 39.8139 87.678C39.2912 87.3887 38.8852 86.9733 38.5959 86.432C38.3065 85.8907 38.1619 85.2607 38.1619 84.542C38.1619 83.8233 38.3065 83.198 38.5959 82.666C38.8852 82.1247 39.2912 81.7093 39.8139 81.42C40.3459 81.1307 40.9619 80.986 41.6619 80.986C42.3619 80.986 42.9732 81.1307 43.4959 81.42C44.0279 81.7093 44.4339 82.1247 44.7139 82.666C45.0032 83.198 45.1479 83.8233 45.1479 84.542C45.1479 85.2607 45.0032 85.8907 44.7139 86.432C44.4339 86.9733 44.0279 87.3887 43.4959 87.678C42.9732 87.9673 42.3619 88.112 41.6619 88.112ZM41.6479 86.754C42.2172 86.754 42.6512 86.5673 42.9499 86.194C43.2485 85.8207 43.3979 85.27 43.3979 84.542C43.3979 83.8233 43.2485 83.2773 42.9499 82.904C42.6512 82.5213 42.2219 82.33 41.6619 82.33C41.1019 82.33 40.6679 82.5213 40.3599 82.904C40.0612 83.2773 39.9119 83.8233 39.9119 84.542C39.9119 85.27 40.0612 85.8207 40.3599 86.194C40.6585 86.5673 41.0879 86.754 41.6479 86.754ZM47.4186 88.084C47.1573 88.084 46.9473 88.0093 46.7886 87.86C46.63 87.7107 46.5506 87.51 46.5506 87.258V82.036C46.5413 81.7653 46.6113 81.5507 46.7606 81.392C46.91 81.2333 47.1153 81.154 47.3766 81.154H50.8346C51.04 81.154 51.2033 81.2147 51.3246 81.336C51.4553 81.4573 51.5206 81.616 51.5206 81.812C51.5206 82.008 51.4553 82.1667 51.3246 82.288C51.2033 82.4093 51.04 82.47 50.8346 82.47H48.3006V87.258C48.3006 87.51 48.2213 87.7107 48.0626 87.86C47.904 88.0093 47.6893 88.084 47.4186 88.084ZM56.5012 80.986C57.0892 80.986 57.6119 81.1353 58.0692 81.434C58.5359 81.7327 58.8952 82.1573 59.1472 82.708C59.4086 83.2493 59.5392 83.8747 59.5392 84.584C59.5392 85.2933 59.4086 85.914 59.1472 86.446C58.8952 86.978 58.5406 87.3887 58.0832 87.678C57.6259 87.9673 57.0986 88.112 56.5012 88.112C56.0159 88.112 55.5819 88.0093 55.1992 87.804C54.8166 87.5987 54.5226 87.314 54.3172 86.95V89.806C54.3172 90.0487 54.2379 90.24 54.0792 90.38C53.9206 90.52 53.7106 90.59 53.4492 90.59C53.1879 90.59 52.9732 90.5153 52.8052 90.366C52.6466 90.2167 52.5672 90.0207 52.5672 89.778V81.84C52.5672 81.588 52.6419 81.3873 52.7912 81.238C52.9499 81.0887 53.1599 81.014 53.4212 81.014C53.6826 81.014 53.8926 81.0887 54.0512 81.238C54.2099 81.3873 54.2892 81.588 54.2892 81.84V82.19C54.4946 81.8073 54.7886 81.5133 55.1712 81.308C55.5632 81.0933 56.0066 80.986 56.5012 80.986ZM56.0392 86.754C56.5899 86.754 57.0192 86.5673 57.3272 86.194C57.6352 85.8113 57.7892 85.2747 57.7892 84.584C57.7892 83.8747 57.6352 83.324 57.3272 82.932C57.0192 82.54 56.5899 82.344 56.0392 82.344C55.4792 82.344 55.0452 82.5353 54.7372 82.918C54.4386 83.3007 54.2892 83.8467 54.2892 84.556C54.2892 85.256 54.4386 85.7973 54.7372 86.18C55.0452 86.5627 55.4792 86.754 56.0392 86.754ZM63.9434 80.986C64.8954 80.986 65.6001 81.224 66.0574 81.7C66.5241 82.1667 66.7574 82.8807 66.7574 83.842V87.258C66.7574 87.51 66.6828 87.7107 66.5334 87.86C66.3841 88 66.1788 88.07 65.9174 88.07C65.6748 88.07 65.4741 87.9953 65.3154 87.846C65.1661 87.6967 65.0914 87.5007 65.0914 87.258V86.95C64.9328 87.314 64.6808 87.5987 64.3354 87.804C63.9994 88.0093 63.6074 88.112 63.1594 88.112C62.7021 88.112 62.2868 88.0187 61.9134 87.832C61.5401 87.6453 61.2461 87.3887 61.0314 87.062C60.8168 86.7353 60.7094 86.3713 60.7094 85.97C60.7094 85.466 60.8354 85.0693 61.0874 84.78C61.3488 84.4907 61.7688 84.2807 62.3474 84.15C62.9261 84.0193 63.7241 83.954 64.7414 83.954H65.0914V83.632C65.0914 83.1747 64.9934 82.8433 64.7974 82.638C64.6014 82.4233 64.2841 82.316 63.8454 82.316C63.5748 82.316 63.2994 82.358 63.0194 82.442C62.7394 82.5167 62.4081 82.6287 62.0254 82.778C61.7828 82.8993 61.6054 82.96 61.4934 82.96C61.3254 82.96 61.1854 82.8993 61.0734 82.778C60.9708 82.6567 60.9194 82.498 60.9194 82.302C60.9194 82.1433 60.9568 82.008 61.0314 81.896C61.1154 81.7747 61.2508 81.6627 61.4374 81.56C61.7641 81.3827 62.1514 81.2427 62.5994 81.14C63.0568 81.0373 63.5048 80.986 63.9434 80.986ZM63.5094 86.852C63.9761 86.852 64.3541 86.698 64.6434 86.39C64.9421 86.0727 65.0914 85.6667 65.0914 85.172V84.878H64.8394C64.2141 84.878 63.7288 84.906 63.3834 84.962C63.0381 85.018 62.7908 85.116 62.6414 85.256C62.4921 85.396 62.4174 85.5873 62.4174 85.83C62.4174 86.1287 62.5201 86.376 62.7254 86.572C62.9401 86.7587 63.2014 86.852 63.5094 86.852ZM72.582 90.674C72.33 90.674 72.1246 90.5947 71.966 90.436C71.8073 90.2867 71.728 90.086 71.728 89.834V88.084C71.0933 88.0747 70.5053 87.9347 69.964 87.664C69.4226 87.384 68.984 86.9827 68.648 86.46C68.3213 85.928 68.158 85.298 68.158 84.57C68.158 83.842 68.3213 83.2167 68.648 82.694C68.984 82.162 69.4226 81.7607 69.964 81.49C70.5053 81.21 71.0933 81.0653 71.728 81.056V78.816C71.728 78.564 71.8073 78.3633 71.966 78.214C72.1246 78.0553 72.33 77.976 72.582 77.976C72.834 77.976 73.0346 78.0553 73.184 78.214C73.3426 78.3633 73.422 78.564 73.422 78.816V81.056C74.0566 81.0653 74.6446 81.21 75.186 81.49C75.7366 81.7607 76.1753 82.162 76.502 82.694C76.8286 83.2167 76.992 83.842 76.992 84.57C76.992 85.298 76.8286 85.928 76.502 86.46C76.1753 86.9827 75.7366 87.384 75.186 87.664C74.6446 87.9347 74.0566 88.0747 73.422 88.084V89.834C73.422 90.086 73.3426 90.2867 73.184 90.436C73.0346 90.5947 72.834 90.674 72.582 90.674ZM71.742 82.344C71.07 82.3627 70.58 82.582 70.272 83.002C69.964 83.4127 69.81 83.9353 69.81 84.57C69.81 85.2047 69.964 85.732 70.272 86.152C70.58 86.5627 71.07 86.7773 71.742 86.796V82.344ZM73.408 86.796C74.08 86.7773 74.57 86.5627 74.878 86.152C75.186 85.732 75.34 85.2047 75.34 84.57C75.34 83.9353 75.186 83.4127 74.878 83.002C74.57 82.582 74.08 82.3627 73.408 82.344V86.796ZM82.9844 81.686C83.1711 81.4247 83.3391 81.2473 83.4884 81.154C83.6471 81.0607 83.8617 81.014 84.1324 81.014C84.4031 81.014 84.6177 81.0887 84.7764 81.238C84.9444 81.3873 85.0284 81.588 85.0284 81.84V87.23C85.0284 87.482 84.9491 87.6873 84.7904 87.846C84.6411 88.0047 84.4451 88.084 84.2024 88.084C83.9504 88.084 83.7451 88.0047 83.5864 87.846C83.4371 87.6873 83.3624 87.482 83.3624 87.23V83.282L80.3944 87.44C80.2171 87.692 80.0444 87.8647 79.8764 87.958C79.7177 88.042 79.5171 88.084 79.2744 88.084C79.0037 88.084 78.7891 88.0093 78.6304 87.86C78.4717 87.7107 78.3924 87.5053 78.3924 87.244V81.854C78.3924 81.602 78.4671 81.4013 78.6164 81.252C78.7751 81.0933 78.9804 81.014 79.2324 81.014C79.4751 81.014 79.6711 81.0933 79.8204 81.252C79.9791 81.4013 80.0584 81.602 80.0584 81.854V85.774L82.9844 81.686ZM92.9336 88.112C91.9909 88.112 91.2303 87.8507 90.6516 87.328C90.0823 86.8053 89.7416 86.082 89.6296 85.158H88.4676V87.258C88.4676 87.51 88.3883 87.7107 88.2296 87.86C88.0803 88.0093 87.8749 88.084 87.6136 88.084C87.3523 88.084 87.1423 88.0093 86.9836 87.86C86.8343 87.7107 86.7596 87.51 86.7596 87.258V81.84C86.7596 81.588 86.8343 81.3873 86.9836 81.238C87.1423 81.0887 87.3523 81.014 87.6136 81.014C87.8749 81.014 88.0803 81.0887 88.2296 81.238C88.3883 81.3873 88.4676 81.588 88.4676 81.84V83.842H89.6296C89.7603 82.9367 90.1103 82.2367 90.6796 81.742C91.2583 81.238 92.0096 80.986 92.9336 80.986C93.9883 80.986 94.8143 81.308 95.4116 81.952C96.0183 82.5867 96.3216 83.45 96.3216 84.542C96.3216 85.6433 96.0183 86.516 95.4116 87.16C94.8143 87.7947 93.9883 88.112 92.9336 88.112ZM92.9336 86.754C93.4936 86.754 93.9043 86.572 94.1656 86.208C94.4363 85.8347 94.5716 85.2793 94.5716 84.542C94.5716 83.0673 94.0256 82.33 92.9336 82.33C91.8416 82.33 91.2956 83.0673 91.2956 84.542C91.2956 85.2793 91.4263 85.8347 91.6876 86.208C91.9583 86.572 92.3736 86.754 92.9336 86.754Z" fill="#9795A5"/>
<path d="M61.9278 21.8019V21H48.0424V21.8019C48.0424 22.7112 47.685 23.5832 47.0489 24.2262C46.4128 24.8691 45.55 25.2303 44.6504 25.2303H35V50.0909H75V25.2303H65.3397C64.8926 25.233 64.4494 25.1462 64.0356 24.9751C63.6217 24.804 63.2454 24.5519 62.9284 24.2333C62.6113 23.9147 62.3596 23.5358 62.1879 23.1186C62.0162 22.7013 61.9278 22.2539 61.9278 21.8019V21.8019Z" stroke="#9795A5" stroke-width="2.5" stroke-linecap="round" stroke-linejoin="round"/>
<path d="M54.9758 43.6653C58.8759 43.6653 62.0375 40.4698 62.0375 36.5279C62.0375 32.586 58.8759 29.3905 54.9758 29.3905C51.0757 29.3905 47.9141 32.586 47.9141 36.5279C47.9141 40.4698 51.0757 43.6653 54.9758 43.6653Z" fill="#9795A5" stroke="#9795A5" stroke-width="2.5" stroke-linecap="round" stroke-linejoin="round"/>
<path d="M58.834 36.6819H51.1886" stroke="white" stroke-width="2" stroke-linecap="round" stroke-linejoin="round"/>
<path d="M55.0117 40.5455L55.0117 32.8183" stroke="white" stroke-width="2" stroke-linecap="round" stroke-linejoin="round"/>
</svg>
