<svg width="96" height="150" viewBox="0 0 96 150" fill="none" xmlns="http://www.w3.org/2000/svg">
<g opacity="0.6">
<path d="M86.4094 2.00457L84.8663 5.69818C84.7917 5.87586 84.6675 6.02999 84.5077 6.14338C84.3478 6.25676 84.1586 6.32496 83.961 6.34035L79.846 6.63901C79.6854 6.65107 79.5322 6.70903 79.4057 6.80551C79.2793 6.90199 79.1853 7.03265 79.1357 7.18092C79.0861 7.32919 79.0831 7.48837 79.1271 7.63827C79.1712 7.78818 79.2602 7.92203 79.383 8.02286L82.531 10.6114C82.6821 10.7349 82.7945 10.8969 82.8554 11.079C82.9163 11.2611 82.9233 11.4561 82.8757 11.6418L81.8983 15.5246C81.8621 15.6761 81.8728 15.8345 81.9291 15.9802C81.9854 16.1258 82.0848 16.2522 82.2148 16.3435C82.3448 16.4349 82.4998 16.4871 82.6603 16.4937C82.8208 16.5004 82.9798 16.4611 83.1174 16.3808L86.5946 14.2851C86.7615 14.1801 86.9563 14.1242 87.1553 14.1242C87.3543 14.1242 87.5491 14.1801 87.716 14.2851L91.224 16.3808C91.3613 16.4637 91.521 16.505 91.6826 16.4995C91.8443 16.494 92.0006 16.442 92.1315 16.35C92.2624 16.2581 92.362 16.1304 92.4175 15.9833C92.473 15.8363 92.4819 15.6766 92.4431 15.5246L91.4658 11.6418C91.4205 11.4555 91.4292 11.2608 91.4909 11.079C91.5526 10.8972 91.665 10.7354 91.8156 10.6114L94.9635 8.02286C95.0865 7.92172 95.1756 7.78744 95.2194 7.63712C95.2633 7.4868 95.2599 7.32727 95.2097 7.17882C95.1595 7.03038 95.0647 6.89976 94.9375 6.80363C94.8103 6.70749 94.6564 6.65019 94.4954 6.63901L90.3804 6.34035C90.1821 6.32529 89.9921 6.25729 89.8313 6.14392C89.6706 6.03056 89.5455 5.87624 89.47 5.69818L87.9269 2.00457C87.8679 1.85608 87.7639 1.72838 87.6284 1.6383C87.493 1.54822 87.3325 1.5 87.1681 1.5C87.0038 1.5 86.8433 1.54822 86.7079 1.6383C86.5724 1.72838 86.4684 1.85608 86.4094 2.00457Z" fill="#9795A5"/>
<path d="M66.9094 2.00457L65.3663 5.69818C65.2917 5.87586 65.1675 6.02999 65.0077 6.14338C64.8478 6.25676 64.6586 6.32496 64.461 6.34035L60.346 6.63901C60.1854 6.65107 60.0322 6.70903 59.9057 6.80551C59.7793 6.90199 59.6853 7.03265 59.6357 7.18092C59.5861 7.32919 59.5831 7.48837 59.6271 7.63827C59.6712 7.78818 59.7602 7.92203 59.883 8.02286L63.031 10.6114C63.1821 10.7349 63.2945 10.8969 63.3554 11.079C63.4163 11.2611 63.4233 11.4561 63.3757 11.6418L62.3983 15.5246C62.3621 15.6761 62.3728 15.8345 62.4291 15.9802C62.4854 16.1258 62.5848 16.2522 62.7148 16.3435C62.8448 16.4349 62.9998 16.4871 63.1603 16.4937C63.3208 16.5004 63.4798 16.4611 63.6174 16.3808L67.0946 14.2851C67.2615 14.1801 67.4563 14.1242 67.6553 14.1242C67.8543 14.1242 68.0491 14.1801 68.216 14.2851L71.724 16.3808C71.8613 16.4637 72.021 16.505 72.1826 16.4995C72.3443 16.494 72.5006 16.442 72.6315 16.35C72.7624 16.2581 72.862 16.1304 72.9175 15.9833C72.973 15.8363 72.9819 15.6766 72.9431 15.5246L71.9658 11.6418C71.9205 11.4555 71.9292 11.2608 71.9909 11.079C72.0526 10.8972 72.165 10.7354 72.3156 10.6114L75.4635 8.02286C75.5865 7.92172 75.6756 7.78744 75.7194 7.63712C75.7633 7.4868 75.7599 7.32727 75.7097 7.17882C75.6595 7.03038 75.5647 6.89976 75.4375 6.80363C75.3103 6.70749 75.1564 6.65019 74.9954 6.63901L70.8804 6.34035C70.6821 6.32529 70.4921 6.25729 70.3313 6.14392C70.1706 6.03056 70.0455 5.87624 69.97 5.69818L68.4269 2.00457C68.3679 1.85608 68.2639 1.72838 68.1284 1.6383C67.993 1.54822 67.8325 1.5 67.6681 1.5C67.5038 1.5 67.3433 1.54822 67.2079 1.6383C67.0724 1.72838 66.9684 1.85608 66.9094 2.00457Z" fill="#9795A5"/>
<path d="M47.4094 2.00457L45.8663 5.69818C45.7917 5.87586 45.6675 6.02999 45.5077 6.14338C45.3478 6.25676 45.1586 6.32496 44.961 6.34035L40.846 6.63901C40.6854 6.65107 40.5322 6.70903 40.4057 6.80551C40.2793 6.90199 40.1853 7.03265 40.1357 7.18092C40.0861 7.32919 40.0831 7.48837 40.1271 7.63827C40.1712 7.78818 40.2602 7.92203 40.383 8.02286L43.531 10.6114C43.6821 10.7349 43.7945 10.8969 43.8554 11.079C43.9163 11.2611 43.9233 11.4561 43.8757 11.6418L42.8983 15.5246C42.8621 15.6761 42.8728 15.8345 42.9291 15.9802C42.9854 16.1258 43.0848 16.2522 43.2148 16.3435C43.3448 16.4349 43.4998 16.4871 43.6603 16.4937C43.8208 16.5004 43.9798 16.4611 44.1174 16.3808L47.5946 14.2851C47.7615 14.1801 47.9563 14.1242 48.1553 14.1242C48.3543 14.1242 48.5491 14.1801 48.716 14.2851L52.224 16.3808C52.3613 16.4637 52.521 16.505 52.6826 16.4995C52.8443 16.494 53.0006 16.442 53.1315 16.35C53.2624 16.2581 53.362 16.1304 53.4175 15.9833C53.473 15.8363 53.4819 15.6766 53.4431 15.5246L52.4658 11.6418C52.4205 11.4555 52.4292 11.2608 52.4909 11.079C52.5526 10.8972 52.665 10.7354 52.8156 10.6114L55.9635 8.02286C56.0865 7.92172 56.1756 7.78744 56.2194 7.63712C56.2633 7.4868 56.2599 7.32727 56.2097 7.17882C56.1595 7.03038 56.0647 6.89976 55.9375 6.80363C55.8103 6.70749 55.6564 6.65019 55.4954 6.63901L51.3804 6.34035C51.1821 6.32529 50.9921 6.25729 50.8313 6.14392C50.6706 6.03056 50.5455 5.87624 50.47 5.69818L48.9269 2.00457C48.8679 1.85608 48.7639 1.72838 48.6284 1.6383C48.493 1.54822 48.3325 1.5 48.1681 1.5C48.0038 1.5 47.8433 1.54822 47.7079 1.6383C47.5724 1.72838 47.4684 1.85608 47.4094 2.00457Z" fill="#9795A5"/>
<path d="M27.9094 2.00457L26.3663 5.69818C26.2917 5.87586 26.1675 6.02999 26.0077 6.14338C25.8478 6.25676 25.6586 6.32496 25.461 6.34035L21.346 6.63901C21.1854 6.65107 21.0322 6.70903 20.9057 6.80551C20.7793 6.90199 20.6853 7.03265 20.6357 7.18092C20.5861 7.32919 20.5831 7.48837 20.6271 7.63827C20.6712 7.78818 20.7602 7.92203 20.883 8.02286L24.031 10.6114C24.1821 10.7349 24.2945 10.8969 24.3554 11.079C24.4163 11.2611 24.4233 11.4561 24.3757 11.6418L23.3983 15.5246C23.3621 15.6761 23.3728 15.8345 23.4291 15.9802C23.4854 16.1258 23.5848 16.2522 23.7148 16.3435C23.8448 16.4349 23.9998 16.4871 24.1603 16.4937C24.3208 16.5004 24.4798 16.4611 24.6174 16.3808L28.0946 14.2851C28.2615 14.1801 28.4563 14.1242 28.6553 14.1242C28.8543 14.1242 29.0491 14.1801 29.216 14.2851L32.724 16.3808C32.8613 16.4637 33.021 16.505 33.1826 16.4995C33.3443 16.494 33.5006 16.442 33.6315 16.35C33.7624 16.2581 33.862 16.1304 33.9175 15.9833C33.973 15.8363 33.9819 15.6766 33.9431 15.5246L32.9658 11.6418C32.9205 11.4555 32.9292 11.2608 32.9909 11.079C33.0526 10.8972 33.165 10.7354 33.3156 10.6114L36.4635 8.02286C36.5865 7.92172 36.6756 7.78744 36.7194 7.63712C36.7633 7.4868 36.7599 7.32727 36.7097 7.17882C36.6595 7.03038 36.5647 6.89976 36.4375 6.80363C36.3103 6.70749 36.1564 6.65019 35.9954 6.63901L31.8804 6.34035C31.6821 6.32529 31.4921 6.25729 31.3313 6.14392C31.1706 6.03056 31.0455 5.87624 30.97 5.69818L29.4269 2.00457C29.3679 1.85608 29.2639 1.72838 29.1284 1.6383C28.993 1.54822 28.8325 1.5 28.6681 1.5C28.5038 1.5 28.3433 1.54822 28.2079 1.6383C28.0724 1.72838 27.9684 1.85608 27.9094 2.00457Z" fill="#9795A5"/>
<path d="M8.40944 2.00457L6.86631 5.69818C6.79168 5.87586 6.66751 6.02999 6.50766 6.14338C6.34781 6.25676 6.15856 6.32496 5.961 6.34035L1.84599 6.63901C1.68543 6.65107 1.5322 6.70903 1.40573 6.80551C1.27927 6.90199 1.18527 7.03265 1.13567 7.18092C1.08607 7.32919 1.08309 7.48837 1.12713 7.63827C1.17118 7.78818 1.26024 7.92203 1.38303 8.02286L4.53102 10.6114C4.68211 10.7349 4.79449 10.8969 4.85539 11.079C4.9163 11.2611 4.92333 11.4561 4.87568 11.6418L3.89835 15.5246C3.86214 15.6761 3.87284 15.8345 3.92911 15.9802C3.98539 16.1258 4.08477 16.2522 4.21481 16.3435C4.34484 16.4349 4.49978 16.4871 4.66031 16.4937C4.82083 16.5004 4.97982 16.4611 5.11742 16.3808L8.59461 14.2851C8.76149 14.1801 8.95626 14.1242 9.1553 14.1242C9.35433 14.1242 9.54907 14.1801 9.71595 14.2851L13.224 16.3808C13.3613 16.4637 13.521 16.505 13.6826 16.4995C13.8443 16.494 14.0006 16.442 14.1315 16.35C14.2624 16.2581 14.362 16.1304 14.4175 15.9833C14.473 15.8363 14.4819 15.6766 14.4431 15.5246L13.4658 11.6418C13.4205 11.4555 13.4292 11.2608 13.4909 11.079C13.5526 10.8972 13.665 10.7354 13.8156 10.6114L16.9635 8.02286C17.0865 7.92172 17.1756 7.78744 17.2194 7.63712C17.2633 7.4868 17.2599 7.32727 17.2097 7.17882C17.1595 7.03038 17.0647 6.89976 16.9375 6.80363C16.8103 6.70749 16.6564 6.65019 16.4954 6.63901L12.3804 6.34035C12.1821 6.32529 11.9921 6.25729 11.8313 6.14392C11.6706 6.03056 11.5455 5.87624 11.47 5.69818L9.92686 2.00457C9.86795 1.85608 9.76387 1.72838 9.62842 1.6383C9.49297 1.54822 9.33249 1.5 9.16814 1.5C9.00379 1.5 8.84331 1.54822 8.70786 1.6383C8.5724 1.72838 8.46836 1.85608 8.40944 2.00457Z" fill="#9795A5"/>
<path d="M86.4094 35.0046L84.8663 38.6982C84.7917 38.8759 84.6675 39.03 84.5077 39.1434C84.3478 39.2568 84.1586 39.325 83.961 39.3403L79.846 39.639C79.6854 39.6511 79.5322 39.709 79.4057 39.8055C79.2793 39.902 79.1853 40.0327 79.1357 40.1809C79.0861 40.3292 79.0831 40.4884 79.1271 40.6383C79.1712 40.7882 79.2602 40.922 79.383 41.0229L82.531 43.6114C82.6821 43.7349 82.7945 43.8969 82.8554 44.079C82.9163 44.2611 82.9233 44.4561 82.8757 44.6418L81.8983 48.5246C81.8621 48.6761 81.8728 48.8345 81.9291 48.9802C81.9854 49.1258 82.0848 49.2522 82.2148 49.3435C82.3448 49.4349 82.4998 49.4871 82.6603 49.4937C82.8208 49.5004 82.9798 49.4611 83.1174 49.3808L86.5946 47.2851C86.7615 47.1801 86.9563 47.1242 87.1553 47.1242C87.3543 47.1242 87.5491 47.1801 87.716 47.2851L91.224 49.3808C91.3613 49.4637 91.521 49.505 91.6826 49.4995C91.8443 49.494 92.0006 49.442 92.1315 49.35C92.2624 49.2581 92.362 49.1304 92.4175 48.9833C92.473 48.8363 92.4819 48.6766 92.4431 48.5246L91.4658 44.6418C91.4205 44.4555 91.4292 44.2608 91.4909 44.079C91.5526 43.8972 91.665 43.7354 91.8156 43.6114L94.9635 41.0229C95.0865 40.9217 95.1756 40.7874 95.2194 40.6371C95.2633 40.4868 95.2599 40.3273 95.2097 40.1788C95.1595 40.0304 95.0647 39.8998 94.9375 39.8036C94.8103 39.7075 94.6564 39.6502 94.4954 39.639L90.3804 39.3403C90.1821 39.3253 89.9921 39.2573 89.8313 39.1439C89.6706 39.0306 89.5455 38.8762 89.47 38.6982L87.9269 35.0046C87.8679 34.8561 87.7639 34.7284 87.6284 34.6383C87.493 34.5482 87.3325 34.5 87.1681 34.5C87.0038 34.5 86.8433 34.5482 86.7079 34.6383C86.5724 34.7284 86.4684 34.8561 86.4094 35.0046Z" fill="#9795A5"/>
<path d="M66.9094 35.0046L65.3663 38.6982C65.2917 38.8759 65.1675 39.03 65.0077 39.1434C64.8478 39.2568 64.6586 39.325 64.461 39.3403L60.346 39.639C60.1854 39.6511 60.0322 39.709 59.9057 39.8055C59.7793 39.902 59.6853 40.0327 59.6357 40.1809C59.5861 40.3292 59.5831 40.4884 59.6271 40.6383C59.6712 40.7882 59.7602 40.922 59.883 41.0229L63.031 43.6114C63.1821 43.7349 63.2945 43.8969 63.3554 44.079C63.4163 44.2611 63.4233 44.4561 63.3757 44.6418L62.3983 48.5246C62.3621 48.6761 62.3728 48.8345 62.4291 48.9802C62.4854 49.1258 62.5848 49.2522 62.7148 49.3435C62.8448 49.4349 62.9998 49.4871 63.1603 49.4937C63.3208 49.5004 63.4798 49.4611 63.6174 49.3808L67.0946 47.2851C67.2615 47.1801 67.4563 47.1242 67.6553 47.1242C67.8543 47.1242 68.0491 47.1801 68.216 47.2851L71.724 49.3808C71.8613 49.4637 72.021 49.505 72.1826 49.4995C72.3443 49.494 72.5006 49.442 72.6315 49.35C72.7624 49.2581 72.862 49.1304 72.9175 48.9833C72.973 48.8363 72.9819 48.6766 72.9431 48.5246L71.9658 44.6418C71.9205 44.4555 71.9292 44.2608 71.9909 44.079C72.0526 43.8972 72.165 43.7354 72.3156 43.6114L75.4635 41.0229C75.5865 40.9217 75.6756 40.7874 75.7194 40.6371C75.7633 40.4868 75.7599 40.3273 75.7097 40.1788C75.6595 40.0304 75.5647 39.8998 75.4375 39.8036C75.3103 39.7075 75.1564 39.6502 74.9954 39.639L70.8804 39.3403C70.6821 39.3253 70.4921 39.2573 70.3313 39.1439C70.1706 39.0306 70.0455 38.8762 69.97 38.6982L68.4269 35.0046C68.3679 34.8561 68.2639 34.7284 68.1284 34.6383C67.993 34.5482 67.8325 34.5 67.6681 34.5C67.5038 34.5 67.3433 34.5482 67.2079 34.6383C67.0724 34.7284 66.9684 34.8561 66.9094 35.0046Z" fill="#9795A5"/>
<path d="M47.4094 35.0046L45.8663 38.6982C45.7917 38.8759 45.6675 39.03 45.5077 39.1434C45.3478 39.2568 45.1586 39.325 44.961 39.3403L40.846 39.639C40.6854 39.6511 40.5322 39.709 40.4057 39.8055C40.2793 39.902 40.1853 40.0327 40.1357 40.1809C40.0861 40.3292 40.0831 40.4884 40.1271 40.6383C40.1712 40.7882 40.2602 40.922 40.383 41.0229L43.531 43.6114C43.6821 43.7349 43.7945 43.8969 43.8554 44.079C43.9163 44.2611 43.9233 44.4561 43.8757 44.6418L42.8983 48.5246C42.8621 48.6761 42.8728 48.8345 42.9291 48.9802C42.9854 49.1258 43.0848 49.2522 43.2148 49.3435C43.3448 49.4349 43.4998 49.4871 43.6603 49.4937C43.8208 49.5004 43.9798 49.4611 44.1174 49.3808L47.5946 47.2851C47.7615 47.1801 47.9563 47.1242 48.1553 47.1242C48.3543 47.1242 48.5491 47.1801 48.716 47.2851L52.224 49.3808C52.3613 49.4637 52.521 49.505 52.6826 49.4995C52.8443 49.494 53.0006 49.442 53.1315 49.35C53.2624 49.2581 53.362 49.1304 53.4175 48.9833C53.473 48.8363 53.4819 48.6766 53.4431 48.5246L52.4658 44.6418C52.4205 44.4555 52.4292 44.2608 52.4909 44.079C52.5526 43.8972 52.665 43.7354 52.8156 43.6114L55.9635 41.0229C56.0865 40.9217 56.1756 40.7874 56.2194 40.6371C56.2633 40.4868 56.2599 40.3273 56.2097 40.1788C56.1595 40.0304 56.0647 39.8998 55.9375 39.8036C55.8103 39.7075 55.6564 39.6502 55.4954 39.639L51.3804 39.3403C51.1821 39.3253 50.9921 39.2573 50.8313 39.1439C50.6706 39.0306 50.5455 38.8762 50.47 38.6982L48.9269 35.0046C48.8679 34.8561 48.7639 34.7284 48.6284 34.6383C48.493 34.5482 48.3325 34.5 48.1681 34.5C48.0038 34.5 47.8433 34.5482 47.7079 34.6383C47.5724 34.7284 47.4684 34.8561 47.4094 35.0046Z" fill="#9795A5"/>
<path d="M27.9094 35.0046L26.3663 38.6982C26.2917 38.8759 26.1675 39.03 26.0077 39.1434C25.8478 39.2568 25.6586 39.325 25.461 39.3403L21.346 39.639C21.1854 39.6511 21.0322 39.709 20.9057 39.8055C20.7793 39.902 20.6853 40.0327 20.6357 40.1809C20.5861 40.3292 20.5831 40.4884 20.6271 40.6383C20.6712 40.7882 20.7602 40.922 20.883 41.0229L24.031 43.6114C24.1821 43.7349 24.2945 43.8969 24.3554 44.079C24.4163 44.2611 24.4233 44.4561 24.3757 44.6418L23.3983 48.5246C23.3621 48.6761 23.3728 48.8345 23.4291 48.9802C23.4854 49.1258 23.5848 49.2522 23.7148 49.3435C23.8448 49.4349 23.9998 49.4871 24.1603 49.4937C24.3208 49.5004 24.4798 49.4611 24.6174 49.3808L28.0946 47.2851C28.2615 47.1801 28.4563 47.1242 28.6553 47.1242C28.8543 47.1242 29.0491 47.1801 29.216 47.2851L32.724 49.3808C32.8613 49.4637 33.021 49.505 33.1826 49.4995C33.3443 49.494 33.5006 49.442 33.6315 49.35C33.7624 49.2581 33.862 49.1304 33.9175 48.9833C33.973 48.8363 33.9819 48.6766 33.9431 48.5246L32.9658 44.6418C32.9205 44.4555 32.9292 44.2608 32.9909 44.079C33.0526 43.8972 33.165 43.7354 33.3156 43.6114L36.4635 41.0229C36.5865 40.9217 36.6756 40.7874 36.7194 40.6371C36.7633 40.4868 36.7599 40.3273 36.7097 40.1788C36.6595 40.0304 36.5647 39.8998 36.4375 39.8036C36.3103 39.7075 36.1564 39.6502 35.9954 39.639L31.8804 39.3403C31.6821 39.3253 31.4921 39.2573 31.3313 39.1439C31.1706 39.0306 31.0455 38.8762 30.97 38.6982L29.4269 35.0046C29.3679 34.8561 29.2639 34.7284 29.1284 34.6383C28.993 34.5482 28.8325 34.5 28.6681 34.5C28.5038 34.5 28.3433 34.5482 28.2079 34.6383C28.0724 34.7284 27.9684 34.8561 27.9094 35.0046Z" fill="#9795A5"/>
<path d="M86.4094 68.0046L84.8663 71.6982C84.7917 71.8759 84.6675 72.03 84.5077 72.1434C84.3478 72.2568 84.1586 72.325 83.961 72.3403L79.846 72.639C79.6854 72.6511 79.5322 72.709 79.4057 72.8055C79.2793 72.902 79.1853 73.0327 79.1357 73.1809C79.0861 73.3292 79.0831 73.4884 79.1271 73.6383C79.1712 73.7882 79.2602 73.922 79.383 74.0229L82.531 76.6114C82.6821 76.7349 82.7945 76.8969 82.8554 77.079C82.9163 77.2611 82.9233 77.4561 82.8757 77.6418L81.8983 81.5246C81.8621 81.6761 81.8728 81.8345 81.9291 81.9802C81.9854 82.1258 82.0848 82.2522 82.2148 82.3435C82.3448 82.4349 82.4998 82.4871 82.6603 82.4937C82.8208 82.5004 82.9798 82.4611 83.1174 82.3808L86.5946 80.2851C86.7615 80.1801 86.9563 80.1242 87.1553 80.1242C87.3543 80.1242 87.5491 80.1801 87.716 80.2851L91.224 82.3808C91.3613 82.4637 91.521 82.505 91.6826 82.4995C91.8443 82.494 92.0006 82.442 92.1315 82.35C92.2624 82.2581 92.362 82.1304 92.4175 81.9833C92.473 81.8363 92.4819 81.6766 92.4431 81.5246L91.4658 77.6418C91.4205 77.4555 91.4292 77.2608 91.4909 77.079C91.5526 76.8972 91.665 76.7354 91.8156 76.6114L94.9635 74.0229C95.0865 73.9217 95.1756 73.7874 95.2194 73.6371C95.2633 73.4868 95.2599 73.3273 95.2097 73.1788C95.1595 73.0304 95.0647 72.8998 94.9375 72.8036C94.8103 72.7075 94.6564 72.6502 94.4954 72.639L90.3804 72.3403C90.1821 72.3253 89.9921 72.2573 89.8313 72.1439C89.6706 72.0306 89.5455 71.8762 89.47 71.6982L87.9269 68.0046C87.8679 67.8561 87.7639 67.7284 87.6284 67.6383C87.493 67.5482 87.3325 67.5 87.1681 67.5C87.0038 67.5 86.8433 67.5482 86.7079 67.6383C86.5724 67.7284 86.4684 67.8561 86.4094 68.0046Z" fill="#9795A5"/>
<path d="M66.9094 68.0046L65.3663 71.6982C65.2917 71.8759 65.1675 72.03 65.0077 72.1434C64.8478 72.2568 64.6586 72.325 64.461 72.3403L60.346 72.639C60.1854 72.6511 60.0322 72.709 59.9057 72.8055C59.7793 72.902 59.6853 73.0327 59.6357 73.1809C59.5861 73.3292 59.5831 73.4884 59.6271 73.6383C59.6712 73.7882 59.7602 73.922 59.883 74.0229L63.031 76.6114C63.1821 76.7349 63.2945 76.8969 63.3554 77.079C63.4163 77.2611 63.4233 77.4561 63.3757 77.6418L62.3983 81.5246C62.3621 81.6761 62.3728 81.8345 62.4291 81.9802C62.4854 82.1258 62.5848 82.2522 62.7148 82.3435C62.8448 82.4349 62.9998 82.4871 63.1603 82.4937C63.3208 82.5004 63.4798 82.4611 63.6174 82.3808L67.0946 80.2851C67.2615 80.1801 67.4563 80.1242 67.6553 80.1242C67.8543 80.1242 68.0491 80.1801 68.216 80.2851L71.724 82.3808C71.8613 82.4637 72.021 82.505 72.1826 82.4995C72.3443 82.494 72.5006 82.442 72.6315 82.35C72.7624 82.2581 72.862 82.1304 72.9175 81.9833C72.973 81.8363 72.9819 81.6766 72.9431 81.5246L71.9658 77.6418C71.9205 77.4555 71.9292 77.2608 71.9909 77.079C72.0526 76.8972 72.165 76.7354 72.3156 76.6114L75.4635 74.0229C75.5865 73.9217 75.6756 73.7874 75.7194 73.6371C75.7633 73.4868 75.7599 73.3273 75.7097 73.1788C75.6595 73.0304 75.5647 72.8998 75.4375 72.8036C75.3103 72.7075 75.1564 72.6502 74.9954 72.639L70.8804 72.3403C70.6821 72.3253 70.4921 72.2573 70.3313 72.1439C70.1706 72.0306 70.0455 71.8762 69.97 71.6982L68.4269 68.0046C68.3679 67.8561 68.2639 67.7284 68.1284 67.6383C67.993 67.5482 67.8325 67.5 67.6681 67.5C67.5038 67.5 67.3433 67.5482 67.2079 67.6383C67.0724 67.7284 66.9684 67.8561 66.9094 68.0046Z" fill="#9795A5"/>
<path d="M47.4094 68.0046L45.8663 71.6982C45.7917 71.8759 45.6675 72.03 45.5077 72.1434C45.3478 72.2568 45.1586 72.325 44.961 72.3403L40.846 72.639C40.6854 72.6511 40.5322 72.709 40.4057 72.8055C40.2793 72.902 40.1853 73.0327 40.1357 73.1809C40.0861 73.3292 40.0831 73.4884 40.1271 73.6383C40.1712 73.7882 40.2602 73.922 40.383 74.0229L43.531 76.6114C43.6821 76.7349 43.7945 76.8969 43.8554 77.079C43.9163 77.2611 43.9233 77.4561 43.8757 77.6418L42.8983 81.5246C42.8621 81.6761 42.8728 81.8345 42.9291 81.9802C42.9854 82.1258 43.0848 82.2522 43.2148 82.3435C43.3448 82.4349 43.4998 82.4871 43.6603 82.4937C43.8208 82.5004 43.9798 82.4611 44.1174 82.3808L47.5946 80.2851C47.7615 80.1801 47.9563 80.1242 48.1553 80.1242C48.3543 80.1242 48.5491 80.1801 48.716 80.2851L52.224 82.3808C52.3613 82.4637 52.521 82.505 52.6826 82.4995C52.8443 82.494 53.0006 82.442 53.1315 82.35C53.2624 82.2581 53.362 82.1304 53.4175 81.9833C53.473 81.8363 53.4819 81.6766 53.4431 81.5246L52.4658 77.6418C52.4205 77.4555 52.4292 77.2608 52.4909 77.079C52.5526 76.8972 52.665 76.7354 52.8156 76.6114L55.9635 74.0229C56.0865 73.9217 56.1756 73.7874 56.2194 73.6371C56.2633 73.4868 56.2599 73.3273 56.2097 73.1788C56.1595 73.0304 56.0647 72.8998 55.9375 72.8036C55.8103 72.7075 55.6564 72.6502 55.4954 72.639L51.3804 72.3403C51.1821 72.3253 50.9921 72.2573 50.8313 72.1439C50.6706 72.0306 50.5455 71.8762 50.47 71.6982L48.9269 68.0046C48.8679 67.8561 48.7639 67.7284 48.6284 67.6383C48.493 67.5482 48.3325 67.5 48.1681 67.5C48.0038 67.5 47.8433 67.5482 47.7079 67.6383C47.5724 67.7284 47.4684 67.8561 47.4094 68.0046Z" fill="#9795A5"/>
<path d="M86.4094 101.005L84.8663 104.698C84.7917 104.876 84.6675 105.03 84.5077 105.143C84.3478 105.257 84.1586 105.325 83.961 105.34L79.846 105.639C79.6854 105.651 79.5322 105.709 79.4057 105.806C79.2793 105.902 79.1853 106.033 79.1357 106.181C79.0861 106.329 79.0831 106.488 79.1271 106.638C79.1712 106.788 79.2602 106.922 79.383 107.023L82.531 109.611C82.6821 109.735 82.7945 109.897 82.8554 110.079C82.9163 110.261 82.9233 110.456 82.8757 110.642L81.8983 114.525C81.8621 114.676 81.8728 114.835 81.9291 114.98C81.9854 115.126 82.0848 115.252 82.2148 115.344C82.3448 115.435 82.4998 115.487 82.6603 115.494C82.8208 115.5 82.9798 115.461 83.1174 115.381L86.5946 113.285C86.7615 113.18 86.9563 113.124 87.1553 113.124C87.3543 113.124 87.5491 113.18 87.716 113.285L91.224 115.381C91.3613 115.464 91.521 115.505 91.6826 115.5C91.8443 115.494 92.0006 115.442 92.1315 115.35C92.2624 115.258 92.362 115.13 92.4175 114.983C92.473 114.836 92.4819 114.677 92.4431 114.525L91.4658 110.642C91.4205 110.456 91.4292 110.261 91.4909 110.079C91.5526 109.897 91.665 109.735 91.8156 109.611L94.9635 107.023C95.0865 106.922 95.1756 106.787 95.2194 106.637C95.2633 106.487 95.2599 106.327 95.2097 106.179C95.1595 106.03 95.0647 105.9 94.9375 105.804C94.8103 105.707 94.6564 105.65 94.4954 105.639L90.3804 105.34C90.1821 105.325 89.9921 105.257 89.8313 105.144C89.6706 105.031 89.5455 104.876 89.47 104.698L87.9269 101.005C87.8679 100.856 87.7639 100.728 87.6284 100.638C87.493 100.548 87.3325 100.5 87.1681 100.5C87.0038 100.5 86.8433 100.548 86.7079 100.638C86.5724 100.728 86.4684 100.856 86.4094 101.005Z" fill="#9795A5"/>
<path d="M66.9094 101.005L65.3663 104.698C65.2917 104.876 65.1675 105.03 65.0077 105.143C64.8478 105.257 64.6586 105.325 64.461 105.34L60.346 105.639C60.1854 105.651 60.0322 105.709 59.9057 105.806C59.7793 105.902 59.6853 106.033 59.6357 106.181C59.5861 106.329 59.5831 106.488 59.6271 106.638C59.6712 106.788 59.7602 106.922 59.883 107.023L63.031 109.611C63.1821 109.735 63.2945 109.897 63.3554 110.079C63.4163 110.261 63.4233 110.456 63.3757 110.642L62.3983 114.525C62.3621 114.676 62.3728 114.835 62.4291 114.98C62.4854 115.126 62.5848 115.252 62.7148 115.344C62.8448 115.435 62.9998 115.487 63.1603 115.494C63.3208 115.5 63.4798 115.461 63.6174 115.381L67.0946 113.285C67.2615 113.18 67.4563 113.124 67.6553 113.124C67.8543 113.124 68.0491 113.18 68.216 113.285L71.724 115.381C71.8613 115.464 72.021 115.505 72.1826 115.5C72.3443 115.494 72.5006 115.442 72.6315 115.35C72.7624 115.258 72.862 115.13 72.9175 114.983C72.973 114.836 72.9819 114.677 72.9431 114.525L71.9658 110.642C71.9205 110.456 71.9292 110.261 71.9909 110.079C72.0526 109.897 72.165 109.735 72.3156 109.611L75.4635 107.023C75.5865 106.922 75.6756 106.787 75.7194 106.637C75.7633 106.487 75.7599 106.327 75.7097 106.179C75.6595 106.03 75.5647 105.9 75.4375 105.804C75.3103 105.707 75.1564 105.65 74.9954 105.639L70.8804 105.34C70.6821 105.325 70.4921 105.257 70.3313 105.144C70.1706 105.031 70.0455 104.876 69.97 104.698L68.4269 101.005C68.3679 100.856 68.2639 100.728 68.1284 100.638C67.993 100.548 67.8325 100.5 67.6681 100.5C67.5038 100.5 67.3433 100.548 67.2079 100.638C67.0724 100.728 66.9684 100.856 66.9094 101.005Z" fill="#9795A5"/>
<path d="M86.4094 134.005L84.8663 137.698C84.7917 137.876 84.6675 138.03 84.5077 138.143C84.3478 138.257 84.1586 138.325 83.961 138.34L79.846 138.639C79.6854 138.651 79.5322 138.709 79.4057 138.806C79.2793 138.902 79.1853 139.033 79.1357 139.181C79.0861 139.329 79.0831 139.488 79.1271 139.638C79.1712 139.788 79.2602 139.922 79.383 140.023L82.531 142.611C82.6821 142.735 82.7945 142.897 82.8554 143.079C82.9163 143.261 82.9233 143.456 82.8757 143.642L81.8983 147.525C81.8621 147.676 81.8728 147.835 81.9291 147.98C81.9854 148.126 82.0848 148.252 82.2148 148.344C82.3448 148.435 82.4998 148.487 82.6603 148.494C82.8208 148.5 82.9798 148.461 83.1174 148.381L86.5946 146.285C86.7615 146.18 86.9563 146.124 87.1553 146.124C87.3543 146.124 87.5491 146.18 87.716 146.285L91.224 148.381C91.3613 148.464 91.521 148.505 91.6826 148.5C91.8443 148.494 92.0006 148.442 92.1315 148.35C92.2624 148.258 92.362 148.13 92.4175 147.983C92.473 147.836 92.4819 147.677 92.4431 147.525L91.4658 143.642C91.4205 143.456 91.4292 143.261 91.4909 143.079C91.5526 142.897 91.665 142.735 91.8156 142.611L94.9635 140.023C95.0865 139.922 95.1756 139.787 95.2194 139.637C95.2633 139.487 95.2599 139.327 95.2097 139.179C95.1595 139.03 95.0647 138.9 94.9375 138.804C94.8103 138.707 94.6564 138.65 94.4954 138.639L90.3804 138.34C90.1821 138.325 89.9921 138.257 89.8313 138.144C89.6706 138.031 89.5455 137.876 89.47 137.698L87.9269 134.005C87.8679 133.856 87.7639 133.728 87.6284 133.638C87.493 133.548 87.3325 133.5 87.1681 133.5C87.0038 133.5 86.8433 133.548 86.7079 133.638C86.5724 133.728 86.4684 133.856 86.4094 134.005Z" fill="#9795A5"/>
</g>
</svg>
