<svg width="150" height="55" viewBox="0 0 150 55" fill="none" xmlns="http://www.w3.org/2000/svg">
<path fill-rule="evenodd" clip-rule="evenodd" d="M68.1971 7.85201C68.7418 7.33075 69.0626 6.61736 69.0915 5.86304C69.0787 5.09705 68.7652 4.36701 68.2189 3.83121C67.6727 3.29541 66.9378 2.99706 66.1735 3.00085C65.7911 2.99158 65.4106 3.05851 65.0541 3.19776C64.6977 3.33702 64.3723 3.54582 64.097 3.81207C63.8217 4.07831 63.6018 4.3967 63.4502 4.74877C63.2986 5.10084 63.2182 5.47958 63.2137 5.86304C63.2391 6.62595 63.5647 7.34779 64.1192 7.87096C64.6738 8.39413 65.4123 8.67613 66.1735 8.65542C66.9266 8.66143 67.6523 8.37327 68.1971 7.85201ZM63.8056 14.1425V27.4063C63.7953 27.7195 63.8481 28.0315 63.9608 28.3238C64.0736 28.6161 64.2439 28.8826 64.4617 29.1074C64.6794 29.3322 64.9402 29.5107 65.2283 29.6323C65.5164 29.7538 65.8261 29.8158 66.1387 29.8147C66.4533 29.8186 66.7655 29.7587 67.0565 29.6385C67.3475 29.5183 67.6111 29.3404 67.8317 29.1154C68.0523 28.8904 68.2251 28.623 68.3399 28.3293C68.4547 28.0356 68.509 27.7216 68.4996 27.4063V14.1425C68.509 13.8321 68.4556 13.523 68.3425 13.2339C68.2294 12.9448 68.059 12.6817 67.8415 12.4604C67.6241 12.2392 67.3642 12.0645 67.0775 11.9469C66.7908 11.8292 66.4833 11.7711 66.1735 11.7759C65.8605 11.7663 65.5489 11.8209 65.2577 11.9363C64.9666 12.0517 64.702 12.2256 64.4803 12.4472C64.2585 12.6688 64.0843 12.9335 63.9683 13.225C63.8523 13.5165 63.7969 13.8287 63.8056 14.1425ZM40.1896 8.40409V27.3714C40.1763 27.6893 40.2278 28.0066 40.3408 28.304C40.4537 28.6014 40.6259 28.8726 40.8467 29.1011C41.0676 29.3297 41.3325 29.5108 41.6254 29.6335C41.9183 29.7562 42.2331 29.8178 42.5505 29.8147C42.8656 29.8141 43.1773 29.7496 43.4669 29.6253C43.7566 29.5009 44.0181 29.3192 44.236 29.091C44.4539 28.8628 44.6235 28.5929 44.7348 28.2974C44.8461 28.0019 44.8967 27.687 44.8835 27.3714V19.455H55.0375V27.3714C55.0252 27.6897 55.0775 28.0071 55.1913 28.3045C55.3051 28.6019 55.4779 28.873 55.6993 29.1015C55.9207 29.33 56.1861 29.511 56.4793 29.6336C56.7726 29.7562 57.0876 29.8178 57.4053 29.8147C57.7201 29.8141 58.0315 29.7496 58.3208 29.6252C58.6101 29.5008 58.8712 29.3189 59.0886 29.0906C59.3059 28.8624 59.4749 28.5924 59.5854 28.2969C59.6958 28.0014 59.7455 27.6866 59.7314 27.3714V8.36919C59.7478 8.05542 59.6994 7.74164 59.5892 7.44749C59.479 7.15334 59.3094 6.88516 59.0911 6.65974C58.8727 6.43431 58.6103 6.25649 58.3203 6.13742C58.0302 6.01835 57.7187 5.96059 57.4053 5.96774C57.0891 5.9568 56.774 6.01164 56.4799 6.12882C56.1858 6.24601 55.9192 6.42298 55.6967 6.64859C55.4742 6.87421 55.3008 7.14357 55.1874 7.43971C55.0739 7.73584 55.0229 8.05231 55.0375 8.36919V15.2036H44.8835V8.40409C44.8997 8.08812 44.8512 7.77218 44.7409 7.47572C44.6307 7.17926 44.461 6.90858 44.2425 6.68033C44.0239 6.45208 43.761 6.2711 43.47 6.14855C43.1791 6.026 42.8661 5.96447 42.5505 5.96774C42.2326 5.9606 41.9166 6.01927 41.6223 6.14011C41.328 6.26094 41.0617 6.44132 40.8402 6.66998C40.6186 6.89865 40.4464 7.17066 40.3345 7.46904C40.2226 7.76742 40.1732 8.08574 40.1896 8.40409ZM94.8664 22.6313C94.8664 26.6035 91.7325 29.3959 87.2823 29.3959H79.4544C79.1363 29.4066 78.8194 29.3516 78.5235 29.2343C78.2275 29.117 77.9587 28.9399 77.734 28.7139C77.5093 28.488 77.3334 28.2181 77.2172 27.9211C77.101 27.6241 77.047 27.3063 77.0587 26.9874V8.78806C77.048 8.4698 77.1027 8.15275 77.2193 7.85655C77.3359 7.56035 77.512 7.29133 77.7367 7.06616C77.9613 6.841 78.2296 6.66449 78.5251 6.5476C78.8206 6.4307 79.1369 6.3759 79.4544 6.3866H85.193C89.4761 6.3866 92.4638 8.99749 92.4638 12.7951C92.4887 13.5684 92.3501 14.3383 92.0573 15.0541C91.7644 15.77 91.3238 16.4157 90.7645 16.9488C91.9763 17.3121 93.035 18.0658 93.7765 19.093C94.518 20.1202 94.9011 21.3638 94.8664 22.6313ZM81.6342 10.4286V15.6922H84.8796C86.7182 15.6922 87.8673 14.68 87.8673 13.0395C87.8673 11.3989 86.7182 10.4286 84.8796 10.4286H81.6342ZM90.2282 22.4568C90.2282 20.6417 89.0095 19.5597 86.955 19.5597H81.6342V25.3679H86.9689C88.9886 25.3679 90.2073 24.3067 90.2073 22.4568H90.2282ZM113.712 19.9436V19.8389C113.736 18.7611 113.541 17.6896 113.137 16.6904C112.733 15.6911 112.13 14.7851 111.364 14.028C110.599 13.271 109.687 12.6788 108.684 12.2879C107.682 11.897 106.61 11.7156 105.536 11.7549C104.351 11.7358 103.174 11.9567 102.077 12.4044C100.979 12.852 99.9828 13.5172 99.1478 14.3601C98.3128 15.2029 97.6561 16.2061 97.2172 17.3095C96.7783 18.4129 96.5661 19.5938 96.5935 20.7813C96.5935 25.9402 100.598 29.8147 106.023 29.8147C107.962 29.8356 109.863 29.2766 111.483 28.2091C111.833 28.0326 112.128 27.7638 112.337 27.4316C112.545 27.0995 112.66 26.7166 112.667 26.3242C112.67 26.0732 112.622 25.8242 112.527 25.5923C112.431 25.3603 112.289 25.1503 112.11 24.9747C111.931 24.7992 111.718 24.6619 111.485 24.5711C111.252 24.4802 111.002 24.4378 110.752 24.4463C110.392 24.4532 110.042 24.5621 109.742 24.7605C108.664 25.4204 107.425 25.7684 106.162 25.7657C103.62 25.7657 101.886 24.5161 101.329 22.352H111.135C111.466 22.3837 111.801 22.3446 112.116 22.2372C112.431 22.1297 112.72 21.9565 112.964 21.7289C113.207 21.5013 113.4 21.2244 113.529 20.9167C113.658 20.6089 113.72 20.2773 113.712 19.9436ZM109.15 19.0361H101.329C101.852 16.9138 103.377 15.5526 105.431 15.5456C105.908 15.513 106.386 15.5792 106.837 15.7399C107.287 15.9007 107.699 16.1526 108.048 16.4801C108.397 16.8075 108.675 17.2034 108.864 17.6431C109.054 18.0829 109.151 18.557 109.15 19.0361ZM127.703 27.462C127.713 27.8582 127.606 28.2485 127.395 28.5838C127.185 28.9192 126.88 29.1846 126.519 29.3469C125.746 29.6642 124.917 29.8186 124.082 29.8006C119.597 29.8006 117.194 27.5318 117.194 23.3153V16.097H116.219C115.955 16.1056 115.691 16.0602 115.445 15.9636C115.199 15.867 114.975 15.7212 114.787 15.5351C114.598 15.349 114.45 15.1265 114.35 14.8811C114.25 14.6356 114.201 14.3724 114.206 14.1074C114.201 13.8427 114.25 13.5798 114.35 13.3348C114.45 13.0897 114.599 12.8676 114.787 12.6821C114.975 12.4965 115.2 12.3514 115.446 12.2556C115.692 12.1598 115.955 12.1153 116.219 12.1248H117.194V9.75131C117.182 9.43646 117.235 9.12257 117.35 8.82928C117.465 8.536 117.639 8.26963 117.861 8.04684C118.084 7.82405 118.349 7.64963 118.642 7.53451C118.935 7.41938 119.248 7.36603 119.562 7.37777C119.872 7.37291 120.181 7.43124 120.468 7.54925C120.756 7.66726 121.017 7.8425 121.235 8.06435C121.453 8.28621 121.624 8.55009 121.737 8.84004C121.851 9.12999 121.904 9.44 121.895 9.75131V12.1248H125.057C125.319 12.1151 125.581 12.1597 125.826 12.2558C126.071 12.3519 126.293 12.4975 126.479 12.6834C126.665 12.8694 126.811 13.0918 126.908 13.3368C127.005 13.5818 127.05 13.8441 127.041 14.1074C127.05 14.3711 127.005 14.6337 126.908 14.879C126.811 15.1244 126.666 15.3472 126.48 15.5337C126.293 15.7203 126.071 15.8665 125.826 15.9634C125.582 16.0603 125.32 16.1058 125.057 16.097H121.895V22.8965C121.895 24.8093 122.793 25.5772 124.987 25.5772H125.649C125.91 25.5506 126.174 25.5797 126.424 25.6627C126.674 25.7456 126.903 25.8805 127.097 26.0584C127.291 26.2364 127.445 26.4534 127.55 26.6953C127.654 26.9372 127.706 27.1985 127.703 27.462ZM144.348 27.4623V19.141C144.348 14.4358 141.639 11.7551 136.91 11.804C134.648 11.7085 132.43 12.4544 130.684 13.8982C130.4 14.1279 130.167 14.4139 129.999 14.7383C129.832 15.0627 129.733 15.4185 129.709 15.7831C129.714 16.0419 129.771 16.2971 129.875 16.534C129.979 16.7708 130.129 16.9847 130.316 17.1631C130.503 17.3416 130.724 17.4812 130.965 17.5738C131.206 17.6664 131.463 17.7103 131.721 17.7029C132.237 17.6878 132.731 17.4899 133.114 17.1444C134.016 16.3124 135.197 15.8513 136.422 15.8529C138.505 15.8529 139.654 16.9699 139.654 18.8827V19.6506H135.343C131.304 19.6506 128.838 21.6122 128.838 24.6769C128.838 27.7415 131.241 29.8358 134.786 29.8358C136.642 29.8952 138.449 29.2323 139.828 27.9858C139.933 28.5067 140.217 28.974 140.63 29.3058C141.044 29.6377 141.562 29.813 142.091 29.8009C142.395 29.805 142.697 29.7468 142.978 29.6297C143.258 29.5127 143.512 29.3393 143.724 29.1202C143.935 28.9012 144.099 28.6411 144.207 28.3559C144.314 28.0708 144.362 27.7667 144.348 27.4623ZM139.654 22.7361V22.9456C139.644 23.4088 139.542 23.8655 139.355 24.2889C139.167 24.7123 138.897 25.0941 138.56 25.4118C138.224 25.7296 137.828 25.977 137.395 26.1397C136.962 26.3023 136.501 26.377 136.039 26.3593C134.507 26.3593 133.567 25.6332 133.567 24.4814C133.567 23.3295 134.403 22.7361 135.97 22.7361H139.654Z" fill="#343EED"/>
<path d="M29.9215 14.6335C29.9193 12.5313 29.4647 10.4542 28.5886 8.54336C27.7125 6.63248 26.4354 4.93255 24.844 3.55906C23.2526 2.18556 21.3842 1.17068 19.3658 0.583356C17.3473 -0.00397029 15.2261 -0.149998 13.1462 0.155225C11.0663 0.460448 9.07654 1.20977 7.31195 2.35225C5.54737 3.49474 4.04936 5.00363 2.91968 6.77644C1.79 8.54926 1.05512 10.5445 0.764968 12.6265C0.474813 14.7085 0.636169 16.8286 1.2381 18.8428C1.2381 18.8428 3.05411 24.4952 9.51238 34.0443C11.2923 36.6902 15.2731 42.4629 15.2731 42.4629C15.2731 42.4629 19.2539 36.7262 21.0338 34.0443C27.4921 24.4952 29.3081 18.8428 29.3081 18.8428C29.7153 17.4768 29.9219 16.0589 29.9215 14.6335Z" fill="#2C3CF6"/>
<path d="M24.2576 45.1328C24.2576 45.1328 27.2041 45.7702 27.2041 47.2255C27.2041 49.3301 21.4193 50.1479 15.2377 50.1479C9.05602 50.1479 3.21109 49.3301 3.21109 47.2255C3.21109 45.7702 6.15762 45.1328 6.15762 45.1328C4.37768 45.4335 0 46.2513 0 48.0072C0 51.0379 9.00789 52 15.1775 52C20.6857 52 30.355 51.0379 30.355 48.0072C30.4152 46.2513 26.0375 45.4094 24.2576 45.1328Z" fill="#2C3CF6"/>
<path d="M15.2492 47.4538C19.9876 47.4538 21.3947 46.624 21.3947 45.9385C21.3947 45.253 19.3623 45.0485 19.3623 45.0485C19.3623 45.0485 20.1319 45.277 20.1319 45.6739C20.1319 46.4556 18.1235 46.7683 15.2371 46.7683C12.3508 46.7683 10.3063 46.4556 10.3063 45.6739C10.3063 45.277 11.0759 45.0485 11.0759 45.0485C11.0759 45.0485 9.04346 45.1808 9.04346 45.9385C9.04346 46.6962 10.5227 47.4538 15.2492 47.4538Z" fill="#2C3CF6"/>
<path d="M8.87535 45.0365C8.87535 45.0365 5.07495 45.4935 5.07495 46.8044C5.07495 48.7527 11.6535 49.2097 15.2374 49.2097C18.8213 49.2097 25.3998 48.7046 25.3998 46.8044C25.3998 45.4935 21.5994 45.0365 21.5994 45.0365C21.5994 45.0365 23.668 45.4213 23.668 46.3354C23.668 47.6823 19.0258 48.1273 15.2494 48.1273C11.7256 48.1273 6.83084 47.6823 6.83084 46.3354C6.80678 45.4093 8.87535 45.0365 8.87535 45.0365Z" fill="#2C3CF6"/>
<path d="M19.0977 22.5589C18.7147 22.5589 18.3403 22.6725 18.0219 22.8852C17.7035 23.098 17.4553 23.4004 17.3088 23.7542C17.1622 24.108 17.1239 24.4973 17.1986 24.8729C17.2733 25.2485 17.4577 25.5935 17.7285 25.8643C17.9993 26.1351 18.3443 26.3195 18.7199 26.3942C19.0955 26.469 19.4848 26.4306 19.8386 26.2841C20.1925 26.1375 20.4948 25.8893 20.7076 25.5709C20.9204 25.2525 21.0339 24.8781 21.0339 24.4952C21.0339 24.2409 20.9839 23.9891 20.8866 23.7542C20.7893 23.5193 20.6466 23.3058 20.4668 23.126C20.287 22.9462 20.0736 22.8036 19.8386 22.7063C19.6037 22.609 19.3519 22.5589 19.0977 22.5589Z" fill="#FFDB00"/>
<path d="M11.8816 22.5589C11.4986 22.5589 11.1243 22.6725 10.8059 22.8852C10.4874 23.098 10.2393 23.4004 10.0927 23.7542C9.94616 24.108 9.9078 24.4973 9.98252 24.8729C10.0572 25.2485 10.2416 25.5935 10.5124 25.8643C10.7832 26.1351 11.1282 26.3195 11.5038 26.3942C11.8794 26.469 12.2688 26.4306 12.6226 26.2841C12.9764 26.1375 13.2788 25.8893 13.4915 25.5709C13.7043 25.2525 13.8179 24.8781 13.8179 24.4952C13.8179 23.9816 13.6139 23.4891 13.2507 23.126C12.8876 22.7629 12.3951 22.5589 11.8816 22.5589Z" fill="#FFDB00"/>
<path d="M22.7778 11.735C22.6875 11.6162 22.5712 11.5198 22.4377 11.453C22.3043 11.3863 22.1573 11.3511 22.0081 11.3502H9.81312L9.51245 10.4362C9.46577 10.2187 9.34606 10.0237 9.17321 9.88368C9.00037 9.74365 8.78481 9.66701 8.56236 9.66647H4.95439C4.69603 9.66647 4.44824 9.76911 4.26555 9.9518C4.08286 10.1345 3.98022 10.3823 3.98022 10.6406C3.98022 10.899 4.08286 11.1468 4.26555 11.3294C4.44824 11.5121 4.69603 11.6148 4.95439 11.6148H7.80468L9.65677 20.0334C9.70592 20.2518 9.82797 20.4471 10.0028 20.587C10.1777 20.7269 10.395 20.8031 10.6189 20.8031H20.0958C20.3118 20.8039 20.5218 20.7319 20.692 20.5988C20.8622 20.4658 20.9826 20.2793 21.0339 20.0694L22.9822 12.613C23.0224 12.4611 23.0248 12.3016 22.9892 12.1486C22.9535 11.9956 22.8809 11.8536 22.7778 11.735Z" fill="#FFDB00"/>
<path d="M51.44 47.768C51.504 47.9067 51.536 48.0453 51.536 48.184C51.536 48.4293 51.4347 48.6373 51.232 48.808C51.04 48.9787 50.816 49.064 50.56 49.064C50.3893 49.064 50.2293 49.0213 50.08 48.936C49.9307 48.84 49.8133 48.696 49.728 48.504L48.768 46.36H43.136L42.176 48.504C42.0907 48.696 41.9733 48.84 41.824 48.936C41.6747 49.0213 41.5093 49.064 41.328 49.064C41.0827 49.064 40.8587 48.9787 40.656 48.808C40.4533 48.6373 40.352 48.4293 40.352 48.184C40.352 48.0453 40.384 47.9067 40.448 47.768L44.864 38.28C44.96 38.0667 45.104 37.9067 45.296 37.8C45.4987 37.6827 45.712 37.624 45.936 37.624C46.16 37.624 46.368 37.6827 46.56 37.8C46.7627 37.9067 46.912 38.0667 47.008 38.28L51.44 47.768ZM43.84 44.76H48.064L45.952 40.008L43.84 44.76ZM59.443 37.64C59.7417 37.64 59.987 37.7253 60.179 37.896C60.371 38.0667 60.467 38.2907 60.467 38.568V48.136C60.467 48.424 60.3763 48.6533 60.195 48.824C60.0137 48.9947 59.7737 49.08 59.475 49.08C59.1763 49.08 58.9363 48.9947 58.755 48.824C58.5737 48.6533 58.483 48.424 58.483 48.136V47.736C58.2483 48.1733 57.907 48.5147 57.459 48.76C57.0217 49.0053 56.5203 49.128 55.955 49.128C55.283 49.128 54.6803 48.9573 54.147 48.616C53.6243 48.2747 53.2137 47.7947 52.915 47.176C52.627 46.5467 52.483 45.8267 52.483 45.016C52.483 44.2053 52.627 43.496 52.915 42.888C53.2137 42.28 53.6243 41.8107 54.147 41.48C54.6697 41.1493 55.2723 40.984 55.955 40.984C56.5203 40.984 57.0217 41.1013 57.459 41.336C57.8963 41.5707 58.2323 41.9013 58.467 42.328V38.536C58.467 38.2693 58.5523 38.056 58.723 37.896C58.9043 37.7253 59.1443 37.64 59.443 37.64ZM56.483 47.576C57.123 47.576 57.6137 47.3573 57.955 46.92C58.307 46.4827 58.483 45.8587 58.483 45.048C58.483 44.2373 58.307 43.6187 57.955 43.192C57.6137 42.7547 57.1283 42.536 56.499 42.536C55.859 42.536 55.363 42.7493 55.011 43.176C54.659 43.6027 54.483 44.216 54.483 45.016C54.483 45.8267 54.659 46.456 55.011 46.904C55.363 47.352 55.8537 47.576 56.483 47.576ZM71.8204 40.984C72.6737 40.984 73.3244 41.24 73.7724 41.752C74.231 42.2533 74.4604 43.0693 74.4604 44.2V48.136C74.4604 48.4453 74.3644 48.6853 74.1724 48.856C73.991 49.016 73.751 49.096 73.4524 49.096C73.1644 49.096 72.9244 49.016 72.7324 48.856C72.551 48.6853 72.4604 48.4453 72.4604 48.136V44.2C72.4604 43.6133 72.3537 43.1973 72.1404 42.952C71.9377 42.696 71.623 42.568 71.1964 42.568C70.6737 42.568 70.2577 42.7493 69.9484 43.112C69.639 43.464 69.4844 43.9493 69.4844 44.568V48.136C69.4844 48.4453 69.3884 48.6853 69.1964 48.856C69.015 49.016 68.7804 49.096 68.4924 49.096C68.2044 49.096 67.9644 49.016 67.7724 48.856C67.5804 48.6853 67.4844 48.4453 67.4844 48.136V44.2C67.4844 43.6133 67.3777 43.1973 67.1644 42.952C66.9617 42.696 66.647 42.568 66.2204 42.568C65.6977 42.568 65.2817 42.7493 64.9724 43.112C64.6737 43.464 64.5244 43.9493 64.5244 44.568V48.136C64.5244 48.4453 64.4284 48.6853 64.2364 48.856C64.0444 49.016 63.8044 49.096 63.5164 49.096C63.2284 49.096 62.9884 49.016 62.7964 48.856C62.615 48.6853 62.5244 48.4453 62.5244 48.136V41.944C62.5244 41.6453 62.6204 41.416 62.8124 41.256C63.0044 41.096 63.2444 41.016 63.5324 41.016C63.8097 41.016 64.0337 41.096 64.2044 41.256C64.3857 41.4053 64.4764 41.624 64.4764 41.912V42.296C64.7217 41.8693 65.047 41.544 65.4524 41.32C65.8684 41.096 66.343 40.984 66.8764 40.984C68.0497 40.984 68.8337 41.4747 69.2284 42.456C69.463 42.008 69.8097 41.6507 70.2684 41.384C70.727 41.1173 71.2444 40.984 71.8204 40.984ZM77.4851 49.096C77.1971 49.096 76.9571 49.016 76.7651 48.856C76.5838 48.6853 76.4931 48.4453 76.4931 48.136V41.96C76.4931 41.6507 76.5838 41.416 76.7651 41.256C76.9571 41.096 77.1971 41.016 77.4851 41.016C77.7731 41.016 78.0131 41.096 78.2051 41.256C78.3971 41.416 78.4931 41.6507 78.4931 41.96V48.136C78.4931 48.4453 78.3971 48.6853 78.2051 48.856C78.0131 49.016 77.7731 49.096 77.4851 49.096ZM77.4851 39.592C77.1225 39.592 76.8345 39.496 76.6211 39.304C76.4078 39.1013 76.3011 38.84 76.3011 38.52C76.3011 38.2 76.4078 37.944 76.6211 37.752C76.8345 37.56 77.1225 37.464 77.4851 37.464C77.8371 37.464 78.1198 37.56 78.3331 37.752C78.5571 37.944 78.6691 38.2 78.6691 38.52C78.6691 38.84 78.5625 39.1013 78.3491 39.304C78.1358 39.496 77.8478 39.592 77.4851 39.592ZM85.0996 40.984C86.0383 40.984 86.737 41.2507 87.1956 41.784C87.6543 42.3173 87.8836 43.1227 87.8836 44.2V48.136C87.8836 48.4347 87.793 48.6693 87.6116 48.84C87.441 49.0107 87.201 49.096 86.8916 49.096C86.5823 49.096 86.337 49.0107 86.1556 48.84C85.9743 48.6693 85.8836 48.4347 85.8836 48.136V44.312C85.8836 43.704 85.7663 43.2613 85.5316 42.984C85.3076 42.7067 84.9503 42.568 84.4596 42.568C83.8836 42.568 83.4196 42.7493 83.0676 43.112C82.7263 43.4747 82.5556 43.96 82.5556 44.568V48.136C82.5556 48.4347 82.465 48.6693 82.2836 48.84C82.1023 49.0107 81.857 49.096 81.5476 49.096C81.2383 49.096 80.993 49.0107 80.8116 48.84C80.641 48.6693 80.5556 48.4347 80.5556 48.136V41.944C80.5556 41.6667 80.6463 41.4427 80.8276 41.272C81.009 41.1013 81.2543 41.016 81.5636 41.016C81.841 41.016 82.065 41.1013 82.2356 41.272C82.417 41.432 82.5076 41.6453 82.5076 41.912V42.344C82.7743 41.9067 83.1316 41.5707 83.5796 41.336C84.0276 41.1013 84.5343 40.984 85.0996 40.984ZM90.907 49.096C90.619 49.096 90.379 49.016 90.187 48.856C90.0057 48.6853 89.915 48.4453 89.915 48.136V41.96C89.915 41.6507 90.0057 41.416 90.187 41.256C90.379 41.096 90.619 41.016 90.907 41.016C91.195 41.016 91.435 41.096 91.627 41.256C91.819 41.416 91.915 41.6507 91.915 41.96V48.136C91.915 48.4453 91.819 48.6853 91.627 48.856C91.435 49.016 91.195 49.096 90.907 49.096ZM90.907 39.592C90.5443 39.592 90.2563 39.496 90.043 39.304C89.8297 39.1013 89.723 38.84 89.723 38.52C89.723 38.2 89.8297 37.944 90.043 37.752C90.2563 37.56 90.5443 37.464 90.907 37.464C91.259 37.464 91.5417 37.56 91.755 37.752C91.979 37.944 92.091 38.2 92.091 38.52C92.091 38.84 91.9843 39.1013 91.771 39.304C91.5577 39.496 91.2697 39.592 90.907 39.592ZM96.8095 49.128C95.6468 49.128 94.7082 48.8987 93.9935 48.44C93.6522 48.2373 93.4815 47.9493 93.4815 47.576C93.4815 47.3627 93.5402 47.192 93.6575 47.064C93.7748 46.9253 93.9188 46.856 94.0895 46.856C94.2708 46.856 94.5215 46.9413 94.8415 47.112C95.1828 47.272 95.4922 47.3947 95.7695 47.48C96.0575 47.5653 96.4202 47.608 96.8575 47.608C97.3055 47.608 97.6522 47.5333 97.8975 47.384C98.1535 47.2347 98.2815 47.0267 98.2815 46.76C98.2815 46.5787 98.2282 46.4347 98.1215 46.328C98.0255 46.2213 97.8442 46.1253 97.5775 46.04C97.3215 45.944 96.9268 45.8373 96.3935 45.72C95.4442 45.528 94.7615 45.256 94.3455 44.904C93.9402 44.552 93.7375 44.0667 93.7375 43.448C93.7375 42.9787 93.8762 42.5573 94.1535 42.184C94.4308 41.8 94.8095 41.5067 95.2895 41.304C95.7802 41.0907 96.3348 40.984 96.9535 40.984C97.4015 40.984 97.8335 41.0427 98.2495 41.16C98.6655 41.2667 99.0388 41.4267 99.3695 41.64C99.7108 41.8533 99.8815 42.136 99.8815 42.488C99.8815 42.7013 99.8228 42.8827 99.7055 43.032C99.5882 43.1707 99.4442 43.24 99.2735 43.24C99.1562 43.24 99.0388 43.2187 98.9215 43.176C98.8148 43.1227 98.6762 43.048 98.5055 42.952C98.1962 42.792 97.9295 42.6747 97.7055 42.6C97.4815 42.5147 97.2042 42.472 96.8735 42.472C96.4788 42.472 96.1642 42.552 95.9295 42.712C95.7055 42.872 95.5935 43.0907 95.5935 43.368C95.5935 43.6347 95.7108 43.8373 95.9455 43.976C96.1802 44.1147 96.6335 44.2533 97.3055 44.392C98.0202 44.5413 98.5802 44.712 98.9855 44.904C99.3908 45.096 99.6788 45.336 99.8495 45.624C100.031 45.912 100.122 46.28 100.122 46.728C100.122 47.4533 99.8175 48.0347 99.2095 48.472C98.6122 48.9093 97.8122 49.128 96.8095 49.128ZM105.729 47.608C106.262 47.64 106.529 47.88 106.529 48.328C106.529 48.584 106.422 48.7813 106.209 48.92C106.006 49.048 105.713 49.1013 105.329 49.08L104.897 49.048C103.105 48.92 102.209 47.96 102.209 46.168V42.68H101.409C101.121 42.68 100.897 42.616 100.737 42.488C100.588 42.36 100.513 42.1733 100.513 41.928C100.513 41.6827 100.588 41.496 100.737 41.368C100.897 41.24 101.121 41.176 101.409 41.176H102.209V39.704C102.209 39.416 102.3 39.1867 102.481 39.016C102.662 38.8453 102.908 38.76 103.217 38.76C103.516 38.76 103.756 38.8453 103.937 39.016C104.118 39.1867 104.209 39.416 104.209 39.704V41.176H105.569C105.857 41.176 106.076 41.24 106.225 41.368C106.385 41.496 106.465 41.6827 106.465 41.928C106.465 42.1733 106.385 42.36 106.225 42.488C106.076 42.616 105.857 42.68 105.569 42.68H104.209V46.312C104.209 47.1013 104.572 47.5227 105.297 47.576L105.729 47.608ZM111.939 41.016C112.217 40.9947 112.435 41.0533 112.595 41.192C112.755 41.3307 112.835 41.5387 112.835 41.816C112.835 42.104 112.766 42.3173 112.627 42.456C112.489 42.5947 112.238 42.6853 111.875 42.728L111.395 42.776C110.766 42.84 110.302 43.0533 110.003 43.416C109.715 43.7787 109.571 44.232 109.571 44.776V48.136C109.571 48.4453 109.475 48.6853 109.283 48.856C109.091 49.016 108.851 49.096 108.563 49.096C108.275 49.096 108.035 49.016 107.843 48.856C107.662 48.6853 107.571 48.4453 107.571 48.136V41.944C107.571 41.6453 107.662 41.416 107.843 41.256C108.035 41.096 108.27 41.016 108.547 41.016C108.825 41.016 109.049 41.096 109.219 41.256C109.39 41.4053 109.475 41.624 109.475 41.912V42.552C109.678 42.0827 109.977 41.72 110.371 41.464C110.777 41.208 111.225 41.064 111.715 41.032L111.939 41.016ZM117.057 40.984C118.145 40.984 118.95 41.256 119.473 41.8C120.006 42.3333 120.273 43.1493 120.273 44.248V48.152C120.273 48.44 120.188 48.6693 120.017 48.84C119.846 49 119.612 49.08 119.313 49.08C119.036 49.08 118.806 48.9947 118.625 48.824C118.454 48.6533 118.369 48.4293 118.369 48.152V47.8C118.188 48.216 117.9 48.5413 117.505 48.776C117.121 49.0107 116.673 49.128 116.161 49.128C115.638 49.128 115.164 49.0213 114.737 48.808C114.31 48.5947 113.974 48.3013 113.729 47.928C113.484 47.5547 113.361 47.1387 113.361 46.68C113.361 46.104 113.505 45.6507 113.793 45.32C114.092 44.9893 114.572 44.7493 115.233 44.6C115.894 44.4507 116.806 44.376 117.969 44.376H118.369V44.008C118.369 43.4853 118.257 43.1067 118.033 42.872C117.809 42.6267 117.446 42.504 116.945 42.504C116.636 42.504 116.321 42.552 116.001 42.648C115.681 42.7333 115.302 42.8613 114.865 43.032C114.588 43.1707 114.385 43.24 114.257 43.24C114.065 43.24 113.905 43.1707 113.777 43.032C113.66 42.8933 113.601 42.712 113.601 42.488C113.601 42.3067 113.644 42.152 113.729 42.024C113.825 41.8853 113.98 41.7573 114.193 41.64C114.566 41.4373 115.009 41.2773 115.521 41.16C116.044 41.0427 116.556 40.984 117.057 40.984ZM116.561 47.688C117.094 47.688 117.526 47.512 117.857 47.16C118.198 46.7973 118.369 46.3333 118.369 45.768V45.432H118.081C117.366 45.432 116.812 45.464 116.417 45.528C116.022 45.592 115.74 45.704 115.569 45.864C115.398 46.024 115.313 46.2427 115.313 46.52C115.313 46.8613 115.43 47.144 115.665 47.368C115.91 47.5813 116.209 47.688 116.561 47.688ZM126.37 47.608C126.903 47.64 127.17 47.88 127.17 48.328C127.17 48.584 127.063 48.7813 126.85 48.92C126.647 49.048 126.354 49.1013 125.97 49.08L125.538 49.048C123.746 48.92 122.85 47.96 122.85 46.168V42.68H122.05C121.762 42.68 121.538 42.616 121.378 42.488C121.228 42.36 121.154 42.1733 121.154 41.928C121.154 41.6827 121.228 41.496 121.378 41.368C121.538 41.24 121.762 41.176 122.05 41.176H122.85V39.704C122.85 39.416 122.94 39.1867 123.122 39.016C123.303 38.8453 123.548 38.76 123.858 38.76C124.156 38.76 124.396 38.8453 124.578 39.016C124.759 39.1867 124.85 39.416 124.85 39.704V41.176H126.21C126.498 41.176 126.716 41.24 126.866 41.368C127.026 41.496 127.106 41.6827 127.106 41.928C127.106 42.1733 127.026 42.36 126.866 42.488C126.716 42.616 126.498 42.68 126.21 42.68H124.85V46.312C124.85 47.1013 125.212 47.5227 125.938 47.576L126.37 47.608ZM129.204 49.096C128.916 49.096 128.676 49.016 128.484 48.856C128.303 48.6853 128.212 48.4453 128.212 48.136V41.96C128.212 41.6507 128.303 41.416 128.484 41.256C128.676 41.096 128.916 41.016 129.204 41.016C129.492 41.016 129.732 41.096 129.924 41.256C130.116 41.416 130.212 41.6507 130.212 41.96V48.136C130.212 48.4453 130.116 48.6853 129.924 48.856C129.732 49.016 129.492 49.096 129.204 49.096ZM129.204 39.592C128.841 39.592 128.553 39.496 128.34 39.304C128.127 39.1013 128.02 38.84 128.02 38.52C128.02 38.2 128.127 37.944 128.34 37.752C128.553 37.56 128.841 37.464 129.204 37.464C129.556 37.464 129.839 37.56 130.052 37.752C130.276 37.944 130.388 38.2 130.388 38.52C130.388 38.84 130.281 39.1013 130.068 39.304C129.855 39.496 129.567 39.592 129.204 39.592ZM135.842 49.128C135.042 49.128 134.338 48.9627 133.73 48.632C133.133 48.3013 132.669 47.8267 132.338 47.208C132.008 46.5893 131.842 45.8693 131.842 45.048C131.842 44.2267 132.008 43.512 132.338 42.904C132.669 42.2853 133.133 41.8107 133.73 41.48C134.338 41.1493 135.042 40.984 135.842 40.984C136.642 40.984 137.341 41.1493 137.938 41.48C138.546 41.8107 139.01 42.2853 139.33 42.904C139.661 43.512 139.826 44.2267 139.826 45.048C139.826 45.8693 139.661 46.5893 139.33 47.208C139.01 47.8267 138.546 48.3013 137.938 48.632C137.341 48.9627 136.642 49.128 135.842 49.128ZM135.826 47.576C136.477 47.576 136.973 47.3627 137.314 46.936C137.656 46.5093 137.826 45.88 137.826 45.048C137.826 44.2267 137.656 43.6027 137.314 43.176C136.973 42.7387 136.482 42.52 135.842 42.52C135.202 42.52 134.706 42.7387 134.354 43.176C134.013 43.6027 133.842 44.2267 133.842 45.048C133.842 45.88 134.013 46.5093 134.354 46.936C134.696 47.3627 135.186 47.576 135.826 47.576ZM146.022 40.984C146.96 40.984 147.659 41.2507 148.118 41.784C148.576 42.3173 148.806 43.1227 148.806 44.2V48.136C148.806 48.4347 148.715 48.6693 148.534 48.84C148.363 49.0107 148.123 49.096 147.814 49.096C147.504 49.096 147.259 49.0107 147.078 48.84C146.896 48.6693 146.806 48.4347 146.806 48.136V44.312C146.806 43.704 146.688 43.2613 146.454 42.984C146.23 42.7067 145.872 42.568 145.382 42.568C144.806 42.568 144.342 42.7493 143.99 43.112C143.648 43.4747 143.478 43.96 143.478 44.568V48.136C143.478 48.4347 143.387 48.6693 143.206 48.84C143.024 49.0107 142.779 49.096 142.47 49.096C142.16 49.096 141.915 49.0107 141.734 48.84C141.563 48.6693 141.478 48.4347 141.478 48.136V41.944C141.478 41.6667 141.568 41.4427 141.75 41.272C141.931 41.1013 142.176 41.016 142.486 41.016C142.763 41.016 142.987 41.1013 143.158 41.272C143.339 41.432 143.43 41.6453 143.43 41.912V42.344C143.696 41.9067 144.054 41.5707 144.502 41.336C144.95 41.1013 145.456 40.984 146.022 40.984Z" fill="#343EED"/>
</svg>
