<svg width="32" height="20" viewBox="0 0 32 20" fill="none" xmlns="http://www.w3.org/2000/svg">
<path d="M26.6471 0.5H5C2.51472 0.5 0.5 2.51472 0.5 5V15C0.5 17.4853 2.51472 19.5 5 19.5H26.6471C29.1323 19.5 31.1471 17.4853 31.1471 15V5C31.1471 2.51472 29.1323 0.5 26.6471 0.5Z" fill="#FF0534" stroke="#F2F2F9"/>
<path d="M21.0334 10.018C20.3616 10.1897 19.6378 9.63334 19.0153 9.7519C19.0158 9.74476 19.0158 9.73758 19.0153 9.73043C19.6144 9.43263 20.6082 9.76217 20.9697 9.1703C20.3365 9.45036 19.5409 9.02279 18.9453 9.23845C18.9453 9.22724 18.9453 9.22071 18.9391 9.20951C19.4853 8.82861 20.5123 8.98732 20.7796 8.34783C20.1983 8.72779 19.3516 8.44118 18.7956 8.73899C18.7932 8.73023 18.7899 8.72178 18.7857 8.71379C19.2682 8.247 20.3006 8.23674 20.4674 7.56457C19.9517 8.03135 19.0772 7.88758 18.5722 8.27221L18.5561 8.24327C18.9669 7.70834 19.9768 7.53283 20.0414 6.84293C19.6046 7.38906 18.722 7.38906 18.2798 7.84464C18.2726 7.83717 18.2664 7.8269 18.2583 7.81943C18.5875 7.22662 19.5526 6.88587 19.514 6.19597C19.1624 6.80652 18.2942 6.95029 17.9255 7.47122C17.9184 7.46375 17.9085 7.45721 17.9013 7.44974C18.1408 6.81399 19.035 6.31827 18.8942 5.65077C18.6413 6.30426 17.808 6.58433 17.5183 7.15847C17.5101 7.15097 17.5007 7.14497 17.4905 7.14073C17.6349 6.47604 18.4413 5.84775 18.2 5.20826C18.0475 5.89069 17.2708 6.308 17.0708 6.91481L17.0376 6.90361C17.0824 6.22864 17.7802 5.47432 17.4475 4.88151C17.4026 5.58542 16.6976 6.12128 16.59 6.75331C16.5788 6.74904 16.567 6.74653 16.555 6.74584C16.5003 6.07087 17.0743 5.212 16.6573 4.68453C16.7147 5.3847 16.1021 6.03073 16.0895 6.67395C16.0779 6.67216 16.0661 6.67216 16.0545 6.67395C15.8976 6.01299 16.3371 5.07943 15.8456 4.62012C16.0079 5.30255 15.4993 6.04193 15.5837 6.67395C15.5724 6.67584 15.5609 6.67584 15.5496 6.67395C15.2939 6.0494 15.5872 5.05049 15.0329 4.6808C15.2975 5.32682 14.9029 6.13902 15.085 6.75331L15.0473 6.77011C14.7011 6.19223 14.841 5.15785 14.2401 4.88431C14.5988 5.48086 14.3297 6.35001 14.6051 6.92788C14.5952 6.93535 14.5836 6.93909 14.5737 6.94655C14.1423 6.42936 14.1252 5.38377 13.4875 5.21106C13.936 5.73946 13.797 6.64781 14.1584 7.17154C14.1482 7.17625 14.1386 7.18221 14.1297 7.18928C13.6248 6.75517 13.4508 5.71705 12.7924 5.65264C13.3153 6.10821 13.3153 7.02404 13.753 7.48708C13.7447 7.4933 13.7375 7.50087 13.7315 7.50949C13.1646 7.16407 12.8346 6.15863 12.1753 6.20251C12.761 6.56939 12.8929 7.48522 13.4032 7.86611C13.3965 7.87388 13.3905 7.88233 13.3853 7.89132C12.7691 7.64672 12.2946 6.70196 11.647 6.84946C12.2821 7.11833 12.5538 8.00241 13.1144 8.29275L13.1001 8.31422C12.4543 8.18166 11.8444 7.31998 11.2165 7.56737C11.8856 7.72888 12.2874 8.56255 12.8884 8.75579C12.8884 8.76326 12.883 8.77073 12.8776 8.781C12.2202 8.75953 11.4829 7.99868 10.9044 8.35063C11.5932 8.40104 12.1161 9.16563 12.7413 9.25151C12.7413 9.25898 12.7413 9.27019 12.7359 9.27672C12.0811 9.37008 11.2336 8.73059 10.7142 9.1731C11.404 9.11148 12.039 9.78738 12.6713 9.76497C12.6713 9.77244 12.6713 9.77991 12.6713 9.78738C12.0372 9.99183 11.0999 9.49611 10.6523 10.0208C11.3268 9.84806 12.0569 10.4082 12.6812 10.2822C12.6821 10.2896 12.6821 10.2971 12.6812 10.3046C12.0856 10.6126 11.0793 10.2682 10.7142 10.8647C11.3564 10.5772 12.1673 11.0225 12.7646 10.7854C12.7646 10.7928 12.7646 10.7994 12.7646 10.8031C12.2265 11.2129 11.1735 11.0365 10.9017 11.6862C11.4955 11.2988 12.3664 11.6078 12.9207 11.2773C12.9234 11.2805 12.9258 11.2839 12.9278 11.2876C12.4597 11.7871 11.3851 11.7805 11.2138 12.4695C11.7448 11.985 12.6552 12.1568 13.153 11.7227C13.153 11.7301 13.1575 11.7329 13.1584 11.7367C12.7745 12.308 11.7053 12.4835 11.6399 13.1874C12.0883 12.6273 13.022 12.6422 13.4454 12.139C13.4454 12.139 13.4517 12.139 13.4526 12.1465C13.1646 12.7785 12.126 13.1193 12.1682 13.8269C12.5269 13.1949 13.4579 13.0651 13.797 12.491C13.797 12.491 13.8033 12.491 13.805 12.4984C13.6176 13.1734 12.639 13.6794 12.7852 14.3796C13.0543 13.6943 13.9512 13.4143 14.197 12.7925C14.197 12.7925 14.197 12.7925 14.2051 12.8C14.1226 13.4964 13.2283 14.1574 13.4804 14.8258C13.6391 14.107 14.4858 13.6831 14.6365 13.0222C14.6365 13.0222 14.6419 13.0222 14.6446 13.0296C14.6706 13.7335 13.8831 14.5233 14.2329 15.1488C14.2822 14.4085 15.0536 13.8558 15.102 13.1809C15.102 13.1809 15.1092 13.1809 15.111 13.1809C15.2428 13.8698 14.5863 14.7894 15.0213 15.3458C14.9594 14.6064 15.6402 13.9315 15.5854 13.2593H15.5926C15.8294 13.9128 15.3164 14.9332 15.8339 15.4065C15.6608 14.6914 16.2312 13.9128 16.0761 13.2593H16.085C16.4169 13.8736 16.0626 14.9546 16.6456 15.3458C16.3676 14.6606 16.8115 13.8054 16.5631 13.1809H16.5712C16.9882 13.741 16.8044 14.8613 17.4358 15.1488C17.0609 14.5233 17.3694 13.601 17.0313 13.0296C17.0313 13.0296 17.0367 13.0222 17.0403 13.0222C17.5336 13.5039 17.521 14.6419 18.1883 14.8258C17.7237 14.2657 17.8906 13.3172 17.4708 12.7962C17.4708 12.7962 17.4762 12.7962 17.4789 12.7962C18.0385 13.1911 18.1964 14.3161 18.8817 14.3833C18.3435 13.9165 18.3614 12.94 17.8708 12.4984C17.8708 12.4984 17.878 12.4984 17.8807 12.491C18.4888 12.7925 18.8144 13.8736 19.5014 13.8306C18.8969 13.4572 18.7695 12.4984 18.226 12.139C18.226 12.139 18.2323 12.139 18.235 12.1316C18.8763 12.3332 19.3606 13.3386 20.0288 13.1874C19.3786 12.9148 19.1086 11.9953 18.522 11.7264C18.5293 11.7223 18.5371 11.7194 18.5453 11.718C19.209 11.8188 19.8369 12.7272 20.471 12.4648C19.7902 12.2996 19.3857 11.4454 18.7669 11.2689C18.7696 11.2634 18.7714 11.2574 18.7722 11.2512C19.4404 11.2512 20.1948 12.0373 20.7805 11.6816C20.0853 11.6321 19.5588 10.86 18.9265 10.777C18.9265 10.7695 18.9265 10.7658 18.9319 10.7592C19.5911 10.6547 20.4459 11.3054 20.9706 10.86C20.2791 10.9207 19.6449 10.2495 19.0126 10.2672C19.0117 10.2601 19.0117 10.2529 19.0126 10.2458C19.6467 10.0404 20.5849 10.5361 21.0334 10.0124V10.018ZM18.6529 10.355C18.6363 10.4992 18.6102 10.642 18.5749 10.7826L18.6314 10.7938C18.6093 10.7971 18.5877 10.8031 18.5668 10.8115C18.5309 10.951 18.4832 11.0869 18.4242 11.2176C18.4414 11.228 18.4603 11.2353 18.4798 11.2391C18.4583 11.2377 18.4368 11.2377 18.4153 11.2391C18.357 11.3712 18.2892 11.4985 18.2126 11.62C18.2284 11.6318 18.2455 11.6415 18.2637 11.6489C18.2439 11.6489 18.2197 11.6489 18.1973 11.6489C18.1228 11.7699 18.0372 11.8831 17.9417 11.9869C17.9563 12.0025 17.9722 12.0169 17.9892 12.0298C17.9681 12.0223 17.9465 12.0163 17.9246 12.0121C17.8296 12.1172 17.7277 12.2155 17.6197 12.3061C17.6319 12.323 17.6458 12.3387 17.6609 12.3528C17.6417 12.3418 17.6212 12.3333 17.5999 12.3276C17.4898 12.4162 17.3738 12.4967 17.2528 12.5685L17.2878 12.6189C17.2706 12.6037 17.2513 12.5914 17.2304 12.5825C17.1101 12.6562 16.9838 12.7187 16.8528 12.7692C16.8594 12.7872 16.8685 12.8042 16.8797 12.8196C16.8627 12.8056 16.8456 12.7916 16.8295 12.7766C16.6983 12.8268 16.5641 12.8676 16.4277 12.8989C16.4322 12.9183 16.4379 12.9373 16.4447 12.9559C16.4325 12.9378 16.4183 12.9212 16.4025 12.9064C16.2658 12.9337 16.1273 12.9502 15.9882 12.9559C15.9886 12.9767 15.9913 12.9974 15.9962 13.0175C15.9846 12.9998 15.9738 12.9783 15.9631 12.9596C15.9227 12.9596 15.8823 12.9596 15.8447 12.9596C15.744 12.959 15.6434 12.953 15.5433 12.9419C15.5415 12.9611 15.5415 12.9805 15.5433 12.9998C15.5352 12.9774 15.5271 12.9596 15.5191 12.9382C15.3803 12.9214 15.2427 12.8949 15.1074 12.8588C15.103 12.8778 15.1 12.8972 15.0984 12.9167C15.093 12.8952 15.0886 12.87 15.0841 12.8485C14.9491 12.8107 14.8174 12.7614 14.6903 12.701C14.6827 12.7198 14.6764 12.7392 14.6715 12.7589C14.6715 12.7374 14.6715 12.716 14.6661 12.6908C14.5396 12.6254 14.4159 12.5573 14.2993 12.4826C14.2903 12.4966 14.2822 12.5143 14.2732 12.5321L14.2786 12.4676C14.1622 12.3868 14.0519 12.2969 13.9486 12.1988C13.9343 12.2131 13.9225 12.2299 13.9136 12.2482C13.9199 12.224 13.927 12.2016 13.9306 12.1838C13.8289 12.0834 13.7331 11.9768 13.6436 11.8646C13.6301 11.8786 13.6158 11.8898 13.6014 11.9075C13.6119 11.8856 13.6206 11.8628 13.6275 11.8393C13.5415 11.7266 13.4633 11.6078 13.3934 11.4837L13.3458 11.5163C13.3593 11.5014 13.37 11.4762 13.3817 11.4622C13.3134 11.3349 13.2535 11.203 13.2023 11.0673C13.1836 11.074 13.166 11.0837 13.1503 11.0962C13.1634 11.0772 13.1778 11.0591 13.1933 11.0421C13.1441 10.9054 13.1051 10.7649 13.0767 10.622C13.0591 10.6298 13.0408 10.6358 13.022 10.6397C13.0401 10.6255 13.0572 10.6099 13.0732 10.593C13.0458 10.452 13.0281 10.3091 13.0202 10.1655C13.0003 10.1664 12.9806 10.1689 12.961 10.1729C12.981 10.1623 13.0002 10.1501 13.0184 10.1365C13.0184 10.0973 13.0184 10.0581 13.0184 10.0152C13.0185 9.91192 13.0242 9.80875 13.0355 9.70616C13.0156 9.70242 12.9953 9.70242 12.9754 9.70616C12.9978 9.69496 13.0184 9.68842 13.0391 9.67722C13.0533 9.53148 13.0791 9.38721 13.1162 9.24591C13.0983 9.24591 13.0794 9.24592 13.0597 9.23938C13.0807 9.23639 13.1014 9.23139 13.1216 9.22444C13.1603 9.08511 13.2076 8.94852 13.2633 8.81554C13.2467 8.80514 13.2285 8.79787 13.2095 8.79407C13.2318 8.79358 13.254 8.79108 13.2759 8.7866C13.3337 8.65666 13.4015 8.53178 13.4786 8.41318C13.4623 8.40153 13.4449 8.39182 13.4265 8.38424C13.449 8.38424 13.4705 8.38424 13.4911 8.38424C13.5704 8.26403 13.6567 8.14899 13.7494 8.03975C13.7351 8.03229 13.7189 8.01828 13.7019 8.00708C13.7238 8.01144 13.7454 8.01737 13.7665 8.02482C13.8593 7.91655 13.9611 7.8169 14.0705 7.72701C14.0601 7.70961 14.046 7.69492 14.0293 7.68407C14.0506 7.69052 14.0713 7.69895 14.0912 7.70927C14.2 7.61898 14.3151 7.53722 14.4356 7.46468C14.4262 7.44697 14.4154 7.4301 14.4033 7.41427C14.4208 7.42751 14.4391 7.43967 14.458 7.45068C14.5794 7.37788 14.7063 7.31544 14.8374 7.26396C14.8301 7.24405 14.8214 7.22471 14.8114 7.20608C14.826 7.22364 14.8426 7.23931 14.8607 7.25276C14.9916 7.20091 15.1263 7.16001 15.2635 7.13046C15.2581 7.11273 15.2536 7.09499 15.2455 7.07352C15.2581 7.09125 15.2742 7.10899 15.2886 7.12673C15.4252 7.09621 15.5642 7.07841 15.7038 7.07352C15.7017 7.0528 15.6984 7.03223 15.694 7.0119C15.7045 7.03213 15.7165 7.05148 15.7299 7.06978H15.8474C15.9472 7.0686 16.047 7.07453 16.146 7.08752C16.1478 7.06609 16.1478 7.04454 16.146 7.0231C16.155 7.04831 16.1622 7.06605 16.1711 7.08752C16.3099 7.10425 16.4475 7.13076 16.5828 7.16687C16.588 7.14797 16.5913 7.12858 16.5927 7.10899C16.5965 7.13077 16.6016 7.15228 16.6079 7.17341C16.7414 7.21641 16.8726 7.2669 17.0008 7.32465C17.008 7.3057 17.0143 7.28638 17.0196 7.26676C17.0196 7.28991 17.0214 7.31301 17.025 7.33585C17.1507 7.39687 17.2723 7.46641 17.3892 7.54403C17.4003 7.52825 17.4099 7.51136 17.4179 7.49362C17.414 7.51612 17.4119 7.53891 17.4116 7.56177C17.5254 7.64592 17.6345 7.73695 17.7381 7.83437C17.7521 7.81924 17.7641 7.8023 17.774 7.78396C17.7667 7.80737 17.7616 7.83144 17.7587 7.85584C17.8612 7.95346 17.9566 8.05894 18.0439 8.17139C18.0574 8.15365 18.0717 8.14245 18.0861 8.12471C18.0771 8.14991 18.0672 8.17139 18.0601 8.18912C18.1476 8.30347 18.2262 8.4249 18.2951 8.55228C18.3094 8.53827 18.3274 8.53081 18.3426 8.5168C18.33 8.53454 18.3175 8.55601 18.3067 8.57375C18.3778 8.69949 18.4379 8.83166 18.4861 8.96865C18.5046 8.96085 18.5224 8.95116 18.539 8.93971C18.5247 8.95838 18.5085 8.97238 18.4951 8.99012C18.544 9.12699 18.5833 9.2674 18.6126 9.41022C18.6326 9.40611 18.652 9.39887 18.67 9.38875L18.6171 9.43543C18.6448 9.57891 18.6625 9.72431 18.67 9.87047L18.7274 9.85926C18.7068 9.87047 18.6879 9.88447 18.6709 9.89567C18.6709 9.93488 18.6709 9.97783 18.6709 10.018C18.6716 10.1221 18.6665 10.2262 18.6556 10.3298C18.675 10.3317 18.6945 10.3317 18.7139 10.3298C18.6934 10.3352 18.6733 10.3424 18.6538 10.3513" fill="#F9F02A"/>
<path d="M15.5714 8.32643C15.1677 8.15033 14.7369 8.05165 14.2995 8.03516C14.2654 8.07157 14.2296 8.10331 14.1973 8.13972C14.6133 8.15821 15.0229 8.25302 15.4072 8.41979C15.461 8.38711 15.514 8.35444 15.5714 8.32643Z" fill="#F9F02A"/>
<path d="M17.2002 7.87367C16.8082 7.57291 16.3341 7.41064 15.8472 7.41064C15.3602 7.41064 14.8861 7.57291 14.4941 7.87367C14.9602 7.89275 15.4191 7.99966 15.8485 8.18922C16.2769 7.99955 16.735 7.89263 17.2002 7.87367Z" fill="#F9F02A"/>
<path d="M15.186 8.56357C14.8302 8.40791 14.4518 8.31545 14.0666 8.29004C14.0406 8.32271 14.0164 8.35445 13.9922 8.3834C14.358 8.4169 14.7163 8.51146 15.0533 8.66346C15.0963 8.63172 15.1429 8.59905 15.186 8.56357Z" fill="#F9F02A"/>
<path d="M16.1658 9.2207C16.12 9.25618 16.0761 9.29539 16.0312 9.33553C16.3638 9.66229 16.6303 10.0549 16.8152 10.4903C17 10.9257 17.0994 11.3951 17.1076 11.8711C17.1796 11.8234 17.2483 11.7704 17.313 11.7124C17.2584 10.757 16.8455 9.86219 16.1631 9.2207" fill="#F9F02A"/>
<path d="M16.282 8.41979C16.6664 8.25341 17.076 8.15861 17.4919 8.13972C17.4587 8.10331 17.4238 8.07157 17.3879 8.03516C16.9535 8.05201 16.5256 8.1507 16.125 8.32643C16.1797 8.35444 16.2335 8.38711 16.2864 8.41979" fill="#F9F02A"/>
<path d="M16.5503 8.95117C16.4951 8.98377 16.4418 9.01962 16.3906 9.05853C17.0565 9.66019 17.4909 10.4921 17.614 11.4008C17.6804 11.3198 17.7404 11.2333 17.7934 11.1422C17.6232 10.2887 17.1856 9.51807 16.5494 8.95117" fill="#F9F02A"/>
<path d="M14.8734 8.81083C14.5642 8.66568 14.2353 8.57121 13.8984 8.53076C13.7079 8.84594 13.5885 9.20202 13.5494 9.57218C13.5102 9.94233 13.5523 10.3169 13.6724 10.6677C13.8996 9.9448 14.3154 9.30189 14.8734 8.81083Z" fill="#F9F02A"/>
<path d="M16.6338 8.66346C16.971 8.51135 17.3296 8.41678 17.6958 8.3834C17.6716 8.35072 17.6464 8.31898 17.6213 8.29004C17.2361 8.31524 16.8577 8.4077 16.502 8.56357C16.5468 8.59905 16.5916 8.63172 16.6338 8.66346Z" fill="#F9F02A"/>
<path d="M14.8864 11.9458C14.8864 11.9822 14.8864 12.0177 14.8864 12.0541C15.186 12.1962 15.5115 12.2697 15.8407 12.2697C16.17 12.2697 16.4954 12.1962 16.7951 12.0541C16.7951 12.0177 16.7951 11.9822 16.7951 11.9458C16.7953 11.0377 16.4526 10.1659 15.8407 9.51855C15.2265 10.1646 14.8823 11.0369 14.8828 11.9458" fill="#F9F02A"/>
<path d="M15.8438 8.45898C15.7882 8.49166 15.7317 8.51967 15.6797 8.55234C15.7335 8.58502 15.7882 8.61302 15.8438 8.6457C15.8976 8.61302 15.9533 8.58502 16.008 8.55234C15.9541 8.51967 15.8985 8.49166 15.8438 8.45898Z" fill="#F9F02A"/>
<path d="M16.8145 8.81083C17.3727 9.30163 17.7886 9.94462 18.0154 10.6677C18.1356 10.3169 18.1776 9.94233 18.1385 9.57218C18.0993 9.20202 17.98 8.84594 17.7894 8.53076C17.4525 8.57121 17.1236 8.66568 16.8145 8.81083Z" fill="#F9F02A"/>
<path d="M15.6573 9.33553C15.6115 9.29539 15.5676 9.25618 15.5219 9.2207C14.8392 9.8621 14.426 10.7569 14.3711 11.7124C14.4361 11.77 14.5047 11.823 14.5765 11.8711C14.5851 11.3948 14.6852 10.9251 14.8708 10.4897C15.0564 10.0542 15.3238 9.66183 15.6573 9.33553Z" fill="#F9F02A"/>
<path d="M15.707 9.05556C15.7537 9.09103 15.7967 9.12744 15.8434 9.16292L15.9788 9.05556C15.9358 9.01669 15.8905 8.98053 15.8434 8.94727C15.7957 8.98029 15.7502 9.01646 15.707 9.05556Z" fill="#F9F02A"/>
<path d="M15.3 9.05853C15.2462 9.01932 15.1933 8.98385 15.1404 8.95117C14.5039 9.5182 14.0658 10.2887 13.8945 11.1422C13.9484 11.2327 14.0084 11.3191 14.0739 11.4008C14.1985 10.4921 14.6334 9.66059 15.2991 9.05853" fill="#F9F02A"/>
<path d="M16.0664 8.7968C16.1148 8.82854 16.1561 8.86495 16.2027 8.90042C16.2554 8.86356 16.3102 8.8302 16.3669 8.80053C16.322 8.76412 16.2772 8.73145 16.2323 8.69971C16.1753 8.72743 16.1199 8.75861 16.0664 8.79306" fill="#F9F02A"/>
<path d="M15.3203 8.8007C15.3763 8.83059 15.4305 8.86395 15.4827 8.9006C15.5293 8.86512 15.5723 8.82871 15.6181 8.79697C15.5654 8.76214 15.5106 8.73096 15.454 8.70361C15.41 8.73535 15.3643 8.76803 15.3203 8.80444" fill="#F9F02A"/>
</svg>
