<svg width="146" height="44" viewBox="0 0 146 44" fill="none" xmlns="http://www.w3.org/2000/svg">
<rect width="146" height="44" rx="22" fill="#F2F2F9"/>
<path d="M36 17L30 22L36 27" stroke="#3C3756" stroke-width="2" stroke-linecap="round" stroke-linejoin="round"/>
<path d="M30 22L42 22" stroke="#3C3756" stroke-width="2" stroke-linecap="round" stroke-linejoin="round"/>
<path d="M59.2 29C59.0667 29 58.9533 28.96 58.86 28.88C58.78 28.7867 58.74 28.6733 58.74 28.54V15.48C58.74 15.3333 58.78 15.22 58.86 15.14C58.9533 15.0467 59.0667 15 59.2 15H60.22C60.3667 15 60.48 15.0467 60.56 15.14C60.6533 15.22 60.7 15.3333 60.7 15.48V21H67.58V15.48C67.58 15.3333 67.62 15.22 67.7 15.14C67.7933 15.0467 67.9067 15 68.04 15H69.06C69.2067 15 69.32 15.0467 69.4 15.14C69.4933 15.22 69.54 15.3333 69.54 15.48V28.54C69.54 28.6733 69.4933 28.7867 69.4 28.88C69.3067 28.96 69.1933 29 69.06 29H68.04C67.9067 29 67.7933 28.96 67.7 28.88C67.62 28.7867 67.58 28.6733 67.58 28.54V22.8H60.7V28.54C60.7 28.6733 60.6533 28.7867 60.56 28.88C60.4667 28.96 60.3533 29 60.22 29H59.2ZM75.6573 29.2C75.004 29.2 74.3973 29.0667 73.8373 28.8C73.2773 28.5333 72.8307 28.1733 72.4973 27.72C72.1773 27.2533 72.0173 26.74 72.0173 26.18C72.0173 25.3 72.3773 24.58 73.0973 24.02C73.8307 23.4467 74.8173 23.0733 76.0573 22.9L79.0373 22.48V21.9C79.0373 20.54 78.2573 19.86 76.6973 19.86C76.1107 19.86 75.6307 19.9867 75.2573 20.24C74.884 20.48 74.604 20.7667 74.4173 21.1C74.3773 21.22 74.324 21.3067 74.2573 21.36C74.204 21.4133 74.124 21.44 74.0173 21.44H73.1573C73.0373 21.44 72.9307 21.4 72.8373 21.32C72.7573 21.2267 72.7173 21.12 72.7173 21C72.7307 20.68 72.8773 20.32 73.1573 19.92C73.4507 19.5067 73.8973 19.1533 74.4973 18.86C75.0973 18.5533 75.8373 18.4 76.7173 18.4C78.2107 18.4 79.284 18.7533 79.9373 19.46C80.5907 20.1533 80.9173 21.02 80.9173 22.06V28.54C80.9173 28.6733 80.8707 28.7867 80.7773 28.88C80.6973 28.96 80.5907 29 80.4573 29H79.5373C79.404 29 79.2907 28.96 79.1973 28.88C79.1173 28.7867 79.0773 28.6733 79.0773 28.54V27.68C78.784 28.1067 78.3573 28.4667 77.7973 28.76C77.2373 29.0533 76.524 29.2 75.6573 29.2ZM76.0773 27.7C76.944 27.7 77.6507 27.42 78.1973 26.86C78.7573 26.2867 79.0373 25.4667 79.0373 24.4V23.84L76.7173 24.18C75.7707 24.3133 75.0573 24.54 74.5773 24.86C74.0973 25.1667 73.8573 25.56 73.8573 26.04C73.8573 26.5733 74.0773 26.9867 74.5173 27.28C74.9573 27.56 75.4773 27.7 76.0773 27.7ZM87.4125 29.2C86.4392 29.2 85.6325 29.0467 84.9925 28.74C84.3658 28.4333 83.9058 28.06 83.6125 27.62C83.3325 27.18 83.1858 26.7467 83.1725 26.32V26.28C83.1725 26.1733 83.2125 26.0867 83.2925 26.02C83.3725 25.9533 83.4658 25.92 83.5725 25.92H84.5125C84.7525 25.92 84.9125 26.0467 84.9925 26.3C85.1392 26.8067 85.4258 27.1667 85.8525 27.38C86.2925 27.58 86.8658 27.68 87.5725 27.68C88.2525 27.68 88.8125 27.54 89.2525 27.26C89.6925 26.98 89.9125 26.5667 89.9125 26.02C89.9125 25.46 89.7525 25.0467 89.4325 24.78C89.1258 24.5 88.6458 24.36 87.9925 24.36H86.8925C86.7725 24.36 86.6725 24.32 86.5925 24.24C86.5125 24.16 86.4725 24.0533 86.4725 23.92V23.38C86.4725 23.2467 86.5125 23.14 86.5925 23.06C86.6725 22.98 86.7725 22.94 86.8925 22.94H87.8725C89.0058 22.94 89.5725 22.4933 89.5725 21.6C89.5725 21.12 89.3992 20.72 89.0525 20.4C88.7192 20.08 88.1725 19.92 87.4125 19.92C86.6792 19.92 86.1458 20.0467 85.8125 20.3C85.4925 20.54 85.2592 20.9267 85.1125 21.46C85.0592 21.5933 84.9925 21.6933 84.9125 21.76C84.8458 21.8133 84.7458 21.84 84.6125 21.84H83.7125C83.5925 21.84 83.4925 21.8067 83.4125 21.74C83.3325 21.66 83.2925 21.5667 83.2925 21.46C83.3058 20.9133 83.4658 20.4067 83.7725 19.94C84.0792 19.4733 84.5392 19.1 85.1525 18.82C85.7658 18.54 86.5192 18.4 87.4125 18.4C88.3458 18.4 89.1125 18.5467 89.7125 18.84C90.3125 19.1333 90.7458 19.5 91.0125 19.94C91.2792 20.38 91.4125 20.84 91.4125 21.32C91.4125 21.8667 91.3192 22.3133 91.1325 22.66C90.9592 22.9933 90.6392 23.2733 90.1725 23.5C90.7458 23.7133 91.1525 24.0467 91.3925 24.5C91.6458 24.9533 91.7725 25.5067 91.7725 26.16C91.7725 27.1333 91.3725 27.8867 90.5725 28.42C89.7725 28.94 88.7192 29.2 87.4125 29.2ZM96.9269 29.2C96.2735 29.2 95.6669 29.0667 95.1069 28.8C94.5469 28.5333 94.1002 28.1733 93.7669 27.72C93.4469 27.2533 93.2869 26.74 93.2869 26.18C93.2869 25.3 93.6469 24.58 94.3669 24.02C95.1002 23.4467 96.0869 23.0733 97.3269 22.9L100.307 22.48V21.9C100.307 20.54 99.5269 19.86 97.9669 19.86C97.3802 19.86 96.9002 19.9867 96.5269 20.24C96.1535 20.48 95.8735 20.7667 95.6869 21.1C95.6469 21.22 95.5935 21.3067 95.5269 21.36C95.4735 21.4133 95.3935 21.44 95.2869 21.44H94.4269C94.3069 21.44 94.2002 21.4 94.1069 21.32C94.0269 21.2267 93.9869 21.12 93.9869 21C94.0002 20.68 94.1469 20.32 94.4269 19.92C94.7202 19.5067 95.1669 19.1533 95.7669 18.86C96.3669 18.5533 97.1069 18.4 97.9869 18.4C99.4802 18.4 100.554 18.7533 101.207 19.46C101.86 20.1533 102.187 21.02 102.187 22.06V28.54C102.187 28.6733 102.14 28.7867 102.047 28.88C101.967 28.96 101.86 29 101.727 29H100.807C100.674 29 100.56 28.96 100.467 28.88C100.387 28.7867 100.347 28.6733 100.347 28.54V27.68C100.054 28.1067 99.6269 28.4667 99.0669 28.76C98.5069 29.0533 97.7935 29.2 96.9269 29.2ZM97.3469 27.7C98.2135 27.7 98.9202 27.42 99.4669 26.86C100.027 26.2867 100.307 25.4667 100.307 24.4V23.84L97.9869 24.18C97.0402 24.3133 96.3269 24.54 95.8469 24.86C95.3669 25.1667 95.1269 25.56 95.1269 26.04C95.1269 26.5733 95.3469 26.9867 95.7869 27.28C96.2269 27.56 96.7469 27.7 97.3469 27.7ZM104.462 31.2C104.329 31.2 104.215 31.1533 104.122 31.06C104.042 30.98 104.002 30.8733 104.002 30.74V27.86C104.002 27.7267 104.042 27.62 104.122 27.54C104.215 27.4467 104.329 27.4 104.462 27.4H104.562C105.122 27.3867 105.542 26.92 105.822 26C106.115 25.08 106.262 23.62 106.262 21.62V19.06C106.262 18.9267 106.302 18.82 106.382 18.74C106.475 18.6467 106.589 18.6 106.722 18.6H113.102C113.235 18.6 113.342 18.6467 113.422 18.74C113.515 18.82 113.562 18.9267 113.562 19.06V27.36H114.502C114.635 27.36 114.742 27.4067 114.822 27.5C114.915 27.58 114.962 27.6867 114.962 27.82V30.74C114.962 30.8733 114.915 30.98 114.822 31.06C114.742 31.1533 114.635 31.2 114.502 31.2H113.562C113.429 31.2 113.315 31.1533 113.222 31.06C113.142 30.98 113.102 30.8733 113.102 30.74V29H105.862V30.74C105.862 30.8733 105.815 30.98 105.722 31.06C105.642 31.1533 105.535 31.2 105.402 31.2H104.462ZM111.702 27.36V20.2H108.082V21.84C108.082 24.5067 107.702 26.36 106.942 27.4L111.702 27.36Z" fill="#3C3756"/>
</svg>
