<svg width="44" height="33" viewBox="0 0 44 33" fill="none" xmlns="http://www.w3.org/2000/svg">
<path d="M28.9278 2.80194V2H15.0424V2.80194C15.0424 3.7112 14.685 4.58324 14.0489 5.22618C13.4128 5.86913 12.55 6.23034 11.6504 6.23034H2V31.0909H42V6.23034H32.3397C31.8926 6.23298 31.4494 6.14625 31.0356 5.97514C30.6217 5.80403 30.2454 5.5519 29.9284 5.23328C29.6113 4.91467 29.3596 4.53583 29.1879 4.11857C29.0162 3.70131 28.9278 3.25385 28.9278 2.80194V2.80194Z" stroke="#9795A5" stroke-width="2.5" stroke-linecap="round" stroke-linejoin="round"/>
<path d="M21.9758 24.6653C25.8759 24.6653 29.0375 21.4698 29.0375 17.5279C29.0375 13.586 25.8759 10.3905 21.9758 10.3905C18.0757 10.3905 14.9141 13.586 14.9141 17.5279C14.9141 21.4698 18.0757 24.6653 21.9758 24.6653Z" fill="#9795A5" stroke="#9795A5" stroke-width="2.5" stroke-linecap="round" stroke-linejoin="round"/>
<path d="M25.834 17.6819H18.1886" stroke="white" stroke-width="2" stroke-linecap="round" stroke-linejoin="round"/>
<path d="M22.0117 21.5455L22.0117 13.8183" stroke="white" stroke-width="2" stroke-linecap="round" stroke-linejoin="round"/>
</svg>
