<svg width="187" height="40" viewBox="0 0 187 40" fill="none" xmlns="http://www.w3.org/2000/svg">
<path d="M27.16 19.176C27.8107 19.3573 28.312 19.688 28.664 20.168C29.0267 20.648 29.208 21.2347 29.208 21.928C29.208 22.888 28.8613 23.64 28.168 24.184C27.4853 24.728 26.5413 25 25.336 25H21.208C20.8987 25 20.6533 24.9147 20.472 24.744C20.3013 24.5733 20.216 24.3333 20.216 24.024V14.696C20.216 14.3867 20.3013 14.1467 20.472 13.976C20.6533 13.8053 20.8987 13.72 21.208 13.72H25.176C26.3493 13.72 27.2667 13.9813 27.928 14.504C28.6 15.016 28.936 15.736 28.936 16.664C28.936 17.2613 28.776 17.7787 28.456 18.216C28.1467 18.6533 27.7147 18.9733 27.16 19.176ZM22.232 18.472H24.84C26.2587 18.472 26.968 17.944 26.968 16.888C26.968 16.3547 26.792 15.96 26.44 15.704C26.088 15.448 25.5547 15.32 24.84 15.32H22.232V18.472ZM25.112 23.4C25.8587 23.4 26.4027 23.2667 26.744 23C27.0853 22.7333 27.256 22.3173 27.256 21.752C27.256 21.1867 27.08 20.7653 26.728 20.488C26.3867 20.2107 25.848 20.072 25.112 20.072H22.232V23.4H25.112ZM37.1539 22.856C37.3352 22.856 37.4792 22.9253 37.5859 23.064C37.7032 23.2027 37.7619 23.3893 37.7619 23.624C37.7619 23.9547 37.5645 24.232 37.1699 24.456C36.8072 24.6587 36.3965 24.824 35.9379 24.952C35.4792 25.0693 35.0419 25.128 34.6259 25.128C33.3672 25.128 32.3699 24.7653 31.6339 24.04C30.8979 23.3147 30.5299 22.3227 30.5299 21.064C30.5299 20.264 30.6899 19.5547 31.0099 18.936C31.3299 18.3173 31.7779 17.8373 32.3539 17.496C32.9405 17.1547 33.6019 16.984 34.3379 16.984C35.0419 16.984 35.6552 17.1387 36.1779 17.448C36.7005 17.7573 37.1059 18.1947 37.3939 18.76C37.6819 19.3253 37.8259 19.992 37.8259 20.76C37.8259 21.2187 37.6232 21.448 37.2179 21.448H32.4979C32.5619 22.184 32.7699 22.728 33.1219 23.08C33.4739 23.4213 33.9859 23.592 34.6579 23.592C34.9992 23.592 35.2979 23.5493 35.5539 23.464C35.8205 23.3787 36.1192 23.2613 36.4499 23.112C36.7699 22.9413 37.0045 22.856 37.1539 22.856ZM34.3859 18.392C33.8419 18.392 33.4045 18.5627 33.0739 18.904C32.7539 19.2453 32.5619 19.736 32.4979 20.376H36.1139C36.0925 19.7253 35.9325 19.2347 35.6339 18.904C35.3352 18.5627 34.9192 18.392 34.3859 18.392ZM40.4539 25.096C40.1659 25.096 39.9259 25.016 39.7339 24.856C39.5525 24.6853 39.4619 24.4453 39.4619 24.136V14.584C39.4619 14.2747 39.5525 14.04 39.7339 13.88C39.9259 13.72 40.1659 13.64 40.4539 13.64C40.7419 13.64 40.9819 13.72 41.1739 13.88C41.3659 14.04 41.4619 14.2747 41.4619 14.584V24.136C41.4619 24.4453 41.3659 24.6853 41.1739 24.856C40.9819 25.016 40.7419 25.096 40.4539 25.096ZM44.5164 25.096C44.2284 25.096 43.9884 25.016 43.7964 24.856C43.615 24.6853 43.5244 24.4453 43.5244 24.136V14.584C43.5244 14.2747 43.615 14.04 43.7964 13.88C43.9884 13.72 44.2284 13.64 44.5164 13.64C44.8044 13.64 45.0444 13.72 45.2364 13.88C45.4284 14.04 45.5244 14.2747 45.5244 14.584V24.136C45.5244 24.4453 45.4284 24.6853 45.2364 24.856C45.0444 25.016 44.8044 25.096 44.5164 25.096ZM50.9789 16.984C52.0669 16.984 52.8722 17.256 53.3949 17.8C53.9282 18.3333 54.1949 19.1493 54.1949 20.248V24.152C54.1949 24.44 54.1095 24.6693 53.9389 24.84C53.7682 25 53.5335 25.08 53.2349 25.08C52.9575 25.08 52.7282 24.9947 52.5469 24.824C52.3762 24.6533 52.2909 24.4293 52.2909 24.152V23.8C52.1095 24.216 51.8215 24.5413 51.4269 24.776C51.0429 25.0107 50.5949 25.128 50.0829 25.128C49.5602 25.128 49.0855 25.0213 48.6589 24.808C48.2322 24.5947 47.8962 24.3013 47.6509 23.928C47.4055 23.5547 47.2829 23.1387 47.2829 22.68C47.2829 22.104 47.4269 21.6507 47.7149 21.32C48.0135 20.9893 48.4935 20.7493 49.1549 20.6C49.8162 20.4507 50.7282 20.376 51.8909 20.376H52.2909V20.008C52.2909 19.4853 52.1789 19.1067 51.9549 18.872C51.7309 18.6267 51.3682 18.504 50.8669 18.504C50.5575 18.504 50.2429 18.552 49.9229 18.648C49.6029 18.7333 49.2242 18.8613 48.7869 19.032C48.5095 19.1707 48.3069 19.24 48.1789 19.24C47.9869 19.24 47.8269 19.1707 47.6989 19.032C47.5815 18.8933 47.5229 18.712 47.5229 18.488C47.5229 18.3067 47.5655 18.152 47.6509 18.024C47.7469 17.8853 47.9015 17.7573 48.1149 17.64C48.4882 17.4373 48.9309 17.2773 49.4429 17.16C49.9655 17.0427 50.4775 16.984 50.9789 16.984ZM50.4829 23.688C51.0162 23.688 51.4482 23.512 51.7789 23.16C52.1202 22.7973 52.2909 22.3333 52.2909 21.768V21.432H52.0029C51.2882 21.432 50.7335 21.464 50.3389 21.528C49.9442 21.592 49.6615 21.704 49.4909 21.864C49.3202 22.024 49.2349 22.2427 49.2349 22.52C49.2349 22.8613 49.3522 23.144 49.5869 23.368C49.8322 23.5813 50.1309 23.688 50.4829 23.688ZM62.8515 17.016C63.1502 17.016 63.3902 17.1013 63.5715 17.272C63.7528 17.4427 63.8435 17.672 63.8435 17.96V24.28C63.8435 25.5067 63.5022 26.4347 62.8195 27.064C62.1368 27.6933 61.1288 28.008 59.7955 28.008C58.6328 28.008 57.6622 27.7893 56.8835 27.352C56.4888 27.1173 56.2915 26.8347 56.2915 26.504C56.2915 26.2693 56.3448 26.0827 56.4515 25.944C56.5688 25.8053 56.7182 25.736 56.8995 25.736C56.9955 25.736 57.1128 25.7573 57.2515 25.8C57.3902 25.8533 57.5342 25.912 57.6835 25.976C58.0675 26.136 58.4088 26.2587 58.7075 26.344C59.0168 26.4293 59.3688 26.472 59.7635 26.472C61.1608 26.472 61.8595 25.7893 61.8595 24.424V23.4C61.6248 23.8373 61.2835 24.1787 60.8355 24.424C60.3875 24.6587 59.8755 24.776 59.2995 24.776C58.6168 24.776 58.0088 24.616 57.4755 24.296C56.9528 23.9653 56.5422 23.5067 56.2435 22.92C55.9448 22.3333 55.7955 21.656 55.7955 20.888C55.7955 20.12 55.9395 19.4427 56.2275 18.856C56.5262 18.2587 56.9422 17.8 57.4755 17.48C58.0088 17.1493 58.6168 16.984 59.2995 16.984C59.8755 16.984 60.3875 17.1067 60.8355 17.352C61.2835 17.5867 61.6248 17.9227 61.8595 18.36V17.944C61.8595 17.6667 61.9502 17.4427 62.1315 17.272C62.3128 17.1013 62.5528 17.016 62.8515 17.016ZM59.8275 23.224C60.4675 23.224 60.9635 23.016 61.3155 22.6C61.6782 22.184 61.8595 21.6133 61.8595 20.888C61.8595 20.152 61.6782 19.576 61.3155 19.16C60.9635 18.744 60.4675 18.536 59.8275 18.536C59.1982 18.536 58.7022 18.744 58.3395 19.16C57.9768 19.576 57.7955 20.152 57.7955 20.888C57.7955 21.6133 57.9768 22.184 58.3395 22.6C58.7022 23.016 59.1982 23.224 59.8275 23.224ZM66.907 25.096C66.619 25.096 66.379 25.016 66.187 24.856C66.0057 24.6853 65.915 24.4453 65.915 24.136V17.96C65.915 17.6507 66.0057 17.416 66.187 17.256C66.379 17.096 66.619 17.016 66.907 17.016C67.195 17.016 67.435 17.096 67.627 17.256C67.819 17.416 67.915 17.6507 67.915 17.96V24.136C67.915 24.4453 67.819 24.6853 67.627 24.856C67.435 25.016 67.195 25.096 66.907 25.096ZM66.907 15.592C66.5443 15.592 66.2563 15.496 66.043 15.304C65.8297 15.1013 65.723 14.84 65.723 14.52C65.723 14.2 65.8297 13.944 66.043 13.752C66.2563 13.56 66.5443 13.464 66.907 13.464C67.259 13.464 67.5417 13.56 67.755 13.752C67.979 13.944 68.091 14.2 68.091 14.52C68.091 14.84 67.9843 15.1013 67.771 15.304C67.5577 15.496 67.2697 15.592 66.907 15.592ZM73.5455 25.128C72.7455 25.128 72.0415 24.9627 71.4335 24.632C70.8362 24.3013 70.3722 23.8267 70.0415 23.208C69.7108 22.5893 69.5455 21.8693 69.5455 21.048C69.5455 20.2267 69.7108 19.512 70.0415 18.904C70.3722 18.2853 70.8362 17.8107 71.4335 17.48C72.0415 17.1493 72.7455 16.984 73.5455 16.984C74.3455 16.984 75.0442 17.1493 75.6415 17.48C76.2495 17.8107 76.7135 18.2853 77.0335 18.904C77.3642 19.512 77.5295 20.2267 77.5295 21.048C77.5295 21.8693 77.3642 22.5893 77.0335 23.208C76.7135 23.8267 76.2495 24.3013 75.6415 24.632C75.0442 24.9627 74.3455 25.128 73.5455 25.128ZM73.5295 23.576C74.1802 23.576 74.6762 23.3627 75.0175 22.936C75.3588 22.5093 75.5295 21.88 75.5295 21.048C75.5295 20.2267 75.3588 19.6027 75.0175 19.176C74.6762 18.7387 74.1855 18.52 73.5455 18.52C72.9055 18.52 72.4095 18.7387 72.0575 19.176C71.7162 19.6027 71.5455 20.2267 71.5455 21.048C71.5455 21.88 71.7162 22.5093 72.0575 22.936C72.3988 23.3627 72.8895 23.576 73.5295 23.576Z" fill="#3C3756"/>
<rect width="187" height="40" rx="20" fill="white"/>
<path d="M163.397 24.5L167.5 18L159 18L163.397 24.5Z" fill="#3C3756" stroke="#3C3756" stroke-linecap="round" stroke-linejoin="round"/>
<path d="M20.296 27.688C20.008 27.688 19.7787 27.592 19.608 27.4C19.4373 27.2187 19.352 26.9733 19.352 26.664V24.328C19.352 24.0187 19.432 23.7787 19.592 23.608C19.7627 23.4373 20.0027 23.352 20.312 23.352H20.808C21.2987 22.4027 21.6293 21.32 21.8 20.104C21.9707 18.888 22.056 17.512 22.056 15.976V14.696C22.056 14.3867 22.136 14.1467 22.296 13.976C22.4667 13.8053 22.7067 13.72 23.016 13.72H28.872C29.1813 13.72 29.4213 13.8053 29.592 13.976C29.7627 14.1467 29.848 14.3867 29.848 14.696V23.352H30.472C30.7813 23.352 31.0213 23.4373 31.192 23.608C31.3627 23.7787 31.448 24.0187 31.448 24.328V26.664C31.448 26.9733 31.3573 27.2187 31.176 27.4C31.0053 27.592 30.776 27.688 30.488 27.688C30.2 27.688 29.9653 27.592 29.784 27.4C29.6133 27.2187 29.528 26.9733 29.528 26.664V25H21.256V26.664C21.256 26.9733 21.1653 27.2187 20.984 27.4C20.8133 27.592 20.584 27.688 20.296 27.688ZM27.832 15.352H23.864V15.88C23.864 17.5547 23.768 18.9893 23.576 20.184C23.384 21.368 23.064 22.4293 22.616 23.368H27.832V15.352ZM36.2914 16.984C37.3794 16.984 38.1847 17.256 38.7074 17.8C39.2407 18.3333 39.5074 19.1493 39.5074 20.248V24.152C39.5074 24.44 39.422 24.6693 39.2514 24.84C39.0807 25 38.846 25.08 38.5474 25.08C38.27 25.08 38.0407 24.9947 37.8594 24.824C37.6887 24.6533 37.6034 24.4293 37.6034 24.152V23.8C37.422 24.216 37.134 24.5413 36.7394 24.776C36.3554 25.0107 35.9074 25.128 35.3954 25.128C34.8727 25.128 34.398 25.0213 33.9714 24.808C33.5447 24.5947 33.2087 24.3013 32.9634 23.928C32.718 23.5547 32.5954 23.1387 32.5954 22.68C32.5954 22.104 32.7394 21.6507 33.0274 21.32C33.326 20.9893 33.806 20.7493 34.4674 20.6C35.1287 20.4507 36.0407 20.376 37.2034 20.376H37.6034V20.008C37.6034 19.4853 37.4914 19.1067 37.2674 18.872C37.0434 18.6267 36.6807 18.504 36.1794 18.504C35.87 18.504 35.5554 18.552 35.2354 18.648C34.9154 18.7333 34.5367 18.8613 34.0994 19.032C33.822 19.1707 33.6194 19.24 33.4914 19.24C33.2994 19.24 33.1394 19.1707 33.0114 19.032C32.894 18.8933 32.8354 18.712 32.8354 18.488C32.8354 18.3067 32.878 18.152 32.9634 18.024C33.0594 17.8853 33.214 17.7573 33.4274 17.64C33.8007 17.4373 34.2434 17.2773 34.7554 17.16C35.278 17.0427 35.79 16.984 36.2914 16.984ZM35.7954 23.688C36.3287 23.688 36.7607 23.512 37.0914 23.16C37.4327 22.7973 37.6034 22.3333 37.6034 21.768V21.432H37.3154C36.6007 21.432 36.046 21.464 35.6514 21.528C35.2567 21.592 34.974 21.704 34.8034 21.864C34.6327 22.024 34.5474 22.2427 34.5474 22.52C34.5474 22.8613 34.6647 23.144 34.8994 23.368C35.1447 23.5813 35.4434 23.688 35.7954 23.688ZM44.324 25.096C44.0147 25.096 43.7693 25.0107 43.588 24.84C43.4067 24.6693 43.316 24.44 43.316 24.152V18.68H41.476C41.2413 18.68 41.0493 18.6107 40.9 18.472C40.7613 18.3333 40.692 18.152 40.692 17.928C40.692 17.704 40.7613 17.5227 40.9 17.384C41.0493 17.2453 41.2413 17.176 41.476 17.176H47.156C47.3907 17.176 47.5773 17.2453 47.716 17.384C47.8653 17.5227 47.94 17.704 47.94 17.928C47.94 18.152 47.8653 18.3333 47.716 18.472C47.5773 18.6107 47.3907 18.68 47.156 18.68H45.316V24.152C45.316 24.44 45.2253 24.6693 45.044 24.84C44.8627 25.0107 44.6227 25.096 44.324 25.096ZM55.2476 22.856C55.429 22.856 55.573 22.9253 55.6796 23.064C55.797 23.2027 55.8556 23.3893 55.8556 23.624C55.8556 23.9547 55.6583 24.232 55.2636 24.456C54.901 24.6587 54.4903 24.824 54.0316 24.952C53.573 25.0693 53.1356 25.128 52.7196 25.128C51.461 25.128 50.4636 24.7653 49.7276 24.04C48.9916 23.3147 48.6236 22.3227 48.6236 21.064C48.6236 20.264 48.7836 19.5547 49.1036 18.936C49.4236 18.3173 49.8716 17.8373 50.4476 17.496C51.0343 17.1547 51.6956 16.984 52.4316 16.984C53.1356 16.984 53.749 17.1387 54.2716 17.448C54.7943 17.7573 55.1996 18.1947 55.4876 18.76C55.7756 19.3253 55.9196 19.992 55.9196 20.76C55.9196 21.2187 55.717 21.448 55.3116 21.448H50.5916C50.6556 22.184 50.8636 22.728 51.2156 23.08C51.5676 23.4213 52.0796 23.592 52.7516 23.592C53.093 23.592 53.3916 23.5493 53.6476 23.464C53.9143 23.3787 54.213 23.2613 54.5436 23.112C54.8636 22.9413 55.0983 22.856 55.2476 22.856ZM52.4796 18.392C51.9356 18.392 51.4983 18.5627 51.1676 18.904C50.8476 19.2453 50.6556 19.736 50.5916 20.376H54.2076C54.1863 19.7253 54.0263 19.2347 53.7276 18.904C53.429 18.5627 53.013 18.392 52.4796 18.392Z" fill="#3C3756"/>
</svg>
