<svg width="291" height="718" viewBox="0 0 291 718" fill="none" xmlns="http://www.w3.org/2000/svg">
<path d="M32.8236 77.4708L2 96.7827V139.118H25.1701V115.665H40.4771V139.118H63.6472V96.7827L32.8236 77.4708Z" stroke="#343EED" stroke-width="4" stroke-linejoin="round"/>
<path d="M145.494 157.769L145.494 157.775C145.5 159.782 145.205 161.78 144.62 163.704C144.616 163.716 144.61 163.734 144.601 163.759C144.581 163.816 144.549 163.906 144.504 164.03C144.413 164.277 144.268 164.656 144.062 165.161C143.649 166.172 142.987 167.69 142.008 169.671C140.049 173.634 136.818 179.454 131.758 186.795C129.837 189.55 126.319 194.55 124.253 197.485C122.184 194.556 118.672 189.574 116.757 186.799L116.757 186.799C111.691 179.456 108.457 173.634 106.497 169.671C105.516 167.689 104.855 166.172 104.441 165.161C104.235 164.656 104.091 164.277 104 164.03C103.954 163.906 103.922 163.816 103.902 163.759C103.894 163.735 103.888 163.717 103.883 163.705C103.299 161.778 103.001 159.779 103 157.769C103.002 152.276 105.232 146.999 109.213 143.101C113.196 139.201 118.606 137.002 124.256 137C129.903 137.005 135.31 139.205 139.289 143.104C143.267 147.002 145.494 152.278 145.494 157.769Z" stroke="#343EED" stroke-width="4"/>
<ellipse cx="124.577" cy="158.084" rx="6.73633" ry="6.59536" fill="#343EED"/>
<path d="M2.03564 192.916H52.9247" stroke="#343EED" stroke-width="4" stroke-linecap="round"/>
<path d="M2.03564 212.707H52.9247" stroke="#343EED" stroke-width="4" stroke-linecap="round"/>
<path d="M2.03564 232.497H52.9247" stroke="#343EED" stroke-width="4" stroke-linecap="round"/>
<ellipse cx="15.5" cy="193" rx="6.5" ry="7" fill="#343EED"/>
<circle cx="15.5" cy="232.5" r="6.5" fill="#343EED"/>
<ellipse cx="42" cy="212.5" rx="6" ry="6.5" fill="#343EED"/>
<path d="M214.611 285.014V243.671L178.806 223L143 243.671V285.014L178.806 305.686L214.611 285.014Z" stroke="#343EED" stroke-width="4" stroke-linecap="round" stroke-linejoin="round"/>
<path d="M143 243.673L178.806 264.345V305.688" stroke="#343EED" stroke-width="4" stroke-linecap="round" stroke-linejoin="round"/>
<path d="M202.002 265.259L194.519 269.562V259.104C194.521 258.823 194.448 258.546 194.306 258.302C194.165 258.058 193.96 257.858 193.715 257.72L184.791 252.557L192.012 248.46L201.16 253.417C201.416 253.547 201.63 253.745 201.779 253.989C201.927 254.234 202.005 254.515 202.002 254.802V265.259Z" fill="#343EED"/>
<path d="M247.76 94.1811L208.51 141.84" stroke="#343EED" stroke-width="4" stroke-linecap="round" stroke-linejoin="round"/>
<path d="M244.158 143.451C249.048 143.451 253.011 139.397 253.011 134.397C253.011 129.396 249.048 125.343 244.158 125.343C239.269 125.343 235.305 129.396 235.305 134.397C235.305 139.397 239.269 143.451 244.158 143.451Z" stroke="#343EED" stroke-width="4" stroke-linecap="round" stroke-linejoin="round"/>
<path d="M212.132 111.826C217.021 111.826 220.985 107.772 220.985 102.771C220.985 97.7711 217.021 93.7175 212.132 93.7175C207.242 93.7175 203.279 97.7711 203.279 102.771C203.279 107.772 207.242 111.826 212.132 111.826Z" stroke="#343EED" stroke-width="4" stroke-linecap="round" stroke-linejoin="round"/>
<path d="M39.9563 297.368H89.9349L81.5174 336.783H30.2131L20.5751 290.718H2.03564" stroke="#343EED" stroke-width="4" stroke-linecap="round" stroke-linejoin="round"/>
<path d="M71.2279 363.572C75.8418 363.572 79.5822 359.831 79.5822 355.217C79.5822 350.603 75.8418 346.863 71.2279 346.863C66.6139 346.863 62.8735 350.603 62.8735 355.217C62.8735 359.831 66.6139 363.572 71.2279 363.572Z" fill="#343EED"/>
<path d="M39.9573 363.572C44.5713 363.572 48.3117 359.831 48.3117 355.217C48.3117 350.603 44.5713 346.863 39.9573 346.863C35.3434 346.863 31.603 350.603 31.603 355.217C31.603 359.831 35.3434 363.572 39.9573 363.572Z" fill="#343EED"/>
<path d="M85.7679 316.854H45.9744" stroke="#343EED" stroke-width="4" stroke-linecap="round" stroke-linejoin="round"/>
<path d="M288.864 320L234.506 374.359" stroke="#343EED" stroke-width="4"/>
<path d="M273.765 320H288.864V335.1" stroke="#343EED" stroke-width="4" stroke-linecap="round" stroke-linejoin="round"/>
<path d="M249.605 374.359L234.506 374.359L234.506 359.259" stroke="#343EED" stroke-width="4" stroke-linecap="round" stroke-linejoin="round"/>
<path d="M288.864 374.359L234.506 320" stroke="#343EED" stroke-width="4"/>
<path d="M288.864 359.259L288.864 374.359L273.765 374.359" stroke="#343EED" stroke-width="4" stroke-linecap="round" stroke-linejoin="round"/>
<path d="M234.506 335.1L234.506 320L249.605 320" stroke="#343EED" stroke-width="4" stroke-linecap="round" stroke-linejoin="round"/>
<circle cx="150.076" cy="59.9244" r="25.4445" stroke="#343EED" stroke-width="4"/>
<path d="M150.076 85.3689C156.464 85.3689 161.642 73.977 161.642 59.9244C161.642 45.8718 156.464 34.4799 150.076 34.4799" stroke="#343EED" stroke-width="4"/>
<path d="M150.076 85.3689C143.689 85.3689 138.511 73.977 138.511 59.9244C138.511 45.8718 143.689 34.4799 150.076 34.4799" stroke="#343EED" stroke-width="4"/>
<path d="M173.564 59.9244L126.59 59.9244" stroke="#343EED" stroke-width="4"/>
<rect x="2.03564" y="398.567" width="65.5774" height="72.8638" rx="3" stroke="#343EED" stroke-width="4" stroke-linejoin="round"/>
<path d="M34.8245 416.783H53.0404" stroke="#343EED" stroke-width="4" stroke-linecap="round"/>
<path d="M16.6086 416.783H20.2518" stroke="#343EED" stroke-width="4" stroke-linecap="round"/>
<path d="M34.8245 434.999H53.0404" stroke="#343EED" stroke-width="4" stroke-linecap="round"/>
<path d="M16.6086 434.999H20.2518" stroke="#343EED" stroke-width="4" stroke-linecap="round"/>
<path d="M34.8245 453.215H53.0404" stroke="#343EED" stroke-width="4" stroke-linecap="round"/>
<path d="M16.6086 453.215H20.2518" stroke="#343EED" stroke-width="4" stroke-linecap="round"/>
<path d="M176.296 470.906L173.151 467.76C172.521 467.132 171.668 466.779 170.779 466.779C169.889 466.779 169.036 467.132 168.406 467.76L165.207 470.986L173.203 478.983L176.429 475.757C176.748 475.434 176.999 475.051 177.165 474.629C177.332 474.207 177.411 473.756 177.399 473.303C177.386 472.85 177.282 472.403 177.093 471.991C176.903 471.579 176.632 471.21 176.296 470.906Z" fill="#343EED"/>
<path d="M144.551 491.616L141.539 500.652C141.459 500.912 141.451 501.188 141.517 501.451C141.582 501.714 141.718 501.955 141.91 502.147C142.102 502.339 142.342 502.475 142.606 502.54C142.869 502.605 143.145 502.598 143.404 502.518L152.44 499.506L169.314 482.632L161.318 474.636L144.551 491.616Z" fill="#343EED"/>
<path d="M164.622 496.467L164.622 508.702C164.622 510.773 163.799 512.76 162.334 514.224C160.87 515.689 158.883 516.512 156.812 516.512L131.783 516.512C129.716 516.505 127.737 515.679 126.278 514.215C124.819 512.751 124 510.769 124 508.702L124 477.249C124 475.183 124.819 473.2 126.278 471.736C127.737 470.272 129.716 469.447 131.783 469.44L156.812 469.44" stroke="#343EED" stroke-width="4" stroke-miterlimit="10"/>
<rect x="225.253" y="533.209" width="63.6113" height="63.6113" rx="4" stroke="#343EED" stroke-width="4" stroke-linejoin="round"/>
<path d="M288.864 580.917L267.661 565.014L249.486 580.917L237.37 568.99L225.253 580.917" stroke="#343EED" stroke-width="4" stroke-linejoin="round"/>
<circle cx="246.617" cy="551.039" r="7.22855" stroke="#343EED" stroke-width="4"/>
<path d="M72.3993 536.86L65.8872 566.85C65.5358 568.468 64.6738 569.911 63.4428 570.944C62.2118 571.976 60.6848 572.536 59.1125 572.532H15.4972C13.9248 572.536 12.3979 571.976 11.1668 570.944C9.93581 569.911 9.0738 568.468 8.72242 566.85L2.21036 536.86C1.97777 535.785 1.97736 534.668 2.2094 533.593C2.44143 532.518 2.89993 531.512 3.55069 530.649C4.20145 529.786 5.02775 529.09 5.96851 528.61C6.90928 528.131 7.94026 527.881 8.98494 527.88H65.6246C66.6692 527.881 67.7002 528.131 68.641 528.61C69.5817 529.09 70.4082 529.786 71.059 530.649C71.7097 531.512 72.1681 532.518 72.4001 533.593C72.6321 534.668 72.6319 535.785 72.3993 536.86V536.86Z" stroke="#343EED" stroke-width="4" stroke-linecap="round" stroke-linejoin="round"/>
<path d="M68.9948 551.328H5.38354" stroke="#343EED" stroke-width="4" stroke-linecap="round"/>
<path d="M33.8414 533.659L28.8194 523.057H17.1016L22.1235 533.659H33.8414Z" fill="#F2F2F9"/>
<path d="M22.22 508.921L37.2924 539.964" stroke="#343EED" stroke-width="4" stroke-linecap="round" stroke-linejoin="round"/>
<path d="M246.325 662.189C253.153 662.189 257.705 668.448 257.705 674.707V715.391C257.705 715.391 254.86 712.262 246.325 712.262H226.41V662.189H246.325Z" stroke="#343EED" stroke-width="4" stroke-linejoin="round"/>
<path d="M269.085 662.189C262.257 662.189 257.705 668.448 257.705 674.707V715.391C257.705 715.391 260.55 712.262 269.085 712.262H289V662.189H269.085Z" stroke="#343EED" stroke-width="4" stroke-linejoin="round"/>
<path d="M237.79 677.837H246.325" stroke="#343EED" stroke-width="4" stroke-linecap="round" stroke-linejoin="round"/>
<path d="M269.085 677.837H277.621" stroke="#343EED" stroke-width="4" stroke-linecap="round" stroke-linejoin="round"/>
<path d="M237.79 690.355H246.325" stroke="#343EED" stroke-width="4" stroke-linecap="round" stroke-linejoin="round"/>
<path d="M269.085 690.355H277.621" stroke="#343EED" stroke-width="4" stroke-linecap="round" stroke-linejoin="round"/>
<path d="M238.543 47.1062C238.543 41.8541 240.63 36.8172 244.343 33.1034C248.057 29.3897 253.094 27.3033 258.346 27.3033C263.598 27.3033 268.635 29.3897 272.349 33.1034C276.063 36.8172 278.149 41.8541 278.149 47.1062" stroke="#343EED" stroke-width="4" stroke-linecap="round" stroke-linejoin="round"/>
<path d="M258.345 27.3032C265.333 27.3032 270.997 21.6389 270.997 14.6516C270.997 7.66432 265.333 2 258.345 2C251.358 2 245.694 7.66432 245.694 14.6516C245.694 21.6389 251.358 27.3032 258.345 27.3032Z" stroke="#343EED" stroke-width="4" stroke-linecap="round" stroke-linejoin="round"/>
<path d="M278.638 4.50589C278.638 4.50589 281.714 9.51768 281.714 15.7397C281.714 22.8687 278.638 27.0589 278.638 27.0589C278.638 27.0589 288.865 33.3237 288.865 47.1059" stroke="#343EED" stroke-width="4" stroke-linecap="round" stroke-linejoin="round"/>
<circle cx="231.036" cy="456.758" r="27.7576" stroke="#343EED" stroke-width="4"/>
<path d="M231.036 456.758V472.179" stroke="#343EED" stroke-width="4" stroke-linecap="round" stroke-linejoin="round"/>
<path d="M231.036 441.337V444.421" stroke="#343EED" stroke-width="4" stroke-linecap="round" stroke-linejoin="round"/>
<rect x="87" y="581" width="50.118" height="38.3255" stroke="#343EED" stroke-width="4" stroke-linejoin="round"/>
<circle cx="137.118" cy="621.14" r="17.6887" fill="#F2F2F9" stroke="#343EED" stroke-width="4"/>
<path d="M138.705 595.741H87" stroke="#343EED" stroke-width="4" stroke-linejoin="round"/>
<path d="M267.793 173.293C267.793 175.806 265.755 177.844 263.242 177.844C260.729 177.844 258.692 175.806 258.692 173.293C258.692 170.78 260.729 168.743 263.242 168.743C265.755 168.743 267.793 170.78 267.793 173.293Z" fill="#343EED" stroke="#343EED"/>
<path d="M242.865 207.79V200.984C242.865 195.578 245.013 190.393 248.835 186.571C252.658 182.748 257.842 180.601 263.248 180.601C268.654 180.601 273.839 182.748 277.661 186.571C281.484 190.393 283.631 195.578 283.631 200.984V207.747" stroke="#343EED" stroke-width="4" stroke-linecap="round" stroke-linejoin="round"/>
<path d="M237.976 207.79H288.944" stroke="#343EED" stroke-width="4" stroke-linecap="round" stroke-linejoin="round"/>
<path d="M170.323 365.373L170.323 395.323C170.323 396.428 169.428 397.323 168.323 397.323L133 397.323C131.895 397.323 131 396.428 131 395.323L131 365.373" stroke="#343EED" stroke-width="4" stroke-linecap="round"/>
<path d="M150.662 358L150.662 377.662" stroke="#343EED" stroke-width="4" stroke-linecap="round"/>
<path d="M158.035 375.204L150.472 382.577L143.288 375.204" stroke="#343EED" stroke-width="4" stroke-linecap="round" stroke-linejoin="round"/>
<path d="M30.1185 9.88264C30.3394 10.2021 30.7253 10.3648 31.1082 10.2999L39.1468 8.93738C39.8308 8.82144 40.4222 9.42021 40.2977 10.1027L38.8343 18.1279C38.7647 18.5099 38.9225 18.8977 39.2391 19.1226L45.8862 23.8428C46.4519 24.2445 46.4466 25.0861 45.8759 25.4807L39.1672 30.1185C38.8478 30.3394 38.6851 30.7253 38.75 31.1082L40.1125 39.1468C40.2284 39.8308 39.6297 40.4222 38.9472 40.2977L30.922 38.8343C30.54 38.7647 30.1521 38.9225 29.9273 39.2391L25.2071 45.8862C24.8054 46.4519 23.9637 46.4466 23.5692 45.8759L18.9314 39.1672C18.7105 38.8478 18.3246 38.6851 17.9417 38.75L9.90306 40.1125C9.21907 40.2284 8.62772 39.6297 8.75217 38.9472L10.2155 30.922C10.2852 30.54 10.1274 30.1521 9.81074 29.9273L3.16365 25.2071C2.59795 24.8054 2.60325 23.9637 3.17397 23.5692L9.88264 18.9314C10.2021 18.7105 10.3648 18.3246 10.2999 17.9417L8.93738 9.90306C8.82144 9.21907 9.42021 8.62772 10.1027 8.75217L18.1279 10.2155C18.5099 10.2852 18.8977 10.1274 19.1226 9.81074L23.8428 3.16365C24.2445 2.59795 25.0861 2.60325 25.4807 3.17397L30.1185 9.88264Z" stroke="#343EED" stroke-width="4" stroke-linecap="round" stroke-linejoin="round"/>
<path d="M28.5429 682.602V684.602C28.9725 684.602 29.3907 684.464 29.7356 684.208L28.5429 682.602ZM2.0354 682.602V680.602C0.930831 680.602 0.0354004 681.498 0.0354004 682.602H2.0354ZM2.0354 696.134H0.0354004C0.0354004 697.239 0.930831 698.134 2.0354 698.134L2.0354 696.134ZM28.4971 696.134L29.6881 694.527C29.3435 694.272 28.926 694.134 28.4971 694.134V696.134ZM49.7946 711.921L48.6036 713.528C49.2106 713.978 50.0193 714.047 50.6941 713.708C51.3689 713.368 51.7946 712.677 51.7946 711.921H49.7946ZM49.7946 666.815H51.7946C51.7946 666.059 51.3685 665.368 50.6932 665.028C50.0178 664.689 49.2088 664.759 48.602 665.21L49.7946 666.815ZM28.5429 680.602H2.0354V684.602H28.5429V680.602ZM0.0354004 682.602V696.134H4.0354V682.602H0.0354004ZM2.0354 698.134H28.4971V694.134H2.0354V698.134ZM27.3061 697.741L48.6036 713.528L50.9856 710.315L29.6881 694.527L27.3061 697.741ZM51.7946 711.921V666.815H47.7946V711.921H51.7946ZM48.602 665.21L27.3503 680.997L29.7356 684.208L50.9873 668.421L48.602 665.21Z" fill="#343EED"/>
<path d="M17.061 696.134C17.061 695.03 16.1656 694.134 15.061 694.134C13.9565 694.134 13.061 695.03 13.061 696.134L17.061 696.134ZM13.061 711.921C13.061 713.026 13.9565 713.921 15.061 713.921C16.1656 713.921 17.061 713.026 17.061 711.921L13.061 711.921ZM13.061 696.134L13.061 711.921L17.061 711.921L17.061 696.134L13.061 696.134Z" fill="#343EED"/>
</svg>
