<svg width="128" height="24" viewBox="0 0 128 24" fill="none" xmlns="http://www.w3.org/2000/svg">
<path d="M12.7874 2.67276L14.8449 7.59757C14.9444 7.83448 15.11 8.03999 15.3231 8.19117C15.5363 8.34235 15.7886 8.43328 16.052 8.4538L21.5387 8.85202C21.7528 8.8681 21.9571 8.94537 22.1257 9.07401C22.2943 9.20266 22.4196 9.37687 22.4858 9.57456C22.5519 9.77225 22.5559 9.98449 22.4972 10.1844C22.4384 10.3842 22.3197 10.5627 22.156 10.6971L17.9586 14.1485C17.7572 14.3132 17.6073 14.5292 17.5261 14.772C17.4449 15.0148 17.4356 15.2747 17.4991 15.5224L18.8022 20.6995C18.8505 20.9014 18.8362 21.1127 18.7612 21.3069C18.6861 21.5011 18.5536 21.6696 18.3803 21.7914C18.2069 21.9131 18.0003 21.9828 17.7863 21.9917C17.5722 22.0005 17.3602 21.9481 17.1768 21.8411L12.5405 19.0468C12.318 18.9068 12.0583 18.8323 11.7929 18.8323C11.5276 18.8323 11.2679 18.9068 11.0454 19.0468L6.36799 21.8411C6.18498 21.9516 5.97206 22.0067 5.7565 21.9994C5.54094 21.992 5.33255 21.9226 5.15798 21.8C4.98342 21.6774 4.85064 21.5072 4.77663 21.3111C4.70263 21.1151 4.69076 20.9021 4.74256 20.6995L6.04567 15.5224C6.10601 15.2741 6.09437 15.0144 6.01209 14.772C5.92981 14.5296 5.78004 14.3139 5.57926 14.1485L1.38195 10.6971C1.21796 10.5623 1.09919 10.3833 1.04074 10.1828C0.982294 9.9824 0.986817 9.76969 1.05376 9.57177C1.12071 9.37385 1.24705 9.19969 1.41665 9.0715C1.58625 8.94332 1.79144 8.86692 2.00608 8.85202L7.49277 8.4538C7.75715 8.43373 8.01059 8.34306 8.2249 8.1919C8.43922 8.04074 8.60598 7.83499 8.70667 7.59757L10.7642 2.67276C10.8427 2.47478 10.9815 2.30451 11.1621 2.1844C11.3427 2.06429 11.5567 2 11.7758 2C11.995 2 12.2089 2.06429 12.3895 2.1844C12.5701 2.30451 12.7089 2.47478 12.7874 2.67276Z" fill="url(#paint0_linear_4116_24914)"/>
<path d="M38.7874 2.67276L40.8449 7.59757C40.9444 7.83448 41.11 8.03999 41.3231 8.19117C41.5363 8.34235 41.7886 8.43328 42.052 8.4538L47.5387 8.85202C47.7528 8.8681 47.9571 8.94537 48.1257 9.07401C48.2943 9.20266 48.4196 9.37687 48.4858 9.57456C48.5519 9.77225 48.5559 9.98449 48.4972 10.1844C48.4384 10.3842 48.3197 10.5627 48.156 10.6971L43.9586 14.1485C43.7572 14.3132 43.6073 14.5292 43.5261 14.772C43.4449 15.0148 43.4356 15.2747 43.4991 15.5224L44.8022 20.6995C44.8505 20.9014 44.8362 21.1127 44.7612 21.3069C44.6861 21.5011 44.5536 21.6696 44.3803 21.7914C44.2069 21.9131 44.0003 21.9828 43.7863 21.9917C43.5722 22.0005 43.3602 21.9481 43.1768 21.8411L38.5405 19.0468C38.318 18.9068 38.0583 18.8323 37.7929 18.8323C37.5276 18.8323 37.2679 18.9068 37.0454 19.0468L32.368 21.8411C32.185 21.9516 31.9721 22.0067 31.7565 21.9994C31.5409 21.992 31.3325 21.9226 31.158 21.8C30.9834 21.6774 30.8506 21.5072 30.7766 21.3111C30.7026 21.1151 30.6908 20.9021 30.7426 20.6995L32.0457 15.5224C32.106 15.2741 32.0944 15.0144 32.0121 14.772C31.9298 14.5296 31.78 14.3139 31.5793 14.1485L27.3819 10.6971C27.218 10.5623 27.0992 10.3833 27.0407 10.1828C26.9823 9.9824 26.9868 9.76969 27.0538 9.57177C27.1207 9.37385 27.247 9.19969 27.4166 9.0715C27.5862 8.94332 27.7914 8.86692 28.0061 8.85202L33.4928 8.4538C33.7572 8.43373 34.0106 8.34306 34.2249 8.1919C34.4392 8.04074 34.606 7.83499 34.7067 7.59757L36.7642 2.67276C36.8427 2.47478 36.9815 2.30451 37.1621 2.1844C37.3427 2.06429 37.5567 2 37.7758 2C37.995 2 38.2089 2.06429 38.3895 2.1844C38.5701 2.30451 38.7089 2.47478 38.7874 2.67276Z" fill="url(#paint1_linear_4116_24914)"/>
<path d="M64.7874 2.67276L66.8449 7.59757C66.9444 7.83448 67.11 8.03999 67.3231 8.19117C67.5363 8.34235 67.7886 8.43328 68.052 8.4538L73.5387 8.85202C73.7528 8.8681 73.9571 8.94537 74.1257 9.07401C74.2943 9.20266 74.4196 9.37687 74.4858 9.57456C74.5519 9.77225 74.5559 9.98449 74.4972 10.1844C74.4384 10.3842 74.3197 10.5627 74.156 10.6971L69.9586 14.1485C69.7572 14.3132 69.6073 14.5292 69.5261 14.772C69.4449 15.0148 69.4356 15.2747 69.4991 15.5224L70.8022 20.6995C70.8505 20.9014 70.8362 21.1127 70.7612 21.3069C70.6861 21.5011 70.5536 21.6696 70.3803 21.7914C70.2069 21.9131 70.0003 21.9828 69.7863 21.9917C69.5722 22.0005 69.3602 21.9481 69.1768 21.8411L64.5405 19.0468C64.318 18.9068 64.0583 18.8323 63.7929 18.8323C63.5276 18.8323 63.2679 18.9068 63.0454 19.0468L58.368 21.8411C58.185 21.9516 57.9721 22.0067 57.7565 21.9994C57.5409 21.992 57.3325 21.9226 57.158 21.8C56.9834 21.6774 56.8506 21.5072 56.7766 21.3111C56.7026 21.1151 56.6908 20.9021 56.7426 20.6995L58.0457 15.5224C58.106 15.2741 58.0944 15.0144 58.0121 14.772C57.9298 14.5296 57.78 14.3139 57.5793 14.1485L53.3819 10.6971C53.218 10.5623 53.0992 10.3833 53.0407 10.1828C52.9823 9.9824 52.9868 9.76969 53.0538 9.57177C53.1207 9.37385 53.247 9.19969 53.4166 9.0715C53.5862 8.94332 53.7914 8.86692 54.0061 8.85202L59.4928 8.4538C59.7572 8.43373 60.0106 8.34306 60.2249 8.1919C60.4392 8.04074 60.606 7.83499 60.7067 7.59757L62.7642 2.67276C62.8427 2.47478 62.9815 2.30451 63.1621 2.1844C63.3427 2.06429 63.5567 2 63.7758 2C63.995 2 64.2089 2.06429 64.3895 2.1844C64.5701 2.30451 64.7089 2.47478 64.7874 2.67276Z" fill="url(#paint2_linear_4116_24914)"/>
<path d="M90.7874 2.67276L92.8449 7.59757C92.9444 7.83448 93.11 8.03999 93.3231 8.19117C93.5363 8.34235 93.7886 8.43328 94.052 8.4538L99.5387 8.85202C99.7528 8.8681 99.9571 8.94537 100.126 9.07401C100.294 9.20266 100.42 9.37687 100.486 9.57456C100.552 9.77225 100.556 9.98449 100.497 10.1844C100.438 10.3842 100.32 10.5627 100.156 10.6971L95.9586 14.1485C95.7572 14.3132 95.6073 14.5292 95.5261 14.772C95.4449 15.0148 95.4356 15.2747 95.4991 15.5224L96.8022 20.6995C96.8505 20.9014 96.8362 21.1127 96.7612 21.3069C96.6861 21.5011 96.5536 21.6696 96.3803 21.7914C96.2069 21.9131 96.0003 21.9828 95.7863 21.9917C95.5722 22.0005 95.3602 21.9481 95.1768 21.8411L90.5405 19.0468C90.318 18.9068 90.0583 18.8323 89.7929 18.8323C89.5276 18.8323 89.2679 18.9068 89.0454 19.0468L84.368 21.8411C84.185 21.9516 83.9721 22.0067 83.7565 21.9994C83.5409 21.992 83.3325 21.9226 83.158 21.8C82.9834 21.6774 82.8506 21.5072 82.7766 21.3111C82.7026 21.1151 82.6908 20.9021 82.7426 20.6995L84.0457 15.5224C84.106 15.2741 84.0944 15.0144 84.0121 14.772C83.9298 14.5296 83.78 14.3139 83.5793 14.1485L79.3819 10.6971C79.218 10.5623 79.0992 10.3833 79.0407 10.1828C78.9823 9.9824 78.9868 9.76969 79.0538 9.57177C79.1207 9.37385 79.247 9.19969 79.4166 9.0715C79.5862 8.94332 79.7914 8.86692 80.0061 8.85202L85.4928 8.4538C85.7572 8.43373 86.0106 8.34306 86.2249 8.1919C86.4392 8.04074 86.606 7.83499 86.7067 7.59757L88.7642 2.67276C88.8427 2.47478 88.9815 2.30451 89.1621 2.1844C89.3427 2.06429 89.5567 2 89.7758 2C89.995 2 90.2089 2.06429 90.3895 2.1844C90.5701 2.30451 90.7089 2.47478 90.7874 2.67276Z" fill="url(#paint3_linear_4116_24914)"/>
<path d="M116.787 2.67276L118.845 7.59757C118.944 7.83448 119.11 8.03999 119.323 8.19117C119.536 8.34235 119.789 8.43328 120.052 8.4538L125.539 8.85202C125.753 8.8681 125.957 8.94537 126.126 9.07401C126.294 9.20266 126.42 9.37687 126.486 9.57456C126.552 9.77225 126.556 9.98449 126.497 10.1844C126.438 10.3842 126.32 10.5627 126.156 10.6971L121.959 14.1485C121.757 14.3132 121.607 14.5292 121.526 14.772C121.445 15.0148 121.436 15.2747 121.499 15.5224L122.802 20.6995C122.85 20.9014 122.836 21.1127 122.761 21.3069C122.686 21.5011 122.554 21.6696 122.38 21.7914C122.207 21.9131 122 21.9828 121.786 21.9917C121.572 22.0005 121.36 21.9481 121.177 21.8411L116.541 19.0468C116.318 18.9068 116.058 18.8323 115.793 18.8323C115.528 18.8323 115.268 18.9068 115.045 19.0468L110.368 21.8411C110.185 21.9516 109.972 22.0067 109.756 21.9994C109.541 21.992 109.333 21.9226 109.158 21.8C108.983 21.6774 108.851 21.5072 108.777 21.3111C108.703 21.1151 108.691 20.9021 108.743 20.6995L110.046 15.5224C110.106 15.2741 110.094 15.0144 110.012 14.772C109.93 14.5296 109.78 14.3139 109.579 14.1485L105.382 10.6971C105.218 10.5623 105.099 10.3833 105.041 10.1828C104.982 9.9824 104.987 9.76969 105.054 9.57177C105.121 9.37385 105.247 9.19969 105.417 9.0715C105.586 8.94332 105.791 8.86692 106.006 8.85202L111.493 8.4538C111.757 8.43373 112.011 8.34306 112.225 8.1919C112.439 8.04074 112.606 7.83499 112.707 7.59757L114.764 2.67276C114.843 2.47478 114.982 2.30451 115.162 2.1844C115.343 2.06429 115.557 2 115.776 2C115.995 2 116.209 2.06429 116.39 2.1844C116.57 2.30451 116.709 2.47478 116.787 2.67276Z" fill="#9795A5"/>
<defs>
<linearGradient id="paint0_linear_4116_24914" x1="0.234628" y1="17.8571" x2="16.7573" y2="0.0627922" gradientUnits="userSpaceOnUse">
<stop stop-color="#F6B62F"/>
<stop offset="1" stop-color="#F6DA2F"/>
</linearGradient>
<linearGradient id="paint1_linear_4116_24914" x1="26.2346" y1="17.8571" x2="42.7573" y2="0.0627922" gradientUnits="userSpaceOnUse">
<stop stop-color="#F6B62F"/>
<stop offset="1" stop-color="#F6DA2F"/>
</linearGradient>
<linearGradient id="paint2_linear_4116_24914" x1="52.2346" y1="17.8571" x2="68.7573" y2="0.0627922" gradientUnits="userSpaceOnUse">
<stop stop-color="#F6B62F"/>
<stop offset="1" stop-color="#F6DA2F"/>
</linearGradient>
<linearGradient id="paint3_linear_4116_24914" x1="78.2346" y1="17.8571" x2="94.7573" y2="0.0627922" gradientUnits="userSpaceOnUse">
<stop stop-color="#F6B62F"/>
<stop offset="1" stop-color="#F6DA2F"/>
</linearGradient>
</defs>
</svg>
