<svg width="30" height="30" viewBox="0 0 30 30" fill="none" xmlns="http://www.w3.org/2000/svg">
<path d="M9 24C7.89543 24 6.97512 23.0906 7.25173 22.0213C7.60199 20.6671 8.3087 19.418 9.31458 18.4121C10.7966 16.9301 12.8066 16.0975 14.9025 16.0975C16.9984 16.0975 19.0084 16.9301 20.4904 18.4121C21.4963 19.418 22.203 20.6671 22.5533 22.0213" stroke="#343EED" stroke-width="2" stroke-linecap="round" stroke-linejoin="round"/>
<path d="M14.9023 16.0975C17.6906 16.0975 19.951 13.8371 19.951 11.0487C19.951 8.2604 17.6906 6 14.9023 6C12.1139 6 9.85352 8.2604 9.85352 11.0487C9.85352 13.8371 12.1139 16.0975 14.9023 16.0975Z" stroke="#343EED" stroke-width="2" stroke-linecap="round" stroke-linejoin="round"/>
</svg>
